<?xml version="1.0" encoding="UTF-8"?><svg id="_レイヤー_1" xmlns="http://www.w3.org/2000/svg" viewBox="0 0 32 33.16"><defs><style>.cls-1,.cls-2{stroke-width:0px;}.cls-2{fill:#fff;}</style></defs><path class="cls-1" d="m18.83,33.15c-.34-.14-.69-.4-1.04-.41-5.61-.22-11.21-.41-16.82-.61-.3-.01-.59-.03-.97-.05v-3.59c2.5-.18,4.98-.39,7.47-.52.53-.03,1.12.17,1.6.41,2.71,1.36,5.62,1.66,8.57,1.51.78-.04,1.54-.68,2.46-1.12v-4.71h9.82c.05,1.48.15,4.42.15,4.42h.27s0,4.69,0,4.69l-11.53-.02Zm8.61-6.69l-.74-1.49-.87,1.41-.78-1.41-.82,1.39-.88-1.4-.72,1.41-.68-1.41h-.86s.01,2.58.01,3.51h7.77v-3.45h-.7s-.72,1.43-.72,1.43Z"/><path class="cls-1" d="m20.08,15.57c-1.56,1.16-1.11,1.53-.17,2.72-.87.69-1.67,1.33-2.56,2.03-.88-.95-1.3-1.83-2.75-.29-3.34-3.49-6.55-6.84-9.86-10.3,2.57-2.03,5.06-3.99,7.69-6.07,2.56,3.98,5.07,7.87,7.66,11.91Zm-9.62-2.06v-6.34c-1.31,1.02-2.33,1.83-3.46,2.71,1.21,1.26,2.31,2.42,3.46,3.63Z"/><path class="cls-1" d="m31.91,17.74c.53,2.81-1.39,5.22-4.25,5.22-2.33,0-6.98-.03-7.1-.03-.15-1.94,1.64-4.31,3.96-4.76,1.58-.31,3.25-.18,4.88-.25.94,0,1.21-.02,2.52-.18Zm-4.06,1.67c-2.3-.54-4.01-.17-4.77.97,1.64.16,3.23.32,4.77-.97Z"/><path class="cls-1" d="m3.59,8.48c-.63-.63-1.24-1.24-1.9-1.9C4.51,4.36,7.23,2.22,10.05,0c.52.8.95,1.47,1.44,2.23-2.66,2.1-5.25,4.14-7.91,6.24Z"/><path class="cls-2" d="m27.44,26.46l.72-1.43h.7v3.45h-7.77v-3.51s.85,0,.85,0l.68,1.41.72-1.41.88,1.4s.6-1.04.82-1.39c.19.38.78,1.41.78,1.41l.87-1.41.74,1.49Z"/><path class="cls-2" d="m10.46,13.5c-1.15-1.21-2.26-2.36-3.46-3.63,1.13-.88,2.16-1.69,3.46-2.71v6.34Z"/><path class="cls-2" d="m27.85,19.41c-1.54,1.28-3.13,1.13-4.77.97.76-1.14,2.47-1.51,4.77-.97Z"/></svg>