<?xml version="1.0" encoding="UTF-8"?><svg id="_2" xmlns="http://www.w3.org/2000/svg" viewBox="0 0 32 52.41"><defs><style>.cls-1{fill:#212121;stroke-width:0px;}</style></defs><path class="cls-1" d="m18.08,2.18c0-1.2-.97-2.18-2.18-2.18h-4.36c-1.2,0-2.18.97-2.18,2.18v5.5h8.72V2.18h0Z"/><rect class="cls-1" x="6.72" y="9.58" width="13.81" height="4.43"/><path class="cls-1" d="m20.53,15.9H6.66C.69,24.95,0,36.88,0,47.7c0,2.22,1.66,4.72,3.61,4.72h23.17c3.24,0,3.96-2.55,4.44-4.72,2.36-10.68-.42-24.31-10.68-31.8Zm5.87,22.22c-.02.58-.17,1.13-.43,1.61-.26.48-.64.91-1.14,1.19-.33.19-.73.3-1.15.3-.42,0-.85-.12-1.23-.34-.38-.22-.73-.53-1.04-.92-.62-.79-1.13-1.89-1.55-3.44-.4-1.49-.57-2.73-.57-3.76,0-.86.12-1.58.37-2.19.24-.61.64-1.11,1.16-1.41.35-.2.74-.3,1.13-.3.46,0,.9.14,1.28.36.38.22.72.52,1,.89.77,1,1.3,2.25,1.65,3.58.35,1.33.53,2.73.53,4.06,0,.13,0,.26,0,.39Z"/></svg>