<?xml version="1.0" encoding="UTF-8"?><svg id="_2" xmlns="http://www.w3.org/2000/svg" viewBox="0 0 32 67.84"><defs><style>.cls-1{fill:#212121;stroke-width:0px;}</style></defs><path class="cls-1" d="m30.76,28.22c-.57-.57-1.31-.99-2.14-1.15v-4.4c0-.42-.09-.83-.24-1.2-.23-.55-.62-1.02-1.11-1.35-.49-.33-1.09-.53-1.72-.53h-1.33v-4.62h2.05V0h-12.93v5.2h-3.14c-.72,0-1.42.1-2.08.26-1.16.29-2.23.76-3.19,1.3-1.44.81-2.64,1.77-3.5,2.53-.86.76-1.38,1.33-1.41,1.37l2.28,2.07.45.42h0c.05-.05,1.09-1.17,2.55-2.23.74-.54,1.59-1.06,2.45-1.43.43-.18.86-.33,1.27-.43.41-.1.81-.15,1.19-.15h3.14v6.08h2.05v4.62h-1.33c-.42,0-.83.09-1.2.24-.55.24-1.02.62-1.35,1.11-.33.49-.53,1.09-.53,1.72v4.4c-.83.17-1.57.58-2.14,1.15-.77.76-1.24,1.83-1.24,3v32.38c0,1.17.48,2.24,1.24,3,.76.77,1.83,1.24,3,1.24h15.93c1.17,0,2.24-.48,3-1.24.77-.76,1.24-1.83,1.24-3V31.22c0-1.17-.48-2.24-1.24-3ZM16,8.89V2.67h7.59v9.64h-7.59v-3.42h0Zm5.54,6.08v4.57h-3.49v-4.57s3.49,0,3.49,0Zm-7.9,7.69c0-.06.01-.11.03-.16.03-.07.08-.14.15-.18.07-.04.14-.07.23-.07h11.49c.06,0,.11.01.16.03.07.03.14.08.18.15.04.07.07.14.07.23v4.31h-12.31v-4.31h0Zm15.69,40.93c0,.22-.04.43-.12.61-.12.28-.32.53-.57.69-.25.17-.55.27-.88.27h-15.93c-.22,0-.43-.04-.61-.12-.28-.12-.52-.32-.69-.57-.17-.25-.27-.55-.27-.88V31.22c0-.22.04-.43.12-.61.12-.28.32-.52.57-.69.25-.17.55-.27.88-.27h15.93c.22,0,.42.04.61.12.28.12.52.32.69.57.17.25.27.55.27.88v32.38Z"/></svg>