<?xml version="1.0" encoding="UTF-8"?><svg id="contents" xmlns="http://www.w3.org/2000/svg" viewBox="0 0 32 23.32"><defs><style>.cls-1{fill:#212121;stroke-width:0px;}</style></defs><rect class="cls-1" x="4.6" y="3.27" width="4.78" height="9.18"/><path class="cls-1" d="m28.66,4.52h-2.12v-1.18c0-1.84-1.5-3.34-3.34-3.34H3.34C1.5,0,0,1.5,0,3.34v9.03c0,1.84,1.5,3.34,3.34,3.34h2.12v4.27c0,1.84,1.5,3.34,3.34,3.34h19.86c1.84,0,3.34-1.5,3.34-3.34V7.85c0-1.84-1.5-3.34-3.34-3.34Zm1.14,15.46c0,.63-.51,1.14-1.14,1.14H8.8c-.63,0-1.14-.51-1.14-1.14v-4.27h13.99c.61,0,1.1-.49,1.1-1.1s-.49-1.1-1.1-1.1H3.34c-.63,0-1.14-.51-1.14-1.14V3.34c0-.63.51-1.14,1.14-1.14h19.86c.63,0,1.14.51,1.14,1.14v12.82c0,.63-.51,1.14-1.14,1.14h-12.48c-.61,0-1.1.49-1.1,1.1s.49,1.1,1.1,1.1h12.48c1.84,0,3.34-1.5,3.34-3.34V6.71h2.12c.63,0,1.14.51,1.14,1.14v12.13Z"/><rect class="cls-1" x="10.9" y="3.27" width="1.7" height="9.18"/></svg>