<?xml version="1.0" encoding="UTF-8"?><svg id="_2" xmlns="http://www.w3.org/2000/svg" viewBox="0 0 32 62.06"><defs><style>.cls-1{fill:#212121;stroke-width:0px;}</style></defs><path class="cls-1" d="m5.65,4.89c.65-.57,1.48-.88,2.33-.89h3.57v6.06h3.13v5.06h-2.56c-.97,0-1.76.79-1.76,1.76v5.33h13.64v-5.33c0-.97-.79-1.76-1.76-1.76h-2.56v-5.06h3.13v-6.06h2.39V0H7.94c-1.81.02-3.56.68-4.93,1.88L0,4.51l2.63,3.02,3.01-2.63Z"/><path class="cls-1" d="m23.25,24.07h-12.14c-4.83,0-8.75,3.92-8.75,8.75v25.3c0,2.18,1.76,3.94,3.94,3.94h21.76c2.18,0,3.94-1.76,3.94-3.94v-25.3c0-4.83-3.92-8.75-8.75-8.75Z"/></svg>