<?xml version="1.0" encoding="UTF-8"?><svg id="_10" xmlns="http://www.w3.org/2000/svg" viewBox="0 0 32 51.34"><defs><style>.cls-1{fill:#212121;stroke-width:0px;}</style></defs><path class="cls-1" d="m7.13,36.07c.31-.22.63-.45,1.04-.63.4-.18.9-.29,1.51-.29s1.1.11,1.51.29c.41.18.73.4,1.04.62.65.45,1.17.84,2.45.85,1.17,0,1.72-.34,2.3-.75l-2.29-7.36h0l-1.33-4.24c-.1-.34-.34-.65-.69-.87-.34-.23-.78-.37-1.25-.37h-4.11c-.58,0-1.1.21-1.45.52-.36.31-.55.71-.55,1.13v11.89c.84-.11,1.3-.43,1.82-.81h0s0,0,0,0Z"/><path class="cls-1" d="m7.32,44.47h8.86c.58,0,1.1-.21,1.45-.52.36-.32.54-.72.55-1.14v-2.6c0-.13-.02-.27-.07-.41l-.9-2.89c-.58.39-1.34.76-2.53.75-1.45,0-2.25-.53-2.87-.98-.31-.22-.59-.41-.91-.54-.32-.14-.69-.23-1.22-.23s-.9.1-1.22.23c-.32.13-.59.33-.9.54h0c-.54.38-1.19.84-2.25.95v5.18c0,.43.19.82.55,1.14.36.31.87.52,1.45.52Z"/><path class="cls-1" d="m31.99,34.63c-.19-8.56-4.01-13.73-7.18-16.57-2.31-2.06-4.61-3.21-5.93-3.75v-1.18l-.37-.42-.3-.34v-6.07c0-1.13-.92-2.05-2.05-2.05H5.11c-1.13,0-2.05.92-2.05,2.05v6.07l-.3.34-.37.42v3.39h0l-1.55,3.41C.28,21.14,0,22.44,0,23.77v22.1c-.01.97-.04,2.78,1.29,4.12.88.9,2.12,1.34,3.68,1.34h13.28c2.96,0,5.91-1.15,8.08-3.16,1.87-1.72,5.05-5.12,5.45-8.48.18-1.56.25-3.26.21-5.07ZM7.32,21.82h4.11c.77,0,1.49.22,2.09.62.59.4,1.06.98,1.28,1.68l1.63,5.21.3.97,2.82,9.05c.08.28.13.57.13.86v2.6c0,.9-.43,1.71-1.07,2.26-.63.56-1.5.89-2.43.89H7.32c-.93,0-1.8-.34-2.43-.89-.64-.55-1.07-1.37-1.07-2.26v-17.83c0-.9.43-1.7,1.07-2.26.63-.55,1.5-.89,2.43-.89Zm-2.77-8.89v-6.63c0-.31.25-.56.56-.56h11.04c.31,0,.56.25.56.56v6.63l.67.76v1.25l-.1-.03H4.35l-.04.1h-.43v-1.33l.67-.76Zm19.78,24.73h-.04c-1.07,0-1.97-.75-2.22-1.86-1.05-4.6-1.54-6.58-2.51-9.19-.55-1.51-.57-2.05.41-2.71.39-.27.85-.41,1.34-.41.71,0,1.38.31,1.8.83.03.04,2.9,3.67,3.41,11.2.04.53-.16,1.04-.54,1.44-.39.42-.94.66-1.54.7h-.11Z"/><path class="cls-1" d="m7.16,0h-1.93v3.36h3.66c-.38-1.95-1.74-3.36-1.74-3.36Z"/><path class="cls-1" d="m6.38,11.69l3.3-4.18c.23-.29.02-.72-.35-.72h-3.3c-.25,0-.45.2-.45.45v4.18c0,.42.53.6.8.28Z"/></svg>