<?xml version="1.0" encoding="UTF-8"?><svg id="_レイヤー_1" xmlns="http://www.w3.org/2000/svg" viewBox="0 0 32 41.67"><defs><style>.cls-1{fill:#212121;stroke-width:0px;}</style></defs><path class="cls-1" d="m31.71,11l-3.38-9.29s-.01-.04-.02-.05c-.48-1.01-1.52-1.66-2.64-1.66H6.33c-1.12,0-2.15.65-2.64,1.66,0,.02-.02.04-.02.05L.29,11C-.02,11.67-.02,12.8.01,14.09c0,.2,0,.38,0,.53v24.69c0,1.3,1.06,2.37,2.37,2.37h27.23c1.3,0,2.37-1.06,2.37-2.37V14.61c0-.15,0-.33,0-.53.03-1.29.03-2.41-.28-3.09Zm-30.33.49s.02-.04.02-.05L4.78,2.15c.29-.58.89-.96,1.55-.96h19.35c.65,0,1.26.37,1.55.96l3.37,9.28s.01.04.02.05c.22.47.19,1.83.17,2.57,0,.21,0,.4,0,.56v23.68H1.22V14.61c0-.15,0-.34,0-.56-.02-.73-.05-2.1.18-2.57Zm28.23,28.98H2.39c-.58,0-1.06-.42-1.15-.98h29.53c-.09.55-.57.98-1.15.98Z"/><path class="cls-1" d="m4.29,13.66h23.06c.66,0,1.27-.32,1.64-.86.37-.54.45-1.22.22-1.82l-.63-1.95s0-.02-.01-.03c-.29-.76-1.04-1.27-1.86-1.27H4.92c-.82,0-1.56.51-1.86,1.27,0,.01,0,.02-.01.03l-.63,1.95c-.23.61-.15,1.29.22,1.82.37.54.98.86,1.64.86Zm-.74-2.27s0-.02.01-.03l.63-1.94c.12-.3.41-.49.74-.49h21.79c.32,0,.61.2.74.49l.63,1.94s0,.02.01.03c.1.25.06.52-.09.73-.15.22-.39.34-.65.34H4.29c-.27,0-.5-.13-.65-.34-.15-.22-.18-.49-.09-.73Z"/><polygon class="cls-1" points="21.7 10.09 15.36 10.09 15.31 11.47 21.93 11.47 21.7 10.09"/><path class="cls-1" d="m6.09,11.48c.4,0,.81-.32.93-.71.11-.38-.11-.68-.49-.68s-.79.3-.92.68c-.13.39.08.71.48.71Z"/><path class="cls-1" d="m9.08,11.44c.21-.06.39-.21.51-.4.29-.5.03-.95-.44-.95-.38,0-.77.3-.86.68-.12.47.25.84.79.67Z"/><path class="cls-1" d="m11.55,11.48c.4,0,.76-.32.81-.71.05-.38-.22-.68-.6-.68s-.74.3-.81.68c-.07.39.2.71.6.71Z"/><path class="cls-1" d="m24.95,11.77c.77.2,1.26-.34,1.07-1-.16-.55-.73-.98-1.28-.98-.67,0-1.03.64-.62,1.35.18.31.48.54.83.64Z"/><path class="cls-1" d="m5.97,7.11h20.06c.33,0,.6-.27.6-.6s-.27-.6-.6-.6h-5.94c-.93-.8-2.41-1.33-4.09-1.33s-3.16.52-4.09,1.33h-5.94c-.33,0-.6.27-.6.6s.27.6.6.6Z"/></svg>