<?xml version="1.0" encoding="UTF-8"?><svg id="_2" xmlns="http://www.w3.org/2000/svg" viewBox="0 0 32 26.7"><defs><style>.cls-1{fill:#212121;stroke-width:0px;}</style></defs><path class="cls-1" d="m31.67,22.69c-.22-.4-.54-.74-.94-.99l-14.37-9.02v-1.27s.02-.08.05-.11c.13-.01.3-.03.5-.07.41-.08.95-.23,1.49-.58.79-.52,1.45-1.22,1.91-2.05.46-.83.72-1.79.72-2.8,0-1.59-.65-3.05-1.69-4.09-1.04-1.04-2.5-1.69-4.09-1.69-1.19,0-2.31.36-3.24.99-.92.62-1.65,1.5-2.09,2.54-.24.56.03,1.21.59,1.45.56.24,1.21-.03,1.45-.59.27-.64.72-1.19,1.29-1.57.57-.38,1.25-.61,1.99-.61.99,0,1.87.4,2.52,1.05.65.65,1.04,1.53,1.05,2.52,0,.63-.16,1.22-.45,1.73-.28.51-.69.95-1.18,1.27-.19.13-.48.22-.7.26-.11.02-.21.03-.28.04-.03,0-.06,0-.07,0h-.16s-.15.05-.15.05c-1,.3-1.69,1.22-1.69,2.27v1.31L1.16,21.76h0C.42,22.28,0,23.12,0,23.99,0,24.26.04,24.54.13,24.8c.36,1.13,1.4,1.9,2.59,1.9h26.57c1.21,0,2.27-.8,2.61-1.96h0c.07-.25.11-.5.11-.75,0-.46-.12-.91-.33-1.3Zm-1.9,1.44h0c-.06.21-.26.36-.48.36H2.71c-.22,0-.41-.14-.47-.35-.02-.05-.02-.1-.02-.15,0-.16.08-.31.21-.41h0l12.85-8.97,14.27,8.95c.08.05.13.11.17.18.04.07.06.16.06.24,0,.05,0,.09-.02.14Z"/></svg>