<?xml version="1.0" encoding="UTF-8"?><svg id="_2" xmlns="http://www.w3.org/2000/svg" viewBox="0 0 32 59.71"><defs><style>.cls-1{fill:#212121;stroke-width:0px;}</style></defs><path class="cls-1" d="m7.89,44.9c-1.38,0-2.55-1.01-2.73-2.35L.02,3.03c-.1-.75.14-1.52.64-2.1.52-.6,1.28-.94,2.09-.94h26.5c.8,0,1.56.34,2.09.94.51.58.74,1.34.64,2.1l-5.14,39.51c-.17,1.34-1.35,2.35-2.73,2.35H7.89ZM9.18,3.9c-.69,0-1.35.14-1.96.43-.59.27-1.11.66-1.54,1.16-.43.49-.75,1.06-.95,1.68-.2.65-.26,1.32-.17,2l1.18,9.03L13.33,3.87l-4.15.03Z"/><path class="cls-1" d="m29.25.02H2.75C1.1.02-.17,1.43.04,3.03l5.14,39.51c.17,1.34,1.33,2.34,2.71,2.34h16.21c1.38,0,2.54-1,2.71-2.34L31.96,3.03c.21-1.6-1.06-3.01-2.71-3.01ZM5.71,18.2l-1.18-9.03c-.09-.7-.02-1.38.17-2.01.2-.63.52-1.2.95-1.69.43-.49.95-.88,1.55-1.16s1.26-.43,1.97-.43h4.17l-7.64,14.32Z"/><path class="cls-1" d="m16,59.71c-5.41,0-9.65-.44-9.65-1v-10.21l19.29-.02.02,10.23c0,.56-4.24,1-9.65,1Z"/><path class="cls-1" d="m6.36,58.71c0,.54,4.32.98,9.64.98s9.64-.44,9.64-.98v-10.21H6.36v10.21Z"/></svg>