<?xml version="1.0" encoding="UTF-8"?><svg id="_2" xmlns="http://www.w3.org/2000/svg" viewBox="0 0 32 65.53"><defs><style>.cls-1{fill:#212121;stroke-width:0px;}</style></defs><path class="cls-1" d="m9.52,15.16v5.17h12.96v-5.17c0-.65-.53-1.17-1.17-1.17h-10.62c-.65,0-1.17.52-1.17,1.17Z"/><rect class="cls-1" x="13.17" y="9.85" width="5.65" height="3.31"/><path class="cls-1" d="m5.32,7.26c.49-.42,1.11-.66,1.75-.67l2.45-.02v2.45h12.96V2.76c0-1.52-1.24-2.76-2.76-2.76h-7.45c-1.52,0-2.76,1.23-2.76,2.76v1.05l-2.48.02h0c-1.3.01-2.56.49-3.54,1.35l-2.2,1.92,1.81,2.08,2.2-1.92Z"/><path class="cls-1" d="m26.5,21.39H5.5S-.96,26.24.12,28.93c1.08,2.69,6.46,23.14,3.77,33.37-1.08,3.23,1.08,3.23,2.69,3.23h18.84c1.61,0,3.77,0,2.69-3.23-2.69-10.23,2.69-30.68,3.77-33.37,1.08-2.69-5.38-7.54-5.38-7.54Zm-20.18,14.05s-2.11-4.07-1.85-5.91c.37-2.58,4.8-3.32,4.98-2.4l-3.14,8.31Z"/></svg>