<?xml version="1.0" encoding="UTF-8"?><svg id="_2" xmlns="http://www.w3.org/2000/svg" viewBox="0 0 32 32.67"><defs><style>.cls-1{fill:#212121;stroke-width:0px;}</style></defs><path class="cls-1" d="m12.76,19.55v2.44c0,.43.35.79.79.79h1.58v-4.02h-1.58c-.43,0-.79.35-.79.79Z"/><polygon class="cls-1" points="0 16.69 5.53 15.74 5.53 1.92 0 .96 0 16.69"/><path class="cls-1" d="m29.49,2.4c-.84-.83-1.84-1.46-2.93-1.86v16.58c1.08-.41,2.09-1.04,2.93-1.86,1.61-1.58,2.51-3.73,2.51-5.98v-.89c0-2.25-.91-4.41-2.51-5.98Z"/><path class="cls-1" d="m7.24,1.81v14.04l9.25,1.03v12.29c0,1.93,1.57,3.5,3.5,3.5s3.5-1.57,3.5-3.5v-11.52c.4,0,.79-.02,1.19-.07V.07c-.4-.05-.8-.07-1.21-.06L7.24,1.81Z"/></svg>