<?xml version="1.0" encoding="UTF-8"?><svg id="_2" xmlns="http://www.w3.org/2000/svg" viewBox="0 0 32 62.56"><defs><style>.cls-1{fill:#212121;stroke-width:0px;}</style></defs><path class="cls-1" d="m10.13,13.73v4.69h11.74v-4.69c0-.59-.48-1.06-1.06-1.06h-9.62c-.59,0-1.06.48-1.06,1.06Z"/><rect class="cls-1" x="13.44" y="8.92" width="5.12" height="3"/><path class="cls-1" d="m6.32,6.57c.44-.38,1-.6,1.59-.6l2.22-.02v2.22h11.74V2.5c0-1.38-1.12-2.5-2.5-2.5h-6.75c-1.38,0-2.5,1.12-2.5,2.5v.95l-2.24.02h0c-1.18.01-2.32.44-3.21,1.22l-1.99,1.74,1.64,1.88,2-1.74Z"/><path class="cls-1" d="m31.68,25.76c-.33-.82-.83-1.54-1.38-2.22-.83-1.01-1.78-1.91-2.54-2.57-.76-.66-1.32-1.08-1.34-1.1l-.4-.3H5.99l-.4.3s-1.32.99-2.65,2.32c-.67.67-1.35,1.43-1.9,2.25-.28.41-.52.85-.71,1.32C.14,26.23,0,26.74,0,27.3c0,.37.06.77.22,1.15.07.17.2.55.36,1.07,1.12,3.68,3.63,14.17,3.62,22.27,0,2.25-.19,4.32-.63,5.95h0c-.2.62-.31,1.18-.31,1.74,0,.63.16,1.28.54,1.79.28.38.64.66.99.84.53.27,1.03.35,1.48.4.45.05.86.04,1.19.04h17.07c.3,0,.65,0,1.04-.03.29-.02.61-.06.94-.15.49-.13,1.07-.39,1.54-.92.23-.26.41-.58.52-.92.11-.34.16-.7.16-1.05,0-.55-.12-1.12-.32-1.74h0c-.43-1.63-.63-3.7-.63-5.95,0-4.62.81-10.04,1.72-14.51.46-2.24.94-4.24,1.35-5.79.21-.78.39-1.44.55-1.96.16-.52.29-.91.36-1.07.15-.38.22-.78.22-1.15,0-.56-.14-1.07-.32-1.54Zm-2.69,1.58h0c-.13.32-.27.75-.44,1.32-1.19,3.94-3.74,14.47-3.75,23.14,0,2.42.2,4.71.73,6.71v.05s.03.05.03.05c.14.43.18.72.18.87-.07.02-.17.04-.29.05-.24.03-.56.03-.9.03H7.47c-.3,0-.58,0-.8-.02-.17-.01-.3-.04-.39-.06,0-.14.04-.44.18-.87l.02-.05v-.05c.54-2,.74-4.29.74-6.72,0-4.96-.84-10.51-1.78-15.11-.47-2.3-.96-4.35-1.39-5.96-.21-.81-.41-1.5-.58-2.07-.17-.57-.31-.99-.44-1.32h0s0-.04,0-.04c0-.06.02-.21.11-.42.15-.38.48-.91.92-1.44.65-.8,1.51-1.61,2.19-2.21.31-.27.58-.49.79-.66h17.98c.46.37,1.28,1.05,2.06,1.85.56.57,1.09,1.19,1.45,1.74.18.27.31.53.39.73.08.2.1.35.1.4v.04Z"/><path class="cls-1" d="m16,30.6c-2.84,0-5.14,3.26-5.14,7.27s2.3,7.27,5.14,7.27,5.14-3.26,5.14-7.27-2.3-7.27-5.14-7.27Z"/></svg>