<?xml version="1.0" encoding="UTF-8"?><svg id="_レイヤー_2" xmlns="http://www.w3.org/2000/svg" xmlns:xlink="http://www.w3.org/1999/xlink" viewBox="0 0 150 57"><defs><style>.cls-1{fill:#212121;}.cls-2{clip-path:url(#clippath);}.cls-3{fill:none;}</style><clipPath id="clippath"><rect class="cls-3" width="150" height="57"/></clipPath></defs><g id="_テキスト"><g class="cls-2"><path class="cls-1" d="m62.42,13.84V3.32c0-.15.1-.26.26-.26h10.05c.16,0,.26.12.26.26v4.11c0,.15-.1.26-.26.26h-3.59c-.12,0-.21.09-.19.2.04.44.12.88.19,1.3.01.1.09.16.19.16h4.47c.16,0,.26.12.26.26v.85c0,.15-.1.26-.26.26h-4.03c-.16,0-.23.1-.18.25.45,1.26,1.51,3.48,2.89,3.48.23,0,.38-.29.45-.67.09-.37.1-.79.12-.95l.02-.09v-.03l.03-.07c.03-.07.09-.12.18-.12s.16.04.24.06c0,.01.01.01.03.03.03.01.06.04.1.06l.17.12s.07.04.1.06h.03l.22.09s.02,0,.03.01c.12.06.18.15.18.28-.09.73-.23,2.05-1.01,2.49-.29.15-.63.19-.95.19-2.45,0-3.85-3.1-4.41-5.03-.03-.09-.1-.15-.19-.15h-3.69c-.12,0-.19.07-.19.19v2.69c0,.13.09.21.22.19l3.79-.5c.16-.01.29.12.29.25l.03.92c0,.15-.09.23-.22.26-.06.01-.12.01-.18.03l-.34.04c-.06.01-.12.01-.18.03l-1.58.22c-1.45.21-2.9.41-4.34.62-.15,0-.26-.06-.29-.2l-.21-1v-.07c0-.13.09-.23.23-.25l1.08-.13c.09,0,.16-.09.16-.19Zm1.7-7.51h7.19c.12,0,.19-.07.19-.19v-1.52c0-.12-.07-.19-.19-.19h-7.19c-.12,0-.19.07-.19.19v1.52c0,.12.07.19.19.19Zm0,3.03h3.3c.13,0,.21-.09.19-.22-.07-.41-.13-.83-.18-1.27-.01-.1-.09-.18-.19-.18h-3.12c-.12,0-.19.07-.19.19v1.29c0,.12.07.19.19.19Z"/><path class="cls-1" d="m79.43,6.58c.35.15,2.39,1.13,2.39,1.46,0,.09-.13.28-.25.47l-.29.44c-.06.06-.12.12-.2.13-.02,0-.04,0-.06-.01l-.15-.04s-.01-.01-.03-.03c-.22-.15-.42-.31-.66-.45-.47-.31-.97-.56-1.47-.82-.09-.04-.16-.13-.16-.23,0-.09.12-.28.23-.44l.32-.38c.06-.09.13-.1.23-.1h.06s.03.01.03.01Zm-.31,8.34c-.09-.07-.1-.15-.1-.25l.03-.06s0-.04.02-.06c.69-1.19,1.35-2.37,1.92-3.62.03-.04.04-.1.07-.15l.13-.29s.04-.1.07-.15c.04-.07.12-.16.23-.16.09,0,.28.15.45.28.19.13.37.29.44.35.06.04.09.12.09.19,0,.28-1.85,3.92-2.14,4.41v.03s-.12.12-.22.12c-.07,0-.29-.15-.5-.28-.19-.15-.4-.29-.47-.35t-.03-.01Zm.25-11.45c0-.09.13-.26.25-.42.13-.16.28-.32.34-.4.06-.07.1-.09.19-.09h.07s.03.01.03.03c.38.15,2.46,1.11,2.46,1.51,0,.09-.13.29-.26.47l-.35.42c-.04.06-.09.1-.18.12-.02,0-.04,0-.06-.01l-.13-.04s-.04-.01-.04-.03c-.78-.56-1.32-.86-2.15-1.32-.09-.04-.16-.12-.16-.23Zm5.26,11.91v.26c0,.13-.1.25-.25.25h-.92c-.16,0-.26-.12-.26-.25V5.19c0-.15.1-.26.26-.26h2.04c.09,0,.16-.06.19-.15.18-.69.34-1.41.45-2.12.03-.13.1-.22.26-.22.31,0,.85.1,1.17.13.13.01.23.09.23.22,0,.15-.37,1.29-.57,1.87-.04.16.01.26.19.26h3.56c.16,0,.26.12.26.26v10.36c0,.15-.1.25-.26.25h-.97c-.19,0-.25-.12-.26-.26v-.19s-.01-.01-.01-.03v-.04s-.02-.07-.06-.07h-4.86c-.12,0-.19.07-.19.19Zm.19-6.1h4.75c.12,0,.19-.07.19-.19v-2.56c0-.12-.07-.19-.19-.19h-4.75c-.12,0-.19.07-.19.19v2.56c0,.12.07.19.19.19Zm0,4.48h4.75c.12,0,.19-.07.19-.19v-2.74c0-.12-.07-.19-.19-.19h-4.75c-.12,0-.19.07-.19.19v2.74c0,.12.07.19.19.19Z"/><path class="cls-1" d="m66.17,30.37l-3.47.61-.62.13c-.25.04-.49.09-.56.09-.14,0-.22-.1-.25-.2-.03-.12-.09-.36-.14-.59-.04-.23-.1-.46-.1-.56,0-.16.14-.22.26-.23l1.1-.13c1.17-.14,2.33-.35,3.5-.53.12-.01.17-.1.16-.22l-.42-2.19c-.01-.1-.1-.16-.22-.14l-2.82.46c-.12.01-.33.07-.56.13-.2.04-.42.09-.51.09-.14,0-.22-.1-.25-.2-.03-.13-.07-.38-.13-.61-.04-.25-.09-.46-.09-.58,0-.14.12-.23.24-.25.09-.01.17-.01.25-.03l.51-.03c.09-.01.16-.01.24-.03.92-.1,1.86-.26,2.79-.39.13-.01.19-.1.16-.22l-.23-1.2c-.02-.1-.07-.29-.12-.46-.06-.17-.1-.35-.1-.42,0-.14.1-.22.22-.25h.03c.13-.01.35-.07.59-.12.25-.04.48-.07.59-.07.14,0,.22.1.23.23.04.27.07.55.12.81l.22,1.23c.01.12.1.17.22.16.97-.16,1.94-.32,2.89-.49.23-.04.46-.09.68-.14.14-.03.19-.14.12-.27-.25-.45-.51-.91-.81-1.37v-.03s-.04-.09-.04-.13c0-.12.09-.19.17-.23l.32-.13c.13-.06.26-.1.32-.1.09,0,.14.04.19.1.14.19,1,1.6,1,1.76,0,.1-.07.17-.17.22l-.38.17c-.09.03-.13.12-.12.2.03.13.07.29.1.45.04.25.09.49.09.61,0,.14-.12.23-.23.26-.3.06-.61.07-.91.12l-2.9.45c-.12.01-.17.1-.16.22l.42,2.18c.01.12.1.17.22.16l3.13-.55c.12-.01.38-.07.64-.13.26-.06.51-.12.58-.12.14,0,.22.09.24.2.09.29.22.79.22,1.1,0,.16-.12.23-.25.26l-4.26.66c-.12.01-.17.1-.14.22l.51,2.51c.01.1.1.38.16.65.07.25.14.51.14.56,0,.13-.1.22-.2.25h-.03c-.13.01-.39.07-.64.13-.26.04-.51.09-.62.09-.14,0-.22-.1-.23-.22-.01-.1-.03-.19-.04-.29l-.09-.59c-.01-.1-.03-.19-.04-.29l-.48-2.55c-.01-.12-.1-.17-.22-.16Zm5.36-8.59v-.03s-.01-.01-.01-.01l-.03-.12v-.06c.01-.1.09-.14.17-.19l.3-.13c.12-.06.24-.1.3-.1.09,0,.16.04.2.1.14.2,1.03,1.56,1.03,1.73,0,.12-.06.19-.14.23h-.03c-.1.04-.58.27-.65.27-.12,0-.17-.07-.22-.16-.27-.53-.58-1.02-.92-1.54Z"/><path class="cls-1" d="m79.53,26.74l-.36-1.27c-.01-.07-.09-.25-.14-.42-.07-.17-.13-.35-.13-.39,0-.13.1-.22.22-.25l1.01-.25h.1c.16,0,.22.09.24.2.07.26.1.52.17.76l.38,1.36c.03.1.12.16.22.14,1.5-.29,2.99-.59,4.48-.9h.03l.29-.1c.12-.03.23-.07.3-.07.09,0,.26.12.43.23l.41.3c.06.04.09.1.1.16v.06l-.03.07s0,.03-.02.03c-.61,1.17-1.37,2.24-2.18,3.26-.2.26-.45.56-.69.78-.04.04-.12.09-.19.09s-.27-.1-.48-.2c-.19-.1-.39-.22-.46-.25-.09-.04-.17-.12-.17-.23,0-.07.06-.14.1-.19.38-.4.77-.81,1.13-1.24.24-.29.49-.59.69-.91.14-.2.06-.32-.19-.26l-3.18.62c-.13.03-.19.12-.14.25.07.25.13.48.2.72l.41,1.46c.07.23.13.48.2.72.17.66.35,1.3.56,1.95l.16.49c.07.2.13.4.13.45,0,.14-.09.22-.19.23h-.03l-1.08.27h-.07c-.16,0-.22-.1-.24-.22-.07-.29-.12-.59-.2-.88-.46-1.63-.88-3.28-1.31-4.92-.03-.1-.12-.16-.22-.13-.27.06-.74.16-1.18.26-.62.13-1.21.25-1.31.25-.12,0-.2-.09-.23-.19l-.14-.52c-.04-.2-.09-.42-.09-.48,0-.16.1-.23.22-.26.09-.01.19-.01.29-.03.23-.03.48-.06.71-.1l1.36-.25c.12-.01.17-.12.14-.23Z"/><path class="cls-1" d="m100.19,27.76h-7.35l-.65.04h-.33c-.14,0-.26-.09-.26-.26v-1.03c0-.14.12-.26.26-.26l.65.04c.22.01.43.03.65.03h7.37c.27,0,.55-.03.81-.1h.07c.09,0,.29.1.46.22.19.12.38.25.46.3.07.04.12.12.12.2,0,.07-.03.14-.06.22t-.01.03l-.03.06s-.03.06-.04.09v.03s-.01.03-.01.04c-1.05,3.67-3.42,5.92-7.16,7.04h-.06c-.07,0-.16-.01-.2-.07-.07-.09-.29-.32-.49-.55-.2-.23-.4-.48-.4-.58,0-.14.14-.2.23-.23.36-.12.74-.19,1.1-.32,2.37-.77,4.29-2.31,5.07-4.72.04-.13-.03-.23-.17-.23Zm-7.3-3.58v-1c0-.14.1-.26.26-.26h.29l.59.04h5.89c.4,0,.79-.04,1.18-.04.16,0,.26.12.26.26v1c0,.17-.12.26-.27.26h-.3l-.58-.03h-6.18l-.61.03h-.29c-.16,0-.25-.12-.25-.26Z"/><path class="cls-1" d="m107.55,29.46l.04-.48v-5.25l-.03-.42v-.22c0-.16.1-.26.26-.26h1.18c.16,0,.26.13.26.27v.2l-.04.43v5.23l.04.46v.23c0,.16-.1.29-.27.29h-1.18c-.14,0-.26-.09-.26-.25v-.25Zm2.64,4.37c-.22-.22-.43-.46-.43-.56,0-.06.03-.1.07-.13,0-.01.03-.03.04-.04l.1-.06h.03c.26-.09.52-.16.78-.26,1.78-.68,2.98-1.82,3.32-3.72.14-.79.14-1.66.14-2.51v-2.47c0-.36-.06-.74-.06-1.1,0-.16.1-.26.26-.26h1.23c.17,0,.26.12.26.27,0,.36-.04.74-.04,1.08v2.55c0,1.49-.07,3.28-.78,4.62-.9,1.62-2.4,2.58-4.12,3.19h-.07c-.07.01-.16,0-.2-.06-.19-.19-.36-.36-.53-.55Z"/><path class="cls-1" d="m120.64,27.49c0-.14.09-.26.22-.26.53.04,1.09.07,1.63.07h6.66c.26,0,.5-.01.76-.03.14-.01.28-.04.42-.04s.23.09.23.26v1.31c0,.14-.07.26-.21.26-.41,0-.8-.06-1.2-.06h-6.66c-.38,0-.76,0-1.14.03-.15,0-.32.03-.48.03-.12,0-.23-.1-.23-.26v-1.31Z"/><path class="cls-1" d="m137.49,30.6h-1.88c-.16,0-.26-.12-.26-.26v-.82c0-.14.1-.26.26-.26h1.88c.12,0,.19-.07.19-.19v-1.67c0-.14.1-.26.26-.26h.82c.16,0,.26.12.26.26v1.67c0,.12.07.19.19.19h1.79c.16,0,.26.12.26.26v.82c0,.14-.1.26-.26.26h-1.79c-.12,0-.19.07-.19.19v3.48c0,.13-.1.25-.26.25h-.82c-.16,0-.26-.12-.26-.25v-3.48c0-.12-.07-.19-.19-.19Zm-.26-6.05v.71c0,.43.16.43.61.43h1.79c.38,0,.45-.22.46-.49v-.2s.04-.17.04-.17v-.03c.03-.1.1-.19.25-.19.06,0,.22.06.38.12l.39.16c.14.06.2.13.2.29l-.03.27v.03l-.07.26c-.2.88-.58,1.2-1.5,1.2h-2.05c-1.33,0-1.75-.32-1.75-1.65v-3.84c0-.13.1-.25.26-.25h.78c.14,0,.25.12.25.25v1.54c0,.16.1.23.25.17.79-.29,1.6-.62,2.35-1.02.01-.01.04-.01.06-.01h.03s.01-.01.03-.01h.04s.01.01.01.01l.1.04s.01,0,.01.01h.03c.09.1.23.23.38.39.16.14.32.33.32.43,0,.12-.1.17-.17.22-.9.45-2.34.88-3.29,1.14-.09.03-.14.1-.14.19Zm4.71,6.06l.56.14c.13.03.19.16.19.29-.13.89-.46,2.24-1.11,2.93-.04.04-.1.09-.19.09-.06,0-.75-.32-.81-.56,0-.01,0-.04.01-.06v-.04s0-.01.02-.01v-.03s.01-.01.01-.01l.03-.04c.55-.74.77-1.59.94-2.48.03-.14.09-.22.25-.22h.07s.01.01.03.01Zm1.46-1.59h4.95c.22,0,.26.13.26.32v.14s-.01.04-.01.07c-.03.42-.06,1.36-.16,2.28-.1.91-.27,1.83-.56,2.18-.29.35-.77.43-1.2.43-.13.01-.27.01-.42.01-.22,0-.45,0-.64-.01-.17-.01-.23-.1-.26-.23-.01-.09-.04-.19-.09-.29v-.03c-.03-.12-.06-.22-.06-.29,0-.17.12-.25.27-.25.29,0,.59.03.9.03.17,0,.3-.03.42-.14.1-.12.2-.52.27-1,.03-.19-.02-.22-.14-.14s-.29.1-.36.1c-.12,0-.2-.06-.25-.16-.17-.39-.35-.75-.56-1.13,0-.01-.01-.04-.01-.07v-.09s-.01-.01-.01-.03c.01-.22.39-.33.49-.33.09,0,.17.04.22.1.12.14.59.95.69,1.26t.01,0v-.06c.07-.53.12-1.07.13-1.4.01-.13-.06-.2-.19-.2h-4.96c-.16,0-.26-.1-.26-.25v-7.32c0-.14.1-.26.26-.26h1.6c.09,0,.16-.06.19-.13.06-.27.12-.53.19-.79.03-.12.13-.2.26-.2s.32.03.51.06l.49.07c.12.01.25.07.25.22,0,.07-.07.25-.14.42l-.09.19c-.04.1,0,.17.13.17h2.04c.16,0,.26.12.26.26v3.9c0,.14-.1.26-.26.26h-4.16c-.12,0-.19.07-.19.19v.26c0,.12.07.19.19.19h5.08c.16,0,.26.12.26.26v.52c0,.14-.1.26-.26.26h-5.08c-.12,0-.19.07-.19.19v.27c0,.12.07.19.19.19Zm-.06,1.95h.03l.38-.06c.13,0,.23.06.26.19.14.55.27,1.49.27,2.05,0,.14-.09.23-.22.26l-.46.07c-.17,0-.26-.1-.26-.27,0-.65-.09-1.27-.2-1.92,0-.16.04-.27.2-.32Zm.06-6.96h2.9c.12,0,.19-.07.19-.19v-.32c0-.12-.07-.19-.19-.19h-2.9c-.12,0-.19.07-.19.19v.32c0,.12.07.19.19.19Zm0,1.66h2.9c.12,0,.19-.07.19-.19v-.35c0-.12-.07-.19-.19-.19h-2.9c-.12,0-.19.07-.19.19v.35c0,.12.07.19.19.19Zm1.1,5.47l-.02-.07c0-.14.06-.23.2-.26l.16-.06h.03l.17-.03c.12,0,.19.04.25.16.13.29.53,1.39.53,1.67,0,.2-.22.27-.39.3l-.2.03c-.14,0-.25-.07-.27-.22-.12-.52-.29-1-.46-1.5v-.03Z"/><path class="cls-1" d="m64.07,50.57c0-.08,0-.19,0-.31,0-.12,0-.23.01-.31h-.01c-.09.08-.19.15-.3.22s-.24.14-.37.2-.29.11-.45.14c-.16.04-.33.05-.5.05-.31,0-.61-.06-.9-.17-.29-.12-.55-.3-.78-.55s-.41-.57-.55-.96c-.14-.39-.21-.86-.21-1.41s.07-1.03.21-1.45c.14-.41.33-.76.57-1.04.24-.28.51-.49.81-.63.31-.14.62-.21.94-.21.36,0,.67.08.95.24.28.16.5.36.68.6h.02l.06-.69h1.25v6.22c0,.36-.03.66-.08.92s-.14.48-.25.68c-.13.23-.29.43-.49.6-.2.17-.42.32-.68.43-.25.11-.53.2-.84.25-.3.06-.63.09-.97.09-.19,0-.38,0-.56-.02-.18-.02-.36-.04-.52-.06s-.31-.06-.44-.09-.25-.07-.34-.11v-1.22c.26.09.54.16.83.21.29.05.59.07.91.07.64,0,1.13-.13,1.48-.39s.52-.65.52-1.18v-.14Zm-1.27-1.19c.14,0,.28-.02.41-.06s.25-.09.35-.14c.11-.06.2-.12.29-.2.09-.07.16-.14.22-.21v-2.73c-.15-.19-.34-.35-.56-.47-.22-.13-.46-.19-.71-.2-.09,0-.18.01-.28.03-.1.02-.2.06-.3.12-.1.06-.19.14-.28.24-.09.1-.17.22-.24.38s-.12.33-.16.54-.06.45-.06.73c0,.31.03.58.09.82.05.24.14.45.25.62.11.17.25.3.42.39.17.09.36.14.58.14Z"/><path class="cls-1" d="m71.01,49.81h-.02c-.08.09-.18.18-.29.27-.11.09-.24.18-.38.26s-.3.15-.48.2c-.18.05-.37.08-.57.08-.28,0-.53-.05-.77-.14-.24-.09-.45-.22-.62-.39-.17-.17-.31-.38-.41-.62-.1-.24-.15-.51-.15-.81,0-.33.06-.62.17-.88s.27-.48.48-.66c.2-.18.45-.32.73-.41s.6-.14.94-.14c.25,0,.48.02.69.05.21.03.4.07.56.12v-.25c0-.14-.02-.28-.07-.41-.05-.13-.12-.25-.22-.35s-.24-.18-.4-.25c-.16-.06-.36-.09-.6-.09-.29,0-.58.03-.86.1-.29.07-.6.17-.94.3v-1.17c.29-.13.6-.24.93-.31.33-.07.67-.11,1.03-.11.42,0,.79.05,1.11.16s.58.26.8.45c.21.19.37.42.48.68.11.26.16.54.16.85v2.3c0,.4,0,.75.01,1.04,0,.29.02.55.02.78h-1.28l-.06-.65Zm-.11-1.95c-.14-.03-.29-.06-.47-.09s-.35-.04-.53-.04c-.35,0-.62.07-.82.22s-.3.37-.3.66c0,.14.02.26.07.36.05.1.11.19.19.26.08.07.17.12.27.15.1.03.21.05.33.05.14,0,.28-.02.41-.06.13-.04.25-.09.35-.15.11-.06.2-.13.29-.21.09-.08.16-.15.22-.22v-.93Z"/><path class="cls-1" d="m74.36,50.62v-9.13h1.42v9.13h-1.42Z"/><path class="cls-1" d="m77.72,50.62v-9.13h1.42v9.13h-1.42Z"/><path class="cls-1" d="m84.72,49.82h-.02c-.08.09-.18.18-.29.27-.11.09-.24.18-.38.26s-.3.15-.48.2c-.18.05-.37.08-.57.08-.28,0-.53-.05-.77-.14-.24-.09-.45-.22-.62-.39-.17-.17-.31-.38-.41-.62-.1-.24-.15-.51-.15-.81,0-.33.06-.62.17-.88s.27-.48.48-.66c.2-.18.45-.32.73-.41s.6-.14.94-.14c.25,0,.48.02.69.05.21.03.4.07.56.12v-.25c0-.14-.02-.28-.07-.41-.05-.13-.12-.25-.22-.35s-.24-.18-.4-.25c-.16-.06-.36-.09-.6-.09-.29,0-.58.03-.86.1-.29.07-.6.17-.94.3v-1.17c.29-.13.6-.24.93-.31.33-.07.67-.11,1.03-.11.42,0,.79.05,1.11.16s.58.26.8.45c.21.19.37.42.48.68.11.26.16.54.16.85v2.3c0,.4,0,.75.01,1.04,0,.29.02.55.02.78h-1.28l-.06-.65Zm-.11-1.95c-.14-.03-.29-.06-.47-.09s-.35-.04-.53-.04c-.35,0-.62.07-.82.22s-.3.37-.3.66c0,.14.02.26.07.36.05.1.11.19.19.26.08.07.17.12.27.15.1.03.21.05.33.05.14,0,.28-.02.41-.06.13-.04.25-.09.35-.15.11-.06.2-.13.29-.21.09-.08.16-.15.22-.22v-.93Z"/><path class="cls-1" d="m91.4,45.7h-.12c-.44,0-.82.07-1.15.21s-.58.35-.76.63v4.09h-1.42v-6.11h1.17l.13.85h.02c.17-.31.4-.56.69-.73s.65-.27,1.06-.27c.14,0,.27,0,.37.03v1.31Z"/><path class="cls-1" d="m92.89,44.35h1.52l.87,2.21c.33.84.56,1.46.69,1.87h.02c.1-.31.31-.9.63-1.75l.9-2.33h1.54l-3.74,9.04h-1.4l1.33-3.27-2.37-5.77Z"/><path class="cls-1" d="m106.71,50.46c-.16.05-.35.09-.57.12-.22.03-.43.04-.62.04-.49,0-.89-.08-1.2-.25s-.53-.4-.66-.71c-.09-.22-.14-.53-.14-.91v-3.16h-1.08v-1.23h1.08v-1.71h1.42v1.71h1.68v1.23h-1.68v2.97c0,.24.03.41.1.52.12.19.36.29.71.29.16,0,.33-.01.49-.04s.31-.06.46-.1v1.24Z"/><path class="cls-1" d="m114.15,47.41c0,.48-.07.92-.2,1.31s-.33.73-.58,1.01c-.25.28-.56.5-.92.65-.36.15-.76.23-1.2.23s-.87-.08-1.23-.23c-.36-.15-.67-.37-.92-.65-.25-.28-.44-.62-.58-1.01s-.2-.83-.2-1.31.07-.92.2-1.31.33-.73.58-1.01c.25-.28.56-.5.92-.65.36-.15.76-.23,1.2-.23s.87.08,1.23.23c.36.15.67.37.92.65.25.28.44.62.58,1.01s.2.83.2,1.31Zm-1.47,0c0-.32-.04-.61-.11-.86s-.17-.46-.3-.62-.28-.29-.46-.38-.38-.13-.59-.13-.4.04-.58.13-.33.21-.46.38-.23.38-.3.62-.11.53-.11.86.04.61.11.86.17.45.3.62.28.29.46.38c.18.09.37.13.59.13s.41-.04.58-.13c.18-.09.33-.21.46-.38s.23-.37.3-.62.11-.53.11-.86Z"/><path class="cls-1" d="m115.96,41.5h1.42v5.5h.03l2.21-2.48h1.76l-2.55,2.87,2.57,3.24h-1.72l-2.27-2.84h-.02v2.84h-1.42v-9.13Z"/><path class="cls-1" d="m123.2,41.5h1.49v1.62h-1.49v-1.62Zm.03,3.02h1.42v6.11h-1.42v-6.11Z"/><g><path class="cls-3" d="m23.96,5.19L6.36,15.34c-.23.13-.31.43-.18.66l.5.86c.13.23.43.31.66.18L24.74,6.98v-1.69c-.13-.23-.56-.23-.79-.1Z"/><path class="cls-1" d="m7.1,17.41c-.07,0-.14,0-.21-.03-.2-.05-.37-.18-.48-.37l-.5-.86c-.1-.18-.13-.39-.08-.6.05-.2.18-.37.37-.48L23.8,4.93c.34-.19.96-.21,1.2.21l.04.07v1.94L7.49,17.31c-.12.07-.26.11-.39.11ZM24.11,5.45L6.51,15.6s-.07.06-.09.11c-.01.05,0,.1.02.14l.5.86c.05.09.16.12.25.07L24.44,6.8v-1.39c-.08-.02-.23-.02-.34.04h0Z"/></g><path class="cls-1" d="m4.74,15.35l.7,1.19c.12.14.36.15.57.03L24.95,5.68c.23-.13.33-.38.23-.56l-.71-1.24c-.1-.18-.37-.21-.6-.08L4.93,14.74c-.31.17-.39.31-.19.61Z"/><g><path class="cls-3" d="m25.53,5.18l17.6,10.15c.23.13.31.43.18.66l-.5.86c-.13.23-.43.31-.66.18L24.74,6.97v-.83s0-.86,0-.86c.13-.23.56-.23.79-.1Z"/><path class="cls-1" d="m42.39,17.4c-.14,0-.27-.04-.39-.11L24.44,7.14v-1.94l.04-.07c.24-.42.86-.4,1.2-.21h0s17.6,10.15,17.6,10.15c.38.22.5.7.29,1.07l-.5.86c-.11.18-.28.31-.48.37-.07.02-.14.03-.2.03ZM25.05,6.79l17.25,9.98s.09.03.14.02c.05-.01.09-.04.11-.08l.5-.86c.05-.09.02-.2-.07-.25L25.38,5.44c-.1-.06-.26-.06-.34-.04v1.39Z"/></g><path class="cls-1" d="m44.75,15.33l-.7,1.19c-.12.14-.36.15-.57.03L24.54,5.66c-.23-.13-.33-.38-.23-.56l.71-1.24c.1-.18.37-.21.6-.08l18.93,10.94c.31.17.39.31.19.61Z"/><rect class="cls-1" x="23.72" y="2.53" width="2.01" height="2.67" rx=".68" ry=".68"/><g><path class="cls-3" d="m23.75,14.57L3.27,26.39c-.27.16-.36.5-.21.77l.58,1c.16.27.5.36.77.21l20.25-11.72v-1.97c-.16-.27-.65-.27-.92-.11Z"/><path class="cls-1" d="m4.13,28.79c-.32,0-.63-.16-.79-.46l-.58-1c-.12-.21-.15-.46-.09-.69.06-.24.21-.43.43-.56l20.48-11.82c.39-.23,1.12-.25,1.4.24l.05.08v2.26L4.59,28.67c-.14.08-.3.12-.46.12Zm20.05-13.98c-.08,0-.18.02-.25.06L3.44,26.69s-.08.07-.1.13c-.01.06,0,.11.02.16l.58,1c.06.1.19.14.29.08l20.08-11.62v-1.61s-.08-.02-.14-.02Z"/></g><path class="cls-1" d="m1.38,26.39l.81,1.39c.14.16.42.18.66.04l22.06-12.69c.27-.15.39-.45.27-.65l-.83-1.44c-.12-.21-.43-.25-.7-.1L1.6,25.68c-.36.2-.45.36-.23.71Z"/><g><path class="cls-3" d="m25.67,14.52l20.48,11.82c.27.16.36.5.21.77l-.58,1c-.16.27-.5.36-.77.21l-20.25-11.72v-.97s0-1,0-1c.16-.27.65-.27.92-.11Z"/><path class="cls-1" d="m45.29,28.74c-.16,0-.32-.04-.46-.12l-20.43-11.82v-2.26l.05-.08c.1-.17.27-.3.49-.36.29-.08.65-.03.91.11l20.48,11.82c.44.25.59.81.34,1.25l-.58,1.01c-.12.21-.32.36-.55.43-.08.02-.16.03-.24.03Zm-20.18-12.35l20.08,11.62c.05.03.11.04.16.02.05-.01.1-.05.13-.1l.58-1.01c.06-.1.02-.23-.08-.29l-20.48-11.82c-.12-.07-.3-.07-.39-.04v1.61Z"/></g><path class="cls-1" d="m48.04,26.34l-.81,1.39c-.14.16-.42.18-.66.04l-22.06-12.69c-.27-.15-.39-.45-.27-.65l.83-1.44c.12-.21.43-.25.7-.1l22.04,12.74c.36.2.45.36.23.71Z"/><rect class="cls-1" x="23.72" y="11.66" width="2.01" height="2.67" rx=".68" ry=".68"/><g><path class="cls-1" d="m30.84,43.34c-.3-.34-.63-.88-.84-1.31-.28-.56-.35-1.26-.61-1.76-.55-1.07-1.7-1.72-2.91-1.57-1.07.14-1.84.9-2.48,1.71-.5.62-1.09,1.63-1.97,1.72-.66.07-1.24-.46-1.69-.86-.56-.5-1.1-1.03-1.62-1.58-1.07-1.13-2.01-2.34-2.94-3.59-.83-1.12-1.75-2.2-3.07-2.75-1.24-.52-2.66-.44-3.69.49-.99.9-1.19,2.39-.35,3.45.28.36.64.64,1.03.86-.44.55-.53,1.21-.23,1.85.22.47.8.93,1.6,1.11-.11.24-.17.51-.17.84,0,1.05.81,1.94,1.67,2.45.69.41,1.5.63,2.17,1.08-2.12,1.51-4.24,3.02-6.36,4.53-.03.02-.06.05-.08.07-.64-.48-1.3-.92-2.04-1.24-.77-.33-1.62-.51-2.46-.41-.7.08-1.66.33-1.95,1.05-.31.78.33,1.46.99,1.77.87.41,1.97.46,2.92.56.99.1,1.99.12,2.98.09.93.68,1.88,1.31,2.94,1.8,2.66,1.21,5.73,1.66,8.43.33,2.13-1.05,3.62-3,5.01-4.86,1.14-1.52,2.3-3.05,3.76-4.32.61-.53,1.43-1.11,1.93-1.34.07-.03.08-.12.03-.18Zm-24.24,7.36c-.9-.05-1.8-.16-2.68-.34-.33-.07-.61-.16-.88-.36-.05-.04-.06-.07-.07-.09.07-.11.46-.2.58-.23,1.28-.33,2.51.3,3.57,1.03-.17,0-.35,0-.52-.02Zm18.1-2.95c-1.48,1.97-2.96,4.18-5.26,5.28-2.89,1.39-6.28.34-8.86-1.27.56-.07,1.83-.07,2.5-.08.77-.01.59-1.12-.3-1.12-.83,0-2.47.06-3.3.12,2.17-1.55,4.34-3.09,6.51-4.64.32-.23.39-.63.12-.93-.55-.6-1.26-.94-2-1.27-.71-.31-1.49-.65-1.88-1.37-.15-.27-.08-.83,0-1.05.71.21,1.27.13,1.68.11.95-.05.91-1.09.03-1.1-.51,0-.66-.05-1-.11-.24-.04-.74-.17-1.25-.33-1.08-.43-1.07-.71-1-1.08.03-.14.06-.22.14-.27.39.13.79.2,1.17.3.83.24,1.12-.83.46-1.09-.46-.18-1.01-.31-1.54-.43-.5-.18-.97-.44-1.3-.83-.7-.84-.11-1.92.81-2.28,1.18-.46,2.47.33,3.27,1.15.93.93,1.62,2.07,2.44,3.09.87,1.08,1.81,2.1,2.81,3.06.84.79,1.82,1.77,3.07,1.7,1.91-.1,2.44-2.15,3.8-3.11.4-.28.88-.41,1.36-.31.77.16,1.16.75,1.36,1.38.24.74.45,1.3.81,1.91-1.97,1.03-3.32,2.78-4.65,4.55Z"/><path class="cls-1" d="m16.49,54.9c-1.55,0-3.2-.38-4.87-1.14-1.15-.53-2.17-1.23-2.93-1.79-1.01.04-2.01,0-2.96-.09-.12-.01-.24-.02-.37-.03-.85-.08-1.81-.17-2.58-.53-.73-.34-1.37-1.08-1.04-1.89.33-.81,1.41-1.04,2.03-1.11.8-.09,1.64.05,2.51.42.75.32,1.43.78,1.99,1.2.01,0,.02-.02.03-.03l6.24-4.45c-.32-.2-.68-.36-1.03-.51-.34-.15-.68-.3-1.01-.49-1.07-.64-1.71-1.58-1.72-2.53,0-.28.04-.53.13-.77-.72-.19-1.31-.62-1.56-1.13-.3-.64-.24-1.3.17-1.87-.4-.24-.71-.51-.96-.83-.85-1.08-.7-2.63.36-3.59.99-.9,2.41-1.09,3.79-.51,1.26.53,2.15,1.5,3.11,2.78,1.02,1.38,1.91,2.52,2.93,3.58.54.56,1.08,1.09,1.61,1.57.42.38.99.9,1.62.84.69-.07,1.2-.75,1.64-1.35.09-.12.17-.23.26-.34.62-.78,1.42-1.6,2.54-1.75,1.22-.15,2.43.5,3.01,1.62.13.26.21.55.3.86.08.31.17.62.31.9.19.37.52.93.83,1.29.05.05.07.12.05.19-.01.06-.06.12-.12.15-.47.21-1.27.77-1.91,1.32-1.4,1.22-2.52,2.67-3.75,4.3-1.33,1.78-2.85,3.8-5.05,4.89-1.11.55-2.34.82-3.65.82Zm-7.74-3.13l.03.02c.76.55,1.77,1.26,2.92,1.79,3.01,1.38,5.98,1.49,8.35.33,2.16-1.06,3.66-3.06,4.98-4.83,1.23-1.64,2.36-3.1,3.77-4.33.65-.57,1.47-1.14,1.95-1.36v-.02c-.33-.37-.66-.93-.86-1.33-.15-.29-.24-.62-.32-.94-.08-.3-.16-.59-.28-.82-.55-1.07-1.65-1.66-2.81-1.51-1.06.13-1.81.92-2.42,1.67-.08.1-.17.22-.25.33-.45.6-1.01,1.35-1.78,1.42-.71.08-1.32-.48-1.77-.89-.54-.48-1.08-1.01-1.62-1.58-1.02-1.08-1.92-2.22-2.95-3.6-.94-1.26-1.81-2.21-3.03-2.72-1.31-.55-2.65-.37-3.58.47-.98.89-1.13,2.32-.34,3.32.25.32.58.6,1,.84l.1.06-.07.09c-.42.53-.5,1.15-.22,1.75.23.48.83.89,1.54,1.05l.12.03-.05.11c-.11.25-.16.51-.16.8,0,1.03.84,1.9,1.62,2.36.31.19.65.34.99.48.4.18.82.36,1.18.6l.12.08-6.48,4.62s-.05.04-.07.06l-.06.06-.07-.05c-.57-.42-1.25-.9-2.02-1.22-.83-.35-1.66-.49-2.41-.41-.57.06-1.58.28-1.87.99-.28.69.29,1.34.94,1.64.75.35,1.69.44,2.52.51.12.01.25.02.37.03.96.1,1.95.12,2.97.09h.04Zm7.76,1.97c-2.55,0-4.89-1.24-5.99-1.93l-.24-.15.28-.03c.5-.06,1.56-.07,2.27-.08h.25c.29,0,.39-.2.39-.38,0-.25-.21-.61-.68-.61-.75,0-2.21.1-3.29.18l-.35.03,6.79-4.84c.14-.1.23-.24.25-.39.01-.14-.03-.28-.14-.4-.53-.58-1.2-.91-1.97-1.25l-.04-.02c-.69-.31-1.48-.66-1.88-1.39-.17-.31-.09-.9,0-1.13l.03-.09.09.03c.6.18,1.08.15,1.47.12.06,0,.12,0,.17-.01.43-.02.61-.25.61-.47,0-.2-.19-.42-.58-.43-.44,0-.62-.04-.87-.08l-.15-.03c-.25-.04-.76-.17-1.26-.33-1.12-.44-1.15-.76-1.07-1.19.02-.13.06-.26.19-.34l.04-.02h.04c.22.08.45.14.67.19.17.04.33.08.49.12.38.11.6-.1.67-.3.07-.21.01-.48-.27-.59-.45-.17-.98-.3-1.53-.43-.61-.22-1.05-.51-1.35-.86-.3-.35-.4-.79-.29-1.22.14-.53.57-1,1.13-1.21,1.49-.57,2.96.75,3.38,1.17.6.61,1.11,1.31,1.61,1.99.27.37.55.75.84,1.11.86,1.07,1.8,2.1,2.8,3.05l.08.07c.79.75,1.69,1.61,2.81,1.61.04,0,.07,0,.11,0,1.17-.06,1.79-.87,2.46-1.73.38-.49.78-1,1.29-1.36.44-.31.96-.43,1.44-.33.69.14,1.17.63,1.43,1.45.22.7.43,1.26.8,1.89l.05.09-.09.05c-2.01,1.05-3.39,2.9-4.62,4.52h0c-.14.19-.29.38-.43.58-1.36,1.83-2.77,3.72-4.86,4.73-.98.47-1.99.65-2.97.65Zm-5.63-1.94c1.64.97,5.26,2.67,8.51,1.11,2.05-.98,3.44-2.86,4.79-4.67.14-.2.29-.39.43-.58h0c1.21-1.62,2.59-3.45,4.59-4.53-.35-.61-.55-1.17-.77-1.84-.24-.75-.67-1.19-1.28-1.32-.43-.09-.89.02-1.29.29-.48.34-.87.84-1.24,1.32-.66.85-1.35,1.74-2.6,1.8-.04,0-.08,0-.12,0-1.19,0-2.12-.88-2.94-1.66l-.08-.07c-1.01-.95-1.95-1.98-2.82-3.07-.29-.36-.57-.75-.84-1.12-.49-.67-1-1.37-1.59-1.97-.4-.4-1.8-1.65-3.17-1.12-.5.19-.89.61-1.01,1.08-.07.26-.08.65.25,1.04.28.33.69.59,1.25.8.55.13,1.09.26,1.54.43.39.15.49.54.39.84-.1.3-.43.57-.91.43-.16-.04-.32-.08-.48-.12-.21-.05-.43-.1-.64-.17-.02.03-.05.07-.06.18-.06.31-.1.56.94.97.49.16.99.28,1.23.32l.15.03c.25.05.42.08.84.08.52,0,.77.33.77.62,0,.3-.24.64-.8.68-.05,0-.11,0-.17.01-.37.03-.86.06-1.45-.1-.06.24-.09.67.02.88.37.67,1.09.99,1.79,1.3l.04.02c.79.35,1.48.68,2.03,1.29.14.16.21.35.19.55-.02.21-.14.4-.33.53l-6.22,4.43c1.1,0,2.26-.02,3.01-.02.54,0,.82.28.82.67,0,.28-.18.57-.58.58h-.25c-.58,0-1.4.02-1.95.06Zm-3.44-1.01h-.34c-.07-.01-.14-.02-.21-.02-.11,0-.21,0-.32-.01h0c-.94-.06-1.84-.17-2.69-.34-.29-.06-.61-.14-.92-.38-.07-.05-.09-.1-.1-.14v-.04s.01-.04.01-.04c.07-.11.28-.18.59-.26h.05c1.4-.37,2.76.41,3.65,1.03l.28.19Zm-.85-.23c.06,0,.12,0,.18,0-.89-.58-2.02-1.13-3.21-.83h-.05c-.24.07-.36.11-.42.14.26.19.52.28.83.34.84.17,1.74.28,2.67.34h0Z"/></g><path class="cls-1" d="m10.15,51.87c-.29,0-.56-.11-.76-.32-.2-.2-.31-.47-.31-.75v-.31s1.6-.01,1.6-.01l28.56-.13-.08-18.59-14.51-8.53s-13.96,8.45-14.17,8.58c-.37.2-.68.36-.89.39h-.02c-.39,0-.54-.16-.61-.26-.09-.14-.22-.41-.02-.71.11-.16.45-.37.58-.45l14.58-8.83c.16-.1.35-.15.54-.15s.37.05.54.15l14.8,8.7c.32.19.53.54.53.92l.08,19.09c0,.59-.47,1.07-1.06,1.08l-29.39.13Z"/></g></g></svg>