<?xml version="1.0" encoding="UTF-8"?><svg id="_2" xmlns="http://www.w3.org/2000/svg" viewBox="0 0 32 21.96"><defs><style>.cls-1{fill:#fff;}.cls-1,.cls-2{stroke-width:0px;}.cls-2{fill:#212121;}</style></defs><polygon class="cls-2" points="27.47 20.5 3.98 20.5 1.78 17.72 1.78 4 4.9 1.38 27.95 1.38 30.6 3.71 30.6 17.53 27.47 20.5"/><path class="cls-2" d="m30.2,1.8C29.09.69,27.56,0,25.86,0H6.14c-1.69,0-3.23.69-4.34,1.8C.69,2.9,0,4.44,0,6.14v9.68c0,1.69.69,3.23,1.8,4.34,1.11,1.11,2.65,1.8,4.34,1.8h19.73c1.69,0,3.23-.69,4.34-1.8,1.11-1.11,1.8-2.65,1.8-4.34V6.14c0-1.69-.69-3.23-1.8-4.34Zm.01,14.02c0,1.2-.49,2.29-1.27,3.08-.79.79-1.87,1.27-3.08,1.27H6.14c-1.2,0-2.29-.49-3.08-1.27-.79-.79-1.27-1.87-1.27-3.08V6.14c0-1.21.49-2.29,1.27-3.08.79-.79,1.87-1.27,3.08-1.28h19.73c1.2,0,2.29.49,3.08,1.28.79.79,1.27,1.87,1.27,3.08v9.68h0Z"/><rect class="cls-1" x="4.9" y="14.38" width="16.72" height="3.34"/><rect class="cls-1" x="4.9" y="4.79" width="22.19" height="1.11"/><rect class="cls-1" x="4.9" y="7.8" width="22.19" height="1.11"/><rect class="cls-1" x="4.9" y="10.81" width="22.19" height="1.11"/><circle class="cls-1" cx="23.74" cy="15.89" r=".84"/><circle class="cls-1" cx="26.3" cy="15.89" r=".84"/></svg>