<?xml version="1.0" encoding="UTF-8"?><svg id="contents" xmlns="http://www.w3.org/2000/svg" viewBox="0 0 32 50.94"><defs><style>.cls-1{fill:#212121;stroke-width:0px;}</style></defs><path class="cls-1" d="m29.05,21.02c-4.16-1.21-8.54-1.83-13.05-1.83s-8.89.61-13.05,1.83c-.37.11-.62.44-.62.82v26.58c0,.47.38.86.86.86h2.38v.99c0,.38.31.68.68.68h3.08c.38,0,.68-.31.68-.68v-.99h11.94v.99c0,.38.31.68.68.68h3.08c.38,0,.68-.31.68-.68v-.99h2.38c.47,0,.86-.38.86-.86v-26.58c0-.38-.25-.72-.62-.82Zm-1.61,26.03H4.56v-24.17c3.66-.97,7.5-1.46,11.44-1.46s7.78.49,11.44,1.46v24.17Z"/><path class="cls-1" d="m18.12,23.94h-4.25c-.38,0-.68.31-.68.68v15.15c0,.38.31.68.68.68h4.25c.38,0,.68-.31.68-.68v-15.15c0-.38-.31-.68-.68-.68Zm-2.12,9.01c-.62,0-1.13-.51-1.13-1.13s.51-1.13,1.13-1.13,1.13.51,1.13,1.13-.51,1.13-1.13,1.13Zm0-4.29c-.62,0-1.13-.51-1.13-1.13s.51-1.13,1.13-1.13,1.13.51,1.13,1.13-.51,1.13-1.13,1.13Z"/><path class="cls-1" d="m8.74,11.07c0,.78-.64,1.42-1.42,1.42s-1.42-.64-1.42-1.42.64-1.42,1.42-1.42,1.42.64,1.42,1.42Z"/><path class="cls-1" d="m7.32,1.77c0,.98-.79,1.77-1.77,1.77s-1.77-.79-1.77-1.77.79-1.77,1.77-1.77,1.77.79,1.77,1.77Z"/><path class="cls-1" d="m15.14,14.09c0,.69-.56,1.24-1.24,1.24s-1.24-.56-1.24-1.24.56-1.24,1.24-1.24,1.24.56,1.24,1.24Z"/><path class="cls-1" d="m26.44,12.49c0,.78-.64,1.42-1.42,1.42s-1.42-.64-1.42-1.42.64-1.42,1.42-1.42,1.42.64,1.42,1.42Z"/><path class="cls-1" d="m14.25,6.64c0,.88-.71,1.6-1.6,1.6s-1.6-.71-1.6-1.6.71-1.6,1.6-1.6,1.6.71,1.6,1.6Z"/><path class="cls-1" d="m3.19,6.64c0,.88-.71,1.6-1.6,1.6s-1.6-.71-1.6-1.6.71-1.6,1.6-1.6,1.6.71,1.6,1.6Z"/><path class="cls-1" d="m21.62,2.43c0,.98-.79,1.77-1.77,1.77s-1.77-.79-1.77-1.77.79-1.77,1.77-1.77,1.77.79,1.77,1.77Z"/><path class="cls-1" d="m20.78,9.65c0,.78-.64,1.42-1.42,1.42s-1.42-.64-1.42-1.42.64-1.42,1.42-1.42,1.42.64,1.42,1.42Z"/><path class="cls-1" d="m32,4.86c0,.98-.79,1.77-1.77,1.77s-1.77-.79-1.77-1.77.79-1.77,1.77-1.77,1.77.79,1.77,1.77Z"/></svg>