<?xml version="1.0" encoding="UTF-8"?><svg id="_レイヤー_1" xmlns="http://www.w3.org/2000/svg" viewBox="0 0 32 42.3"><defs><style>.cls-1{fill:#fff;}.cls-1,.cls-2{stroke-width:0px;}.cls-2{fill:#212121;}</style></defs><path class="cls-2" d="m23.08,35.79c-.12,1.03-.47,4.13-.67,5.8-.05.44-.44.75-.88.7-5.29-.61-16.65-1.79-20.85-2.23-.43-.05-.73-.43-.68-.86C2.06,20.52,4.04,4.16,4.46.65c.05-.4.41-.67.8-.65,8.69.48,12.63.7,20.49,1.11.48.03.85.44.8.92-.46,4.6-.81,9.33-1.23,13.97,1.92,5.84,5.22,14.78,6.62,18.8.18.52-.21,1.06-.76,1.06-2.93.01-6.2-.06-8.11-.06Zm-.76-23.91c-7.84,4.87-10.92,6.77-17.16,10.5-.12.07-.2.2-.22.34-.6,5.42-.87,7.46-1.61,14.18-.03.23.15.46.38.48,5.36.61,9.63,1.05,15.08,1.63.22.02.43-.13.46-.35.79-6.67,1.39-11.49,3.07-26.77Zm-17.04,7.03c7.23-4.47,11.34-6.64,17.15-10.23.11-.07.18-.18.2-.31.15-1.29.28-2.48.41-3.8.02-.23-.16-.44-.39-.46-6.23-.42-10.7-.62-15.28-.86-.21-.01-.4.15-.42.36-.54,5.05-1.11,10.08-1.66,15.3Zm23.04,13.87c-1.44-4.12-2.19-6.44-3.85-11.2-.51,4.74-.82,8.34-1.14,11.74,1.87.02,2.59.02,4.61,0,.27,0,.47-.28.38-.54Z"/><path class="cls-1" d="m27.89,33.33c-2.15,0-2.57,0-4.55-.01.33-3.39,1.1-11.48,1.14-11.74.12.28,2.57,7.49,3.86,11.24.09.26-.17.52-.45.51Z"/><path class="cls-1" d="m22.43,8.67c-2.78,1.76-17.14,10.24-17.14,10.24l1.66-15.32c.03-.2.19-.35.41-.34,0,0,10.96.54,15.27.86.22.02.42.19.4.44l-.4,3.77c-.01.12-.05.24-.2.35Z"/><path class="cls-1" d="m3.75,37.38c.23.02,12.66,1.39,15,1.63.33,0,.51-.16.53-.41.07-1.05,3.05-26.71,3.05-26.71L5.03,22.51l-1.69,14.39c-.03.22.15.43.41.47Z"/><path class="cls-1" d="m3.34,36.9c-.03.22.15.43.41.47"/></svg>