<?xml version="1.0" encoding="UTF-8"?><svg id="_2" xmlns="http://www.w3.org/2000/svg" viewBox="0 0 32 16.66"><defs><style>.cls-1{fill:#212121;stroke-width:0px;}</style></defs><path class="cls-1" d="m32,5.13c0-.81-.65-1.46-1.46-1.46h-2.98v6.18H4.44V3.67H1.46c-.81,0-1.46.65-1.46,1.46v9.16h2.14v2.37h2.12v-2.37h23.47v2.37h2.13v-2.37h2.14V5.13Z"/><path class="cls-1" d="m15.36,1.1c0-.6-.49-1.1-1.1-1.1h-6.34c-1.21,0-2.19.98-2.19,2.19v6.37h9.63V1.1h0Z"/><path class="cls-1" d="m26.27,2.19C26.27.98,25.29,0,24.08,0h-6.34c-.6,0-1.09.49-1.09,1.1v7.47h9.63V2.19h0Z"/></svg>