<?xml version="1.0" encoding="UTF-8"?><svg id="_2" xmlns="http://www.w3.org/2000/svg" viewBox="0 0 32 34.94"><defs><style>.cls-1{fill:#212121;stroke-width:0px;}</style></defs><path class="cls-1" d="m30.73.28c-.14-.14-.27-.22-.36-.25-.33-.09-.58-.02-.88.28l-2.41,2.41L10.94,18.87l-1.14,1.14L.93,28.87c-1.31,1.31-1.23,3.53.19,4.95,1.42,1.42,3.63,1.5,4.95.19,1.67-1.67.97-2.36,2.64-4.03,1.67-1.67,2.36-.97,4.03-2.64,1.67-1.67.97-2.36,2.64-4.03l-.11-.11.55-.55,4.56,4.56c8.74-8.74,11.19-16.06,11.56-21.01.27-3.56-.61-5.32-1.22-5.92Z"/></svg>