<?xml version="1.0" encoding="UTF-8"?><svg id="_2" xmlns="http://www.w3.org/2000/svg" viewBox="0 0 32 32.42"><defs><style>.cls-1{fill:#212121;stroke-width:0px;}</style></defs><path class="cls-1" d="m31.31,1.21l-.57-.56c-.9-.88-2.35-.86-3.22.04l-6.64,6.82c-5.3-3.42-12.47-2.76-17.04,1.94-5.21,5.35-5.09,13.94.26,19.15,5.35,5.21,13.94,5.09,19.15-.26,4.57-4.69,5.04-11.88,1.48-17.09l6.64-6.82c.88-.9.86-2.35-.04-3.22Zm-11.53,23.76c-3.36,3.45-8.87,3.52-12.32.17-1.73-1.68-2.61-3.9-2.63-6.14.31,1.58,1.09,3.08,2.33,4.29,3.26,3.17,8.46,3.1,11.63-.16,2.82-2.89,3.07-7.33.81-10.5,0,0,.01.01.02.02,3.45,3.36,3.52,8.87.17,12.32ZM28.9,4.84c-.47.48-1.23.49-1.71.02-.48-.47-.49-1.23-.02-1.71.46-.48,1.23-.49,1.71-.02.48.47.49,1.23.02,1.71Z"/></svg>