<?xml version="1.0" encoding="UTF-8"?><svg id="contents" xmlns="http://www.w3.org/2000/svg" viewBox="0 0 32 41.28"><defs><style>.cls-1{fill:#212121;stroke-width:0px;}</style></defs><path class="cls-1" d="m32,6.92c0-4.54-8.05-6.92-16-6.92S0,2.38,0,6.92c0,.99.38,1.88,1.06,2.66l2.25,26.15v.07c.17,1.25,1.06,3,4.41,4.24,2.23.82,5.09,1.26,8.28,1.26s6.06-.43,8.28-1.26c3.35-1.24,4.24-2.99,4.4-4.24l2.25-26.22c.68-.78,1.06-1.67,1.06-2.66Zm-16-3.7c8.44,0,12.79,2.6,12.79,3.7s-4.35,3.7-12.79,3.7S3.21,8.02,3.21,6.92s4.35-3.7,12.79-3.7Zm9.49,32.19c-.06.29-.6.98-2.32,1.61-1.85.68-4.4,1.06-7.17,1.06s-5.32-.38-7.17-1.06c-1.72-.63-2.26-1.32-2.32-1.61l-2.02-23.54c3.06,1.3,7.3,1.97,11.52,1.97s8.46-.67,11.52-1.97l-2.02,23.54Z"/></svg>