<?xml version="1.0" encoding="UTF-8"?><svg id="_2" xmlns="http://www.w3.org/2000/svg" viewBox="0 0 32 25.05"><defs><style>.cls-1{fill:#212121;stroke-width:0px;}</style></defs><path class="cls-1" d="m16,0C7.16,0,0,2.88,0,6.43c0,6.55,3.93,12.18,9.57,14.65v1.38c0,1.43,2.88,2.59,6.43,2.59s6.43-1.16,6.43-2.59v-1.38c5.63-2.48,9.57-8.11,9.57-14.65,0-3.55-7.16-6.43-16-6.43Zm10.34,8.55c-2.68,1.08-6.45,1.69-10.34,1.69s-7.66-.62-10.34-1.69c-2.49-1-3.05-1.98-3.05-2.12s.56-1.12,3.05-2.12c2.68-1.08,6.45-1.7,10.34-1.7s7.66.62,10.34,1.7c2.49,1,3.05,1.98,3.05,2.12s-.56,1.12-3.05,2.12Z"/></svg>