<?xml version="1.0" encoding="UTF-8"?><svg id="_2" xmlns="http://www.w3.org/2000/svg" viewBox="0 0 32 51.93"><defs><style>.cls-1{fill:#212121;stroke-width:0px;}</style></defs><path class="cls-1" d="m30.39,27.72c-1.44-4.61-3.57-8.89-5.35-12.04-1.78-3.14-3.2-5.14-3.22-5.17l-.41-.57h-10.84l-.41.57s-2.54,3.58-5.07,8.67c-1.26,2.54-2.53,5.47-3.49,8.54C.65,30.8,0,34.03,0,37.19c0,.36,0,.73.03,1.09.16,3.14.69,5.58,1.48,7.49.6,1.43,1.35,2.57,2.19,3.44.63.65,1.31,1.16,2,1.54,2.07,1.15,4.14,1.17,5.32,1.18h9.95c.7,0,1.72-.01,2.85-.26.85-.18,1.78-.5,2.7-1.05.69-.41,1.36-.95,1.98-1.63.93-1.03,1.74-2.39,2.34-4.15.6-1.76,1-3.91,1.13-6.56.02-.36.03-.72.03-1.09,0-3.16-.65-6.39-1.61-9.47Zm-1.12,10.42c-.14,2.91-.63,5.04-1.28,6.58-.48,1.16-1.05,1.99-1.64,2.6-.44.46-.9.8-1.37,1.06-1.39.78-2.9.84-4.01.83h-9.95c-.65,0-1.45-.02-2.28-.2-.62-.13-1.26-.36-1.88-.73-.46-.28-.92-.64-1.36-1.12-.66-.73-1.28-1.74-1.78-3.2-.5-1.46-.87-3.36-.99-5.82-.02-.32-.02-.63-.02-.95,0-2.79.59-5.77,1.49-8.66,1.35-4.34,3.41-8.48,5.12-11.51.86-1.52,1.63-2.76,2.18-3.62.2-.31.36-.55.49-.75h8c.8,1.19,2.7,4.15,4.58,7.96,1.2,2.43,2.38,5.2,3.26,8.05.88,2.85,1.45,5.78,1.45,8.53,0,.32,0,.64-.02.95Z"/><path class="cls-1" d="m21.76,2.09c-.03-1.16-.98-2.09-2.14-2.09h-7.22c-1.16,0-2.11.93-2.15,2.09l-.17,6.13h11.84l-.17-6.13Z"/></svg>