<?xml version="1.0" encoding="UTF-8"?><svg id="_2" xmlns="http://www.w3.org/2000/svg" viewBox="0 0 32 32"><defs><style>.cls-1{fill:#212121;stroke-width:0px;}</style></defs><path class="cls-1" d="m31.12.93l-.06-.06c-1.17-1.17-3.07-1.17-4.24,0l-8.02,8.03c-.26.26-.34.62-.24.94l-.35-.35h0s.37.37.37.37c.04.14.12.27.23.38l-.4.4c-.53.31-1.12.6-1.76.86-1.05.43-2.26.77-3.62.94-.72.09-1.55.19-2.42.33-1.31.2-2.72.48-4.05.94-.67.23-1.31.51-1.92.85s-1.17.75-1.66,1.24C1.06,17.73.07,20.19,0,22.64c-.03,1.22.17,2.44.61,3.59.44,1.14,1.12,2.21,2.03,3.13.91.91,1.98,1.59,3.13,2.03,1.72.66,3.6.78,5.42.39,1.81-.4,3.56-1.31,4.98-2.74.66-.66,1.16-1.44,1.57-2.28.6-1.26.98-2.66,1.25-4.01.26-1.35.42-2.67.56-3.75.17-1.37.51-2.57.94-3.63.26-.64.55-1.23.86-1.76l.4-.4c.11.11.24.19.38.23l.37.37h0s-.35-.36-.35-.36c.32.09.69.01.94-.24l8.03-8.02c1.17-1.17,1.17-3.07,0-4.24Zm-12.32,9.33l.09.09c-.15.1-.3.19-.46.28l.37-.37ZM2.37,23.48c-.22.6-.36,1.2-.43,1.77-.42-1.31-.48-2.73-.18-4.11.33-1.52,1.1-2.99,2.31-4.2.5-.5,1.13-.91,1.85-1.26,1.08-.52,2.36-.87,3.63-1.12,1.28-.25,2.56-.4,3.65-.54,1.27-.16,2.42-.45,3.45-.83-.96.47-2.12.93-3.57,1.3-1.01.26-2.24.66-3.54,1.3-1.29.64-2.64,1.52-3.87,2.75-.92.92-1.67,1.87-2.27,2.82-.44.71-.79,1.42-1.05,2.12Zm1.1,2.39c.01-.82.28-1.83.84-2.9.55-1.07,1.38-2.21,2.48-3.31,1.08-1.08,2.28-1.87,3.45-2.45,1.17-.58,2.3-.95,3.24-1.19.72-.19,1.39-.4,2-.62L3.71,27.18c-.16-.36-.24-.79-.23-1.3Zm2.11,2.56c-.28-.02-.53-.08-.75-.16l11.64-11.64c-.21.55-.4,1.14-.58,1.78-.26.92-.65,2.03-1.24,3.19-.59,1.16-1.39,2.35-2.48,3.44-.84.84-1.7,1.53-2.53,2.06-.62.4-1.23.71-1.81.93-.86.33-1.64.46-2.26.41Zm12.39-9.65c-.09.73-.19,1.54-.32,2.38-.19,1.26-.46,2.58-.88,3.77-.21.59-.45,1.16-.74,1.66-.29.5-.61.95-.99,1.32-1.61,1.61-3.69,2.45-5.74,2.5-.96.02-1.9-.12-2.8-.44.99-.12,2.03-.47,3.1-1.04,1.22-.65,2.47-1.58,3.67-2.79,1.22-1.22,2.11-2.56,2.77-3.83.65-1.28,1.07-2.49,1.35-3.48.44-1.54.95-2.77,1.48-3.76-.42,1.1-.75,2.33-.92,3.7Zm3.39-5.22c.09-.16.19-.31.28-.46l.09.09-.37.37Z"/></svg>