<?xml version="1.0" encoding="UTF-8"?><svg id="_2" xmlns="http://www.w3.org/2000/svg" viewBox="0 0 32 32"><defs><style>.cls-1{fill:#212121;stroke-width:0px;}</style></defs><path class="cls-1" d="m16,0C7.16,0,0,7.16,0,16c0,8.84,7.16,16,16,16,8.84,0,16-7.16,16-16C32,7.16,24.84,0,16,0Zm9.31,25.31c-2.39,2.39-5.67,3.86-9.31,3.86-3.64,0-6.92-1.47-9.31-3.86-2.39-2.39-3.86-5.67-3.86-9.31s1.47-6.92,3.86-9.31c2.39-2.39,5.67-3.86,9.31-3.86,3.64,0,6.92,1.47,9.31,3.86,2.38,2.39,3.85,5.67,3.86,9.31,0,3.64-1.47,6.92-3.86,9.31Z"/><path class="cls-1" d="m7.09,16c0,1.63.34,2.99,1.21,4.47.24.39.79.39,1.12.2.28-.16.51-.6.28-1.02-.6-.98-.99-2.32-.99-3.66,0-2.02.82-3.83,2.14-5.16,1.32-1.32,3.14-2.13,5.16-2.13,1.33,0,2.58.41,3.66.99.48.26.88.14,1.12-.19.15-.22.3-.8-.3-1.21-.85-.62-2.84-1.21-4.47-1.21-4.92,0-8.91,3.99-8.91,8.91Z"/></svg>