<?xml version="1.0" encoding="UTF-8"?><svg id="contents" xmlns="http://www.w3.org/2000/svg" viewBox="0 0 32 29.36"><defs><style>.cls-1{fill:#212121;stroke-width:0px;}</style></defs><path class="cls-1" d="m14.79,17.23h-1.09c-.24-2.29-2.06-4.12-4.35-4.35v-.67h-1.01v.67c-2.29.24-4.12,2.06-4.35,4.35h-.59v1.01h.59c.24,2.29,2.06,4.12,4.35,4.35v.78h1.01v-.78c2.29-.24,4.12-2.06,4.35-4.35h1.09v-1.01Zm-2.11,0h-1.42c-.2-.96-.95-1.71-1.91-1.91v-1.42c1.73.23,3.11,1.6,3.33,3.33Zm-4.34-3.33v1.42c-.96.2-1.71.95-1.91,1.91h-1.42c.23-1.73,1.6-3.11,3.33-3.33Zm-3.33,4.34h1.42c.2.96.95,1.71,1.91,1.91v1.42c-1.73-.23-3.11-1.6-3.33-3.33Zm4.34,3.33v-1.42c.96-.2,1.71-.95,1.91-1.91h1.42c-.23,1.73-1.6,3.11-3.33,3.33Z"/><path class="cls-1" d="m28.6,17.23h-1.09c-.24-2.29-2.06-4.12-4.35-4.35v-.67h-1.01v.67c-2.29.24-4.12,2.06-4.35,4.35h-.59v1.01h.59c.24,2.29,2.06,4.12,4.35,4.35v.78h1.01v-.78c2.29-.24,4.12-2.06,4.35-4.35h1.09v-1.01Zm-2.11,0h-1.42c-.2-.96-.95-1.71-1.91-1.91v-1.42c1.73.23,3.11,1.6,3.33,3.33Zm-4.34-3.33v1.42c-.96.2-1.71.95-1.91,1.91h-1.42c.23-1.73,1.6-3.11,3.33-3.33Zm-3.33,4.34h1.42c.2.96.95,1.71,1.91,1.91v1.42c-1.73-.23-3.11-1.6-3.33-3.33Zm4.34,3.33v-1.42c.96-.2,1.71-.95,1.91-1.91h1.42c-.23,1.73-1.6,3.11-3.33,3.33Z"/><path class="cls-1" d="m21.7,7.38h-1.09c-.24-2.29-2.06-4.12-4.35-4.35v-.67h-1.01v.67c-2.29.24-4.12,2.06-4.35,4.35h-.59v1.01h.59c.24,2.29,2.06,4.12,4.35,4.35v.78h1.01v-.78c2.29-.24,4.12-2.06,4.35-4.35h1.09v-1.01Zm-2.11,0h-1.42c-.2-.96-.95-1.71-1.91-1.91v-1.42c1.73.23,3.11,1.6,3.33,3.33Zm-4.34-3.33v1.42c-.96.2-1.71.95-1.91,1.91h-1.42c.23-1.73,1.6-3.11,3.33-3.33Zm-3.33,4.34h1.42c.2.96.95,1.71,1.91,1.91v1.42c-1.73-.23-3.11-1.6-3.33-3.33Zm4.34,3.33v-1.42c.96-.2,1.71-.95,1.91-1.91h1.42c-.23,1.73-1.6,3.11-3.33,3.33Z"/><path class="cls-1" d="m0,0v28.68c0,.37.3.67.67.67h30.65c.37,0,.67-.3.67-.67V0H0Zm10.67,28.12c-.51,0-.93-.41-.93-.93s.41-.93.93-.93.93.41.93.93-.41.93-.93.93Zm5.33,0c-.51,0-.93-.41-.93-.93s.41-.93.93-.93.93.41.93.93-.41.93-.93.93Zm5.33,0c-.51,0-.93-.41-.93-.93s.41-.93.93-.93.93.41.93.93-.41.93-.93.93Zm9.26-3.79H1.4V1.4h29.19v22.92Z"/></svg>