<?xml version="1.0" encoding="UTF-8"?><svg id="_2" xmlns="http://www.w3.org/2000/svg" viewBox="0 0 32 45.66"><defs><style>.cls-1{fill:#212121;stroke-width:0px;}</style></defs><path class="cls-1" d="m31.86,37.1l-5.06-24.97c.77-.41,1.3-1.21,1.3-2.14v-3.21c0-3.74-3.03-6.77-6.77-6.77h-10.82C6.76,0,3.73,3.03,3.73,6.77v3.21c0,.99.6,1.84,1.45,2.22L.14,37.1c-.1.47-.14.94-.14,1.42,0,1.63.56,3.23,1.61,4.52,1.36,1.66,3.39,2.62,5.53,2.62h17.72c2.14,0,4.17-.96,5.53-2.62,1.05-1.29,1.61-2.89,1.61-4.52,0-.47-.05-.95-.14-1.42Zm-4.15,3.74c-.7.85-1.74,1.35-2.84,1.35H7.14c-1.1,0-2.15-.49-2.84-1.35-.54-.66-.83-1.48-.83-2.33,0-.24.02-.49.07-.73l5.13-25.36h14.65l5.14,25.36c.05.24.07.48.07.73,0,.84-.29,1.66-.83,2.33Z"/><path class="cls-1" d="m8.23,32.59c-.78,0-1.42.63-1.42,1.42s.63,1.42,1.42,1.42,1.42-.63,1.42-1.42-.63-1.42-1.42-1.42Z"/><path class="cls-1" d="m13.5,32.59c-.78,0-1.42.63-1.42,1.42s.63,1.42,1.42,1.42,1.42-.63,1.42-1.42-.63-1.42-1.42-1.42Z"/><path class="cls-1" d="m18.77,32.59c-.78,0-1.42.63-1.42,1.42s.63,1.42,1.42,1.42,1.42-.63,1.42-1.42-.63-1.42-1.42-1.42Z"/><path class="cls-1" d="m24.03,32.59c-.78,0-1.42.63-1.42,1.42s.63,1.42,1.42,1.42,1.42-.63,1.42-1.42-.63-1.42-1.42-1.42Z"/><path class="cls-1" d="m10.82,31.35c.78,0,1.42-.63,1.42-1.42s-.63-1.42-1.42-1.42-1.42.63-1.42,1.42.63,1.42,1.42,1.42Z"/><path class="cls-1" d="m16.09,31.35c.78,0,1.42-.63,1.42-1.42s-.63-1.42-1.42-1.42-1.42.63-1.42,1.42.63,1.42,1.42,1.42Z"/><path class="cls-1" d="m21.36,31.35c.78,0,1.42-.63,1.42-1.42s-.63-1.42-1.42-1.42-1.42.63-1.42,1.42.63,1.42,1.42,1.42Z"/><path class="cls-1" d="m10.82,36.49c-.78,0-1.42.63-1.42,1.42s.63,1.42,1.42,1.42,1.42-.63,1.42-1.42c0-.78-.63-1.42-1.42-1.42Z"/><path class="cls-1" d="m16.09,36.49c-.78,0-1.42.63-1.42,1.42s.63,1.42,1.42,1.42,1.42-.63,1.42-1.42-.63-1.42-1.42-1.42Z"/><path class="cls-1" d="m21.36,36.49c-.78,0-1.42.63-1.42,1.42s.63,1.42,1.42,1.42,1.42-.63,1.42-1.42-.63-1.42-1.42-1.42Z"/></svg>