<?xml version="1.0" encoding="UTF-8"?><svg id="_2" xmlns="http://www.w3.org/2000/svg" viewBox="0 0 32 52.68"><defs><style>.cls-1{fill:#212121;stroke-width:0px;}</style></defs><path class="cls-1" d="m30.77,10.81c-.75-.76-1.81-1.23-2.96-1.23h-1.19l.46-3.95v-.92c0-1.48-1.2-2.68-2.69-2.68h-8.29c-.38-1.18-1.49-2.03-2.79-2.03s-2.41.85-2.79,2.03H2.69c-1.48,0-2.69,1.2-2.69,2.68v.92l2.91,25.12c.15,1.34.8,2.53,1.75,3.37.94.84,2.2,1.35,3.55,1.35h10.66c1.35,0,2.6-.51,3.55-1.35.95-.84,1.6-2.03,1.75-3.37l.3-2.56,5.7-3.85c1.15-.78,1.84-2.08,1.84-3.47v-7.09c0-1.15-.47-2.21-1.23-2.96Zm-9.52,19.6c-.07.61-.36,1.14-.79,1.52-.43.38-.99.61-1.6.61h-10.66c-.61,0-1.17-.23-1.6-.61-.43-.38-.72-.91-.79-1.52L3.28,8.55h20.51l-2.53,21.85Zm7.82-9.55c0,.42-.21.81-.56,1.05l-3.61,2.44,1.37-11.85h1.53c.18,0,.34.04.49.1.23.09.42.26.56.46.14.2.22.44.22.71v7.09h0Z"/><path class="cls-1" d="m13.6,41.88c-.75,0-1.42.3-1.91.79-.49.49-.79,1.16-.79,1.91,0,.75.3,1.42.79,1.91.49.49,1.16.79,1.91.79.75,0,1.42-.3,1.91-.79.49-.49.79-1.16.79-1.91s-.3-1.42-.79-1.91c-.49-.49-1.16-.79-1.91-.79Z"/><path class="cls-1" d="m22.38,36.7H4.82l-2.25,11.41c-.22,1.12.07,2.29.8,3.17.73.88,1.81,1.4,2.96,1.4h14.55c1.14,0,2.23-.51,2.96-1.4.73-.88,1.02-2.05.8-3.17l-2.25-11.41Zm-5.28,11.38c-.89.89-2.14,1.45-3.5,1.45s-2.61-.56-3.5-1.45c-.89-.89-1.45-2.14-1.45-3.5,0-1.36.56-2.61,1.45-3.5.89-.89,2.14-1.45,3.5-1.45s2.61.56,3.5,1.45c.89.89,1.45,2.14,1.45,3.5,0,1.36-.56,2.61-1.45,3.5Z"/><path class="cls-1" d="m18.6,29.84l1.76-15.19s-2.98,2.36-6.7.56c-2.08-1.01-4.95-2.25-6.96-.56l1.76,15.19h10.13Z"/><path class="cls-1" d="m17.16,13.44c.58,0,1.05-.47,1.05-1.05s-.47-1.05-1.05-1.05-1.05.47-1.05,1.05c0,.58.47,1.05,1.05,1.05Z"/></svg>