<?xml version="1.0" encoding="UTF-8"?><svg id="contents" xmlns="http://www.w3.org/2000/svg" viewBox="0 0 32 27.18"><defs><style>.cls-1{fill:#212121;stroke-width:0px;}</style></defs><path class="cls-1" d="m31.9,22.53l-.68-1.27.39-1.39c.06-.21.04-.43-.07-.62l-.68-1.27.39-1.39c.06-.21.04-.43-.07-.62l-.68-1.27.39-1.39c.06-.21.04-.43-.07-.62l-.68-1.27.39-1.39c.06-.21.04-.43-.07-.62l-.68-1.27.39-1.39c.06-.21.04-.43-.07-.62l-.72-1.35.15-1.76c0-.07,0-.13,0-.2,0-.09-.01-.18-.04-.27-.14-.44-.62-.67-1.05-.53-3.56,1.18-12.55.4-15.65.08V0H0v27.18h12.82v-1.75c1.34.08,2.63.12,3.87.12,3.59,0,6.67-.3,8.88-.61,3.48-.49,5.57-1.08,5.66-1.11.12-.03.22-.09.31-.17,0,0,.02,0,.03-.01.41-.22.56-.72.34-1.13Zm-21.42,2.32h-1.99V2.33h1.99v22.52Zm14.81-1.55c-2.9.41-7.35.8-12.47.47V3.77c3.04.31,10.75.96,15,.12l-.08.99c-.01.16.02.32.1.46l.68,1.27-.39,1.39c-.06.21-.04.43.07.62l.68,1.27-.39,1.39c-.06.21-.04.43.07.62l.68,1.27-.39,1.39c-.06.21-.04.43.07.62l.68,1.27-.39,1.39c-.06.21-.04.43.07.62l.68,1.27-.39,1.39c-.06.21-.04.43.07.62l.37.69c-.9.21-2.52.56-4.67.86Z"/><path class="cls-1" d="m17.18,7.4c-.26-.01-.48.19-.49.45l-.53,11.84c-.01.26.19.48.45.49,0,0,.01,0,.02,0,.25,0,.46-.2.47-.45l.53-11.84c.01-.26-.19-.48-.45-.49Z"/><path class="cls-1" d="m22.57,7.75c-.07-.25-.32-.4-.58-.34-.25.07-.4.32-.34.58l2.72,10.43c.06.21.25.35.46.35.04,0,.08,0,.12-.02.25-.07.4-.32.34-.58l-2.72-10.43Z"/></svg>