<?xml version="1.0" encoding="UTF-8"?><svg id="_10" xmlns="http://www.w3.org/2000/svg" viewBox="0 0 32 31.67"><defs><style>.cls-1{fill:#212121;stroke-width:0px;}</style></defs><path class="cls-1" d="m23.86,22.79s0,0,0,0c0,0,0,0,0,0-1.19,1.98-2.74,3.17-4.35,3.88-.02,0-.04.02-.06.03-.1.04-.2.08-.3.13-.02,0-.05.02-.07.03-.12.05-.24.09-.37.14,0,0,0,0,0,0-2.14.74-4.27.74-5.67.74-3.72,0-8.1-1.24-10.4-3.96-.16-.19-.3-.38-.44-.58,0,0,0,0,0,0,0,0,0,0,0,0-.37.63-.56,1.3-.56,2,0,3.59,5.16,6.5,11.53,6.5s11.53-2.91,11.53-6.5c0-.73-.23-1.43-.62-2.08-.06-.1-.11-.2-.18-.3Z"/><path class="cls-1" d="m30.26,3.63c-.99-1.55-4.5-2.56-8.58-2.56-.67,0-1.35.03-2.03.09-2.28-.76-3.71-1.16-6.63-1.16s-5.47,1-6.21,1.12c-1.78.08-6.01.16-6.81,2.08,0,0,1.04,5.63,3.15,6.95-.52,1.4-2.12,8.34-.4,11.74.05.1.1.2.16.29,1.85,3.18,6.65,4.38,10.1,4.38.7,0,1.45-.02,2.21-.08.05,0,.11,0,.16-.01.16-.01.32-.03.48-.05.06,0,.11-.01.17-.02.19-.03.38-.05.57-.09.02,0,.03,0,.05,0,2.39-.43,4.78-1.54,6.36-4.43.19-.34.36-.7.52-1.09,3.24-.8,8.26-1.12,8.42-5.47.16-4.35-.56-9.86-1.72-11.66Zm-6.55,10.51l-.83-5.78c-.12-.79.48-1.5,1.28-1.54l2.28-.09c.71-.03,1.31.5,1.39,1.2l.6,5.63c.08.74-.45,1.4-1.19,1.48l-2.05.23c-.72.08-1.38-.42-1.48-1.14Zm-13.02,4.7h0v-7.51c0-1.13.92-2.05,2.05-2.05s2.05.92,2.05,2.05v7.51c0,1.13-.92,2.05-2.05,2.05-1.13,0-2.05-.92-2.05-2.05ZM1.15,3.41v-.09s0-.01,0-.01c.94-.9,4.21-1.04,5.29-1.08h.36s.07-.02.07-.02c.25-.04.56-.13.99-.25,1.12-.32,2.98-.85,5.02-.85,2.68,0,3.96.34,6.25,1.1l.23.07.24-.02h.01l.04.03-.02.04c-2.9,1.15-7.02,1.81-11.32,1.81-2.47,0-4.93-.22-7.11-.63l-.03-.03v-.06Z"/><rect class="cls-1" x="11.48" y="13.91" width="2.52" height=".42"/><polygon class="cls-1" points="13.99 16.9 11.49 16.9 11.49 16.9 11.49 16.9 11.48 16.9 11.48 17.32 13.99 17.32 13.99 16.9"/></svg>