<?xml version="1.0" encoding="UTF-8"?><svg id="contents" xmlns="http://www.w3.org/2000/svg" viewBox="0 0 32 27.19"><defs><style>.cls-1{fill:#212121;stroke-width:0px;}</style></defs><path class="cls-1" d="m24.76,7.95l-1.35,2.6c-2.12-1.86-2.79-3.82-3.4-5.59-.59-1.71-1.15-3.33-2.89-4.27-1.47-.79-2.95-.9-4.4-.32-2.24.89-3.99,3.31-5.18,5.51H2.55l-2.55,3.75v17.56h13.54V9.63l-2.55-3.75h-1.52c1.04-1.73,2.37-3.35,3.87-3.95.99-.39,1.96-.32,2.99.24,1.17.63,1.56,1.77,2.11,3.34.41,1.18.87,2.51,1.77,3.89.65.99,1.45,1.88,2.43,2.69l-1.61,3.11,7.24,3.75,3.75-7.24-7.24-3.75Zm-14.66-.4l1.76,2.59v15.37H1.68v-15.37l1.76-2.59h3.27c-.36.78-.62,1.46-.79,1.9h-1.14c-.46,0-.84.38-.84.84s.38.84.84.84h1.72s0,0,0,0h2.27c.46,0,.84-.38.84-.84s-.38-.84-.84-.84h-1.06c.23-.56.51-1.22.85-1.9h1.55Zm17.57,9.58l-4.86-2.52.89-1.72c.28.19.57.38.87.56.13.08.28.12.43.12.28,0,.56-.15.72-.41.24-.4.11-.91-.29-1.15-.34-.21-.66-.41-.96-.62l.85-1.64,4.86,2.52-2.52,4.86Z"/><path class="cls-1" d="m3.4,19.8c.48,0,.86-.39.86-.86s-.39-.86-.86-.86-.86.39-.86.86.39.86.86.86Z"/><path class="cls-1" d="m5.65,19.8c.48,0,.86-.39.86-.86s-.39-.86-.86-.86-.86.39-.86.86.39.86.86.86Z"/><path class="cls-1" d="m7.89,19.8c.48,0,.86-.39.86-.86s-.39-.86-.86-.86-.86.39-.86.86.39.86.86.86Z"/><path class="cls-1" d="m9.27,18.94c0,.48.39.86.86.86s.86-.39.86-.86-.39-.86-.86-.86-.86.39-.86.86Z"/><path class="cls-1" d="m3.4,22.84c-.48,0-.86.39-.86.86s.39.86.86.86.86-.39.86-.86-.39-.86-.86-.86Z"/><path class="cls-1" d="m5.65,22.84c-.48,0-.86.39-.86.86s.39.86.86.86.86-.39.86-.86-.39-.86-.86-.86Z"/><path class="cls-1" d="m7.89,22.84c-.48,0-.86.39-.86.86s.39.86.86.86.86-.39.86-.86-.39-.86-.86-.86Z"/><path class="cls-1" d="m10.14,22.84c-.48,0-.86.39-.86.86s.39.86.86.86.86-.39.86-.86-.39-.86-.86-.86Z"/><path class="cls-1" d="m5.39,21.3c0-.48-.39-.86-.86-.86s-.86.39-.86.86.39.86.86.86.86-.39.86-.86Z"/><path class="cls-1" d="m7.63,21.3c0-.48-.39-.86-.86-.86s-.86.39-.86.86.39.86.86.86.86-.39.86-.86Z"/><path class="cls-1" d="m9.87,21.3c0-.48-.39-.86-.86-.86s-.86.39-.86.86.39.86.86.86.86-.39.86-.86Z"/></svg>