<?xml version="1.0" encoding="UTF-8"?><svg id="_2" xmlns="http://www.w3.org/2000/svg" viewBox="0 0 32 32"><defs><style>.cls-1{fill:#212121;stroke-width:0px;}</style></defs><path class="cls-1" d="m31.12.88c-1.5-1.5-3.55-.82-4.5.14-.96.96-7.98,8.24-7.98,8.24-.42.43-.41,1.11.01,1.54l.16.16-1.16,1.16c-1.23,1.23-1.67,1.88-3.38,1.13-2.86-1.26-5.63-1.33-7.44.48L.48,20.05c-.64.64-.64,1.68,0,2.32l9.14,9.14c.64.64,1.68.64,2.32,0l6.35-6.35c1.81-1.81,1.74-4.58.48-7.44-.75-1.71-.1-2.15,1.13-3.38l1.16-1.16.16.16c.42.42,1.11.43,1.54.01,0,0,7.28-7.03,8.23-7.99.96-.96,1.64-3,.14-4.5ZM4.28,22.11c-.36-.36-.36-.94,0-1.3l4.19-4.19c.36-.36.95-.36,1.3,0,.36.36.36.94,0,1.3l-4.19,4.19c-.36.36-.94.36-1.3,0Zm2.8,2.81c-.36-.36-.36-.94,0-1.3l4.19-4.19c.36-.36.94-.36,1.3,0,.36.36.36.95,0,1.31l-4.19,4.19c-.36.36-.94.36-1.3,0Zm8.3-1.38l-4.19,4.19c-.36.36-.94.36-1.3,0-.36-.36-.36-.95,0-1.3l4.19-4.19c.36-.36.94-.36,1.3,0,.36.36.36.94,0,1.3Z"/></svg>