<?xml version="1.0" encoding="UTF-8"?><svg id="_2" xmlns="http://www.w3.org/2000/svg" viewBox="0 0 32 22.66"><defs><style>.cls-1{fill:#212121;stroke-width:0px;}</style></defs><path class="cls-1" d="m5.07,19.43c0,1.78,1.45,3.23,3.23,3.23h15.41c1.78,0,3.23-1.44,3.23-3.23v-10.78H5.07v10.78Z"/><path class="cls-1" d="m3.23,8.56h0s-2.07-1.42-2.07-1.42c-.34-.23-.8-.15-1.03.19-.23.34-.15.8.19,1.03l2.07,1.42h0c.13.09.21.24.21.4v2.13c0,.41.33.74.74.74s.74-.33.74-.74v-2.13c0-.64-.31-1.24-.84-1.61Z"/><path class="cls-1" d="m31.87,7.33c-.23-.34-.69-.42-1.03-.19l-2.07,1.42h0c-.53.37-.84.97-.84,1.61v2.13c0,.41.33.74.74.74s.74-.33.74-.74v-2.13c0-.16.08-.3.2-.4l2.07-1.42c.34-.23.42-.69.19-1.03Z"/><path class="cls-1" d="m26.45,6.1s0,0-.24-.14c-2.64-1.47-5.74-2.32-9.05-2.32h-2.33c-3.31,0-6.41.85-9.05,2.32-.24.13-.24.14-.24.14-.3.17-.48.49-.48.84v.54h21.86v-.54c0-.34-.18-.66-.48-.84Z"/><path class="cls-1" d="m16,3.19c.88,0,1.59-.71,1.59-1.59s-.71-1.59-1.59-1.59-1.59.71-1.59,1.59.71,1.59,1.59,1.59Z"/></svg>