<?xml version="1.0" encoding="UTF-8"?><svg id="contents" xmlns="http://www.w3.org/2000/svg" viewBox="0 0 32 80.55"><defs><style>.cls-1{fill-rule:evenodd;}.cls-1,.cls-2{fill:#212121;stroke-width:0px;}</style></defs><path class="cls-2" d="m22.83,6.14h-.21v-3.58c0-1.4-1.15-2.55-2.55-2.55h-8.14c-1.4,0-2.55,1.15-2.55,2.55v3.58h-.21c-.22,0-.41.18-.41.41v1.61c0,.22.18.41.41.41h13.66c.22,0,.41-.18.41-.41v-1.61c0-.22-.18-.41-.41-.41Z"/><path class="cls-2" d="m31.96,43.97c-.02-1.12-.23-2.31-.68-3.55l-8.48-28.25h.02c.22,0,.41-.18.41-.41v-1.61c0-.22-.18-.41-.41-.41h-13.66c-.22,0-.41.18-.41.41v1.61c0,.22.18.41.41.41h.02L.71,40.42c-.44,1.24-.66,2.43-.68,3.55-.02.2-.04.4-.04.61v30.86c0,2.81,2.3,5.11,5.11,5.11h21.78c2.81,0,5.11-2.3,5.11-5.11v-30.86c0-.21-.01-.41-.04-.61Zm-15.96,23.81c-6.39,0-11.57-5.18-11.57-11.57s5.18-11.57,11.57-11.57,11.57,5.18,11.57,11.57-5.18,11.57-11.57,11.57Z"/><path class="cls-1" d="m18.37,51.89l-.51.46.73,2.57s0,.08-.04.11c-.02,0-.03.01-.05.01-.02,0-.05,0-.06-.02l-1.84-1.62-1.12,1.64s-.05.04-.08.04c0,0-.01,0-.02,0-.04,0-.07-.04-.07-.08l-.36-1.83-2.42.52s-.01,0-.02,0c-.03,0-.07-.02-.08-.05-.02-.04-.01-.08.02-.11l1.33-1.27-.29-.45c-2.82.29-5.03,2.71-5.03,5.67,0,.11-.01.53,0,.62.43,3.1,3.38,5.69,7.55,5.69s7.55-2.8,7.55-5.95v-.29c0-3.01-2.29-5.47-5.19-5.68Zm-7.87,6.73c-.62,0-1.13-.5-1.13-1.13s.5-1.13,1.13-1.13,1.13.5,1.13,1.13-.5,1.13-1.13,1.13Z"/><path class="cls-2" d="m18.46,51.32s-.05-.05-.08-.05c0,0-.02,0-.02,0l-1.92.52c-.02-.37-.03-.89.07-1.39.13-.68.48-1.15.48-1.15.13-.17.1-.41-.07-.54-.17-.13-.41-.1-.54.07-.02.02-.46.61-.63,1.48-.1.54-.11,1.09-.08,1.5l-2.24-.9s-.02,0-.04,0c-.03,0-.05.01-.07.03-.03.03-.03.08,0,.11l.84,1.32-.77.73s-.04.08-.02.11c.02.03.05.05.08.05,0,0,.01,0,.02,0l1.71-.36.28,1.44s.04.07.07.08c0,0,.01,0,.02,0,.03,0,.06-.02.08-.04l.91-1.34,1.36,1.19s.04.02.06.02c.02,0,.04,0,.05-.01.04-.02.05-.07.04-.11l-.51-1.81.91-.82s.04-.08.02-.12Z"/></svg>