<?xml version="1.0" encoding="UTF-8"?><svg id="_2" xmlns="http://www.w3.org/2000/svg" viewBox="0 0 32 23.24"><defs><style>.cls-1{fill:#212121;stroke-width:0px;}</style></defs><path class="cls-1" d="m6.06,7.55v1.99l3.24-3.24h-1.99c-.69,0-1.25.56-1.25,1.25Z"/><rect class="cls-1" x="3.48" y="21.93" width="3.11" height="1.31"/><rect class="cls-1" x="25.41" y="21.93" width="3.11" height="1.31"/><path class="cls-1" d="m30.05,0H1.95C.87,0,0,.87,0,1.95v17.38c0,1.08.87,1.95,1.95,1.95h28.1c1.08,0,1.95-.87,1.95-1.95V1.95c0-1.08-.87-1.95-1.95-1.95Zm-8.31,15.85c0,.69-.56,1.25-1.25,1.25H5.1c-.69,0-1.25-.56-1.25-1.25V5.34c0-.69.56-1.25,1.25-1.25h15.39c.69,0,1.25.56,1.25,1.25v10.51Zm3.43,1.12c-.51,0-.93-.42-.93-.93s.42-.93.93-.93.93.42.93.93-.42.93-.93.93Zm0-3.68c-.51,0-.93-.42-.93-.93s.42-.93.93-.93.93.42.93.93-.42.93-.93.93Zm3.73,3.68c-.51,0-.93-.42-.93-.93s.42-.93.93-.93.93.42.93.93c0,.51-.42.93-.93.93Zm0-3.68c-.51,0-.93-.42-.93-.93s.42-.93.93-.93.93.42.93.93c0,.51-.42.93-.93.93Zm.93-6.09h-5.57v-2.95h5.57v2.95Z"/></svg>