<?xml version="1.0" encoding="UTF-8"?><svg id="_2" xmlns="http://www.w3.org/2000/svg" viewBox="0 0 32 32"><defs><style>.cls-1{fill:#212121;stroke-width:0px;}</style></defs><path class="cls-1" d="m31.62,7.52c-.6-.6-1.49-.53-2.08.06l-5.85,5.85c-.58.58-1.15.56-1.61.1-.42-.42-.32-1.01.09-1.41l6.02-6.07c.67-.67.51-1.68-.03-2.22-.54-.54-1.55-.69-2.21-.03l-6.05,6.05c-.41.41-1.02.48-1.44.07-.46-.46-.48-1.03.1-1.61l5.85-5.85c.59-.59.66-1.47.06-2.08-.6-.6-1.45-.41-2.02.04-.57.44-5.31,4.51-7.68,6.8-2.36,2.29-2.33,4.77-1.77,6.28.38,1.04.19,2.25-.66,3.1L.38,28.15C.14,28.38,0,28.7,0,29.03c0,.33.13.66.36.89l1.71,1.71c.24.24.56.37.89.36.33,0,.65-.14.88-.38l11.54-11.97c.85-.85,2.07-1.04,3.1-.66,1.52.55,3.99.59,6.28-1.77,2.29-2.36,6.36-7.1,6.8-7.68.44-.57.64-1.42.04-2.02Z"/></svg>