<?xml version="1.0" encoding="UTF-8"?><svg id="_2" xmlns="http://www.w3.org/2000/svg" viewBox="0 0 32 44.04"><defs><style>.cls-1{fill:#212121;stroke-width:0px;}</style></defs><path class="cls-1" d="m22.33,12.6c.2-2.55,4.84-4.95,5.12-7.22.12-.97-.29-1.78-1.19-1.73-2.8.16-6.5.47-11.56.88-.74.06-6.79.5-7.95.77-1.16.26-2.38.77-3.56,1.66-1.06.79-1.83,1.91-2.37,3.19C.29,11.42,0,12.88,0,14.43c0,2.13.56,4.44,1.86,6.58.91,1.5,2.22,2.85,3.83,4.12.44.35.34.84.21,1.06-2.57,4.21-3.99,9.54-.12,17.86h23.78c8.5-18.27-7.95-22.04-7.22-31.45Zm-17.57,6.65c-.96-1.59-1.36-3.28-1.36-4.82,0-1.12.21-2.15.56-2.98.34-.83.82-1.44,1.27-1.77.81-.6,1.52-.89,2.27-1.07.75-.17,1.01-.22,1.94-.22.37,0,1.09.09,1.7.28,1.61.57,1.86,3.93,1.86,3.93.47,3.42-1.46,6.13-3.79,9.01-.53.65-1.62.7-2.17.26-1-.79-1.72-1.71-2.28-2.63Zm22.15,20.83H8.43c-2.08-5.8-.76-9.3,1.09-12.19h16.49c1.96,3.15,2.92,6.67.91,12.19Z"/><path class="cls-1" d="m14.7,3.25c2.56-.21,4.77-.39,6.69-.54l.37-2.71h-8.07l.45,3.29c.27-.02.46-.04.56-.04Z"/></svg>