<?xml version="1.0" encoding="UTF-8"?><svg id="contents" xmlns="http://www.w3.org/2000/svg" viewBox="0 0 32 76.06"><defs><style>.cls-1{fill:#212121;stroke-width:0px;}</style></defs><path class="cls-1" d="m4.59,20.69h22.83c.82,0,1.49-.67,1.49-1.49v-3.15c0-.82-.67-1.49-1.49-1.49h-3.39v-4.04c0-.82-.67-1.49-1.49-1.49h-3.03l-.9-7.87c-.06-.63-.63-1.15-1.27-1.15h-2.65c-.64,0-1.21.52-1.27,1.15l-.9,7.87h-3.03c-.82,0-1.49.67-1.49,1.49v4.04h-3.39c-.82,0-1.49.67-1.49,1.49v3.15c0,.82.67,1.49,1.49,1.49Z"/><path class="cls-1" d="m31.94,72.65l-5.32-27.35c-.37-1.88-.48-4.97-.26-6.87l1.35-12.82c.22-1.9-.22-2.05-2.13-2.05H6.42c-1.91,0-2.36.15-2.13,2.05l1.35,12.82c.22,1.9.11,4.99-.26,6.87L.06,72.65c-.37,1.88.9,3.41,2.81,3.41h26.25c1.91,0,3.18-1.54,2.81-3.41Z"/></svg>