<?xml version="1.0" encoding="UTF-8"?><svg id="contents" xmlns="http://www.w3.org/2000/svg" viewBox="0 0 32 26.65"><defs><style>.cls-1{fill:#212121;stroke-width:0px;}</style></defs><path class="cls-1" d="m32,13.4s0-.04,0-.07c0,0,0-.02,0-.03,0-.02,0-.04-.01-.07,0,0,0-.02,0-.03,0-.02,0-.04-.02-.06,0-.01,0-.02-.01-.03,0-.01-.01-.03-.02-.04,0-.01,0-.02-.01-.03,0-.02-.02-.04-.03-.06,0,0,0-.01-.01-.02-.01-.02-.02-.04-.03-.06,0,0-.01-.01-.02-.02-.01-.01-.02-.03-.03-.04,0,0-.01-.01-.02-.02-.01-.02-.03-.03-.04-.04,0,0,0,0-.01-.01,0,0,0,0,0,0L18.97.26c-.17-.17-.4-.26-.63-.26h-6.53s-.06,0-.08,0c0,0-.02,0-.03,0-.02,0-.04,0-.06,0,0,0-.02,0-.03,0-.02,0-.05.01-.07.02,0,0-.02,0-.03,0-.02,0-.04.01-.05.02-.01,0-.02,0-.03.01-.01,0-.03.01-.04.02,0,0-.02,0-.03.01-.02.01-.04.02-.06.04,0,0,0,0-.01,0-.02.01-.04.03-.05.04,0,0-.01.01-.02.02-.01.01-.03.03-.04.04,0,0-.01.01-.02.02-.02.02-.03.04-.05.05,0,0,0,0,0,0-.02.02-.03.04-.05.06,0,0,0,.01-.01.02,0,.01-.02.03-.03.04,0,0-.01.02-.02.03,0,.01-.01.03-.02.04,0,0,0,.02-.01.03,0,0,0,0,0,0,0,.02-.02.04-.02.07,0,0,0,.02,0,.03,0,.02,0,.03-.01.05,0,0,0,.02,0,.03,0,.02,0,.04,0,.06,0,0,0,.01,0,.02,0,.03,0,.05,0,.08,0,0,0,0,0,0v3.75c-.84.96-5.74,6.43-10.25,7.71-.48.14-.76.64-.63,1.12.04.13.22.41.24.45l.7,1.07c.08.12.18.22.3.29l1.11.64.53,1.17c.08.17.21.32.37.41l1.11.64.53,1.17c.08.17.21.32.37.41l1.11.64.53,1.17c.08.17.21.32.37.41l1.11.64.53,1.17c.08.17.21.32.37.41l1.14.66.7,1.29c.06.1.13.19.21.26.16.16.39.25.63.25.04,0,.08,0,.11,0,4.54-.57,9.1-4.48,11.44-6.78l.35.34s.02.01.03.02c.01.01.02.02.04.03,0,0,.02.01.03.02.01.01.03.02.04.03,0,0,.02.01.03.02.02,0,.03.02.05.03,0,0,.02,0,.02.01.02,0,.04.02.06.03,0,0,.01,0,.02,0,.02,0,.04.02.06.02,0,0,.02,0,.02,0,.02,0,.04.01.06.02.01,0,.02,0,.03,0,.02,0,.04,0,.05,0,.03,0,.06,0,.09,0h6.53c.5,0,.91-.41.91-.91v-6.15s0,0,0-.01ZM12.72,3.06l10.94,10.73v1.73L12.72,4.8v-1.73Zm12.76,11.26h4.71v4.33h-4.71v-4.33ZM17.97,1.81l10.91,10.69h-3.94L14.03,1.81h3.94Zm-5.46,22.94l-.54-.99c-.08-.15-.2-.27-.35-.36l-1.11-.64-.53-1.17c-.08-.17-.21-.32-.37-.41l-1.11-.64-.53-1.17c-.08-.17-.21-.32-.37-.41l-1.11-.64-.53-1.17c-.08-.17-.21-.32-.37-.41l-1.11-.64-.53-1.17c-.08-.17-.21-.32-.37-.41l-1.18-.68-.07-.11c4.06-1.64,7.97-5.64,9.47-7.3l11.45,11.22c-1.59,1.68-6.24,6.23-10.72,7.12Z"/></svg>