<?xml version="1.0" encoding="UTF-8"?><svg id="_2" xmlns="http://www.w3.org/2000/svg" viewBox="0 0 32 54.26"><defs><style>.cls-1{fill:#212121;stroke-width:0px;}</style></defs><polygon class="cls-1" points="12.24 38.16 12.24 42.5 16 44.67 19.76 42.5 19.76 38.16 16 35.99 12.24 38.16"/><path class="cls-1" d="m22.51,12.35h1.68L27.24,0H4.76l.53,2.15h-1.66v4.59h2.8l1.38,5.6h1.68C6.68,27.42,0,39.4,0,54.26h32c0-14.87-6.68-26.84-9.49-41.92Zm-10.95.72h8.9c.78,4.07,1.82,7.91,2.93,11.63h-14.77c1.11-3.71,2.16-7.55,2.93-11.63Zm10.2,30.58l-5.75,3.32-5.75-3.32v-6.64l5.75-3.32,5.75,3.32v6.64h0Z"/></svg>