<?xml version="1.0" encoding="UTF-8"?><svg id="contents" xmlns="http://www.w3.org/2000/svg" viewBox="0 0 32 45.8"><defs><style>.cls-1{fill:#212121;stroke-width:0px;}</style></defs><path class="cls-1" d="m31.76,13.89l-2.58-4.27v-2.02h.64c.79,0,1.44-.65,1.44-1.45l.45-4.72c0-.79-.65-1.45-1.45-1.45H1.73C.94,0,.29.65.29,1.45l.45,4.72c0,.79.65,1.45,1.45,1.45h.64v2.02L.24,13.89c-.15.27-.24.58-.24.89v29.22c0,.99.8,1.8,1.8,1.8h28.41c.99,0,1.8-.8,1.8-1.8V14.78c0-.31-.08-.62-.24-.89Zm-1.56,30.11H1.8v-8.22h28.41v8.22Zm-20.68-11.22c-1.03-1.14-.91-3.64.38-6.01,1.29-2.38,3.32-3.84,4.83-3.6l-5.21,9.62Zm6.31-9.02c1.03,1.14.91,3.64-.38,6.01-1.29,2.38-3.32,3.84-4.83,3.6l5.21-9.62Zm5.39,10.28c-1.06-.14-2.13-1.53-2.52-3.37-.39-1.85.03-3.55.94-4.1l1.58,7.48Zm-.72-7.66c1.06.14,2.13,1.53,2.52,3.37.39,1.85-.03,3.55-.94,4.1l-1.58-7.48Zm9.7-4.98H1.8v-6.6l2.03-3.35h24.35l2.03,3.35v6.6Z"/></svg>