<?xml version="1.0" encoding="UTF-8"?><svg id="_レイヤー_1" xmlns="http://www.w3.org/2000/svg" viewBox="0 0 32 83.85"><defs><style>.cls-1,.cls-2{stroke-width:0px;}.cls-2{fill:#fff;}</style></defs><rect class="cls-2" x="3.55" y="53.5" width="24.89" height="26.49"/><rect class="cls-2" x="11.91" y="2.04" width="8.07" height="4.84"/><path class="cls-1" d="m3.02,48.73c-1.38-1.15-2.39-2.44-2.65-4.13-.16-1.03-.1-2.1-.04-3.14.26-4.71.47-9.42.87-14.12.23-2.77.64-5.54,1.2-8.26.71-3.45,3.03-5.47,6.38-6.36.66-.17,1.33-.27,2.07-.41v-2.88c-.77,0-1.5-.75-1.51-1.6,0-.81.28-1.62,1.07-1.64.01-.72.02-.25.01-.66-.01-1.35,0-2.44,0-3.79,0-1.15.56-1.72,1.71-1.73,2.59-.01,5.19,0,7.78,0,1.17,0,1.74.58,1.76,1.77.02,1.37.01,3.68.01,4.43.8,0,1.1.95,1.1,1.68-.03.78-.66,1.58-1.58,1.56v2.67c1.49.51,2.93.83,4.22,1.47,2.39,1.19,3.94,3.16,4.25,5.86.63,5.58,1.19,11.17,1.73,16.77.2,2.02.25,4.05.4,6.07.2,2.75-.4,4.21-2.7,6.42.4.35.82.66,1.18,1.05,1.15,1.23,1.73,2.68,1.72,4.38-.02,7.71,0,15.41,0,23.12,0,3.84-2.61,6.55-6.45,6.57-6.34.04-12.67.04-19.01,0-3.86-.03-6.51-2.77-6.51-6.63,0-7.31.04-14.63-.02-21.94-.02-2.67.63-4.93,3.02-6.52Zm2.67,7.4v21.97h20.68v-21.97H5.69ZM19.17,2.52h-6.22v3.54h6.22v-3.54Z"/><path class="cls-1" d="m6.78,74.26c1.15-1.88,1.8-3.95,1.96-6.19l2.43,1.57c-.26,2.67-.92,4.78-1.96,6.35l-2.43-1.72Zm3.45-6.98c-.31-.31-.81-.71-1.49-1.18-.73-.47-1.33-.78-1.8-.94l1.41-2.43c.47.16,1.07.47,1.8.94.63.42,1.1.78,1.41,1.1l-1.33,2.51Zm1.49-4.78h3.61v-1.41h-3.45l-1.25,1.8c-.73-.94-1.88-1.78-3.45-2.51l1.65-2.2c.73.26,1.57.78,2.51,1.57v-1.18h13.96v2.51h-4.47v1.41h3.68v13.72h-2.82v-.94h-7.13v.94h-2.82v-13.72Zm5.96,2.43c0,1.99-.5,3.55-1.49,4.7l-1.65-1.8v1.88h7.13v-.94h-1.72c-.99,0-1.49-.47-1.49-1.41v-2.43h-.78Zm-2.35,0h-.78v2.2c.16-.16.31-.44.47-.86.21-.58.31-1.02.31-1.33Zm-.78,7.84h7.13v-.86h-7.13v.86Zm3.21-10.27h.71v-1.41h-.71v1.41Zm3.92,4.08v-1.65h-.86v1.02c0,.47.29.68.86.63Z"/></svg>