<?xml version="1.0" encoding="UTF-8"?><svg id="contents" xmlns="http://www.w3.org/2000/svg" viewBox="0 0 32 44.39"><defs><style>.cls-1{fill:#212121;stroke-width:0px;}</style></defs><path class="cls-1" d="m16.73,42.66l1.89-3.08c1.24-2.03,3.92-4.71,5.95-5.95l3.08-1.89c2.03-1.24,2.31-3.64.63-5.32h0c-1.68-1.69-6.15-6.16-6.15-6.16-.62-.62-1.33-.97-2.04-1.07l-4.64-.38c-1.07.02-2.11.61-2.79,1.73l-1.89,3.08c-1.24,2.03-3.92,4.71-5.95,5.95l-3.08,1.89c-2.03,1.24-2.31,3.64-.63,5.32h0c1.68,1.69,6.15,6.16,6.15,6.16.63.63,1.37.99,2.11,1.08l4.13.34h0c1.23.16,2.46-.43,3.24-1.7Zm-2.34-20.36c.54-.54,1.43-.54,1.97,0s.54,1.43,0,1.97c-.54.54-1.43.54-1.97,0-.54-.54-.54-1.43,0-1.97Zm-10.73,14.02c-.59-.59-.59-1.55,0-2.15.59-.59,1.55-.59,2.15,0,.59.59.59,1.55,0,2.15-.59.59-1.55.59-2.15,0Zm5.37-3.16c-.56-.56-.56-1.47,0-2.03.56-.56,1.47-.56,2.03,0,.56.56.56,1.47,0,2.03-.56.56-1.47.56-2.03,0Zm5.69-6.41c.35-.35.91-.35,1.25,0,.35.35.35.91,0,1.25-.35.35-.91.35-1.25,0-.35-.35-.35-.91,0-1.25Zm-5.71,11.82c-.41-.41-.41-1.08,0-1.49.41-.41,1.08-.41,1.49,0,.41.41.41,1.08,0,1.49-.41.41-1.08.41-1.49,0Zm10.63-12.12c.41-.41,1.08-.41,1.49,0,.41.41.41,1.08,0,1.49-.41.41-1.08.41-1.49,0s-.41-1.08,0-1.49Zm-3.36,6.34c-.41-.41-.41-1.08,0-1.49.41-.41,1.08-.41,1.49,0,.41.41.41,1.08,0,1.49-.41.41-1.08.41-1.49,0Zm1.02,5.99l-1.89,3.08s-.04.06-.06.09l-2.39-.2,1.51-2.5c1.24-2.03,3.92-4.71,5.95-5.95l3.08-1.89c2.03-1.24,2.31-3.64.63-5.32h0c-1.68-1.69-3.06-3.07-3.07-3.08,0,0-.89-.89-2.11-2.11-.12-.12-.33-.27-.46-.4l1.84.17,6.85,6.85c.47.47.7,1.02.64,1.55-.06.53-.41,1.01-.98,1.36l-3.08,1.89c-2.25,1.38-5.08,4.22-6.46,6.46Z"/><path class="cls-1" d="m27.41,9.18c-2.53,0-4.59-2.06-4.59-4.59S24.88,0,27.41,0s4.59,2.06,4.59,4.59-2.06,4.59-4.59,4.59Zm0-8.04c-1.9,0-3.45,1.55-3.45,3.45s1.55,3.45,3.45,3.45,3.45-1.55,3.45-3.45-1.55-3.45-3.45-3.45Z"/><path class="cls-1" d="m25.88,5.17c-.32,0-.58-.26-.58-.58,0-1.16.94-2.1,2.1-2.1.32,0,.58.26.58.58s-.26.58-.58.58c-.52,0-.95.43-.95.95,0,.32-.26.58-.58.58Z"/><path class="cls-1" d="m19.93,17.22c-1.91,0-3.47-1.56-3.47-3.47s1.56-3.47,3.47-3.47,3.47,1.56,3.47,3.47-1.56,3.47-3.47,3.47Zm0-5.8c-1.29,0-2.33,1.05-2.33,2.33s1.05,2.33,2.33,2.33,2.33-1.05,2.33-2.33-1.05-2.33-2.33-2.33Z"/><path class="cls-1" d="m18.82,14.16c-.23,0-.42-.19-.42-.42,0-.84.68-1.52,1.52-1.52.23,0,.42.19.42.42s-.19.42-.42.42c-.38,0-.68.31-.68.68,0,.23-.19.42-.42.42Z"/><path class="cls-1" d="m4.76,24.17c-1.54,0-2.8-1.26-2.8-2.8s1.26-2.8,2.8-2.8,2.8,1.26,2.8,2.8-1.26,2.8-2.8,2.8Zm0-4.46c-.92,0-1.66.74-1.66,1.66s.74,1.66,1.66,1.66,1.66-.74,1.66-1.66-.74-1.66-1.66-1.66Z"/><path class="cls-1" d="m3.91,21.69c-.18,0-.32-.14-.32-.32,0-.64.52-1.17,1.17-1.17.18,0,.32.14.32.32s-.14.32-.32.32c-.29,0-.53.24-.53.53,0,.18-.14.32-.32.32Z"/><path class="cls-1" d="m8.69,13.61c-2.11,0-3.82-1.71-3.82-3.82s1.71-3.82,3.82-3.82,3.82,1.71,3.82,3.82-1.71,3.82-3.82,3.82Zm0-6.5c-1.48,0-2.68,1.2-2.68,2.68s1.2,2.68,2.68,2.68,2.68-1.2,2.68-2.68-1.2-2.68-2.68-2.68Z"/><path class="cls-1" d="m7.46,10.26c-.26,0-.47-.21-.47-.47,0-.94.76-1.7,1.7-1.7.26,0,.47.21.47.47s-.21.47-.47.47c-.42,0-.77.34-.77.77,0,.26-.21.47-.47.47Z"/></svg>