<?xml version="1.0" encoding="UTF-8"?><svg id="_レイヤー_1" xmlns="http://www.w3.org/2000/svg" viewBox="0 0 90.71 72.75"><defs><style>.cls-1{fill:#212121;stroke-width:0px;}</style></defs><path class="cls-1" d="m29.33,42.66c-1.54,0-2.63,1.47-2.63,3.75,0,2.09.95,3.58,2.61,3.58,1.16,0,2.32-.89,2.32-2.67v-2.09c0-1.41-.93-2.57-2.3-2.57Z"/><path class="cls-1" d="m52.37,24.21c-5.96,2.11-15.08,3.21-23.86,3.21-11.6,0-23.76-1.92-28.5-5.53v43.99c0,2.87,10.84,6.87,28.5,6.87s28.5-4,28.5-6.87v-28.12c-1.8-3.54-3.17-7.01-3.98-10.19-.3-1.18-.52-2.31-.66-3.36ZM7.38,51.97c-1.12,0-2.19-.29-2.9-.72l.5-1.66c.54.33,1.53.71,2.44.71,1.2,0,1.78-.58,1.78-1.39s-.45-1.26-1.72-1.8c-1.89-.76-2.73-1.82-2.73-3.06,0-1.78,1.45-3.19,3.69-3.19,1.05,0,1.95.29,2.53.62l-.5,1.62c-.43-.27-1.16-.6-2.03-.6-1.01,0-1.54.58-1.54,1.3s.48,1.1,1.78,1.66c1.76.72,2.69,1.68,2.69,3.23,0,2.05-1.56,3.27-3.98,3.27Zm12.95-.21l-.12-1.55h-.06c-.44.73-1.49,1.76-3.21,1.76-1.83,0-3.44-1.14-3.44-4.54v-6.34h2.24v5.97c0,1.84.52,3.05,1.99,3.05,1.03,0,2.22-.81,2.22-2.42v-6.59h2.24v7.6c0,1.2.06,2.2.1,3.05h-1.97Zm13.55-7.58v6.07c0,2.13-.17,6.05-5.22,6.05-1.24,0-2.53-.27-3.36-.77l.5-1.74c.66.39,1.68.76,2.88.76,1.74,0,2.98-.97,2.98-3.38v-1.03h-.04c-.54.91-1.58,1.57-2.96,1.57-2.51,0-4.23-2.22-4.23-5.2,0-3.61,2.19-5.62,4.5-5.62,1.59,0,2.47.81,2.92,1.66h.04l.1-1.43h1.99c-.06.75-.1,1.64-.1,3.07Zm8.45,7.58l-.15-1.24h-.06c-.6.83-1.64,1.45-2.98,1.45-1.99,0-3.13-1.47-3.13-3.11,0-2.65,2.3-3.96,5.96-3.96,0-.79,0-2.38-2.15-2.38-.95,0-1.91.29-2.59.73l-.46-1.49c.75-.48,2.01-.89,3.44-.89,3.13,0,4,2.07,4,4.33v4.02c0,.91.02,1.84.15,2.53h-2.03Zm10.05-8.68c-.19-.04-.4-.06-.66-.06-1.51,0-2.45,1.24-2.45,3.09v5.64h-2.24v-7.4c0-1.24-.02-2.26-.08-3.25h1.95l.08,1.95h.08c.48-1.35,1.6-2.18,2.76-2.18.21,0,.37.02.56.06v2.15Z"/><path class="cls-1" d="m38.22,48.63c0,1.18.74,1.7,1.57,1.7,1.22,0,2.22-.93,2.22-2.17v-1.76c-1.76,0-3.79.33-3.79,2.22Z"/><path class="cls-1" d="m5.1,22.2c1.02-.78,3.36-2.1,6.91-1.19,0,0,1.25-1.36,2.83-.57,2.38-1.7,8.16-2.61,12.13-.23,2.15-2.04,6.01-.57,6.01-.57,0,0,6.12-1.02,7.71.11.25.18.55.3.89.4.44-2.07,1.04-4.72,1.8-7.46-4.15-.66-9.15-1.09-14.87-1.09C10.84,11.62,0,15.62,0,18.49c0,1.17,1.79,2.52,5.1,3.71Z"/><path class="cls-1" d="m47.92,21.18c.78.53,1.52,1.23,1.98,1.67.84-.24,1.61-.5,2.31-.76-.07-2.81.54-5,1.83-6.43-.8-.39-1.75-.77-2.86-1.14-1.12,2.47-2.29,4.81-3.26,6.66Z"/><path class="cls-1" d="m44.46,23.27c.47-.85.97-1.77,1.47-2.73,1.09-2.08,2.21-4.35,3.24-6.61.14-.32.29-.64.43-.96.14-.31.28-.62.41-.93,2.18-5.04,3.67-9.69,2.98-11.51-.12-.32-.28-.41-.43-.46-.12-.04-.24-.06-.36-.06-1.42,0-3.87,3.53-6.23,11.09-.1.32-.2.64-.29.97-.1.33-.19.65-.29.99-.61,2.17-1.22,4.63-1.78,7.38-.17.82-.34,1.66-.5,2.53l1.34.3Z"/><path class="cls-1" d="m82.91,37.3c-.76.42-1.63.66-2.56.66-2.92,0-5.3-2.38-5.3-5.3,0-1.51.64-2.88,1.66-3.84-6.52-7.73-13.71-12.93-18.29-12.93-.17,0-.33.01-.49.03-.42.04-.81.13-1.16.28-.24.1-.46.21-.67.35-.09.06-.17.14-.26.21-1,.87-1.54,2.39-1.6,4.44-.01.37,0,.75.01,1.15.02.35.04.7.08,1.07.12,1.12.35,2.34.68,3.65.47,1.84,1.15,3.79,1.98,5.79.32.77.66,1.54,1.03,2.32.33.69.67,1.39,1.03,2.09,1.44,2.79,3.15,5.64,5.12,8.44,7.38,10.53,16.78,18.18,22.34,18.18.92,0,1.7-.22,2.32-.65,3.69-2.59,2.03-13.32-5.93-25.93Z"/><path class="cls-1" d="m80.35,35.9c.52,0,1-.13,1.43-.35.31-.16.6-.35.85-.59.26-.26.47-.57.63-.9.2-.42.33-.89.33-1.39,0-1.78-1.45-3.23-3.24-3.23-.15,0-.29.02-.44.04-.37.05-.72.16-1.04.33-.31.16-.6.36-.84.61-.56.58-.92,1.37-.92,2.25,0,1.78,1.45,3.24,3.24,3.24Z"/></svg>