<?xml version="1.0" encoding="UTF-8"?><svg id="_10" xmlns="http://www.w3.org/2000/svg" viewBox="0 0 32 36.6"><defs><style>.cls-1{fill:#212121;stroke-width:0px;}</style></defs><polygon class="cls-1" points="8.53 13.99 9.69 24.24 10.4 24.18 9.65 13.89 8.53 13.99"/><polygon class="cls-1" points="15.64 24.21 16.36 24.21 16.65 13.94 15.35 13.94 15.64 24.21"/><polygon class="cls-1" points="21.6 24.18 22.31 24.24 23.44 13.99 22.37 13.89 21.6 24.18"/><polygon class="cls-1" points="27.07 31.49 27.07 31.49 27.07 31.49 27.07 31.49"/><polygon class="cls-1" points="31.71 3.07 31.71 3.08 31.71 3.08 31.71 3.07"/><path class="cls-1" d="m30.69,1.88h0c-.35-.25-.65-.36-.76-.4h0c-.1-.04-.25-.09-.43-.13h0c-2.17-.62-4.44-.96-6.72-1.14-2.28-.18-4.57-.21-6.77-.21C11.58,0,6.86.1,2.51,1.34h0c-.17.04-.31.09-.43.13h0c-.17.06-.65.24-1.13.69h0c-.24.23-.48.53-.66.91h0s0,0,0,0h0C.11,3.46,0,3.92,0,4.42c0,.4.07.83.21,1.29h0c.31,1.01.64,2.57.88,4.23h0c.25,1.67.43,3.44.48,4.92.01.38.03.77.06,1.18.07.8.17,1.63.35,2.45h0c.33,1.52.82,3.03,1.29,4.48.61,1.87,1.15,3.61,1.26,4.88h0s0,.09,0,.09v.03l.03.15h0c.03.15.05.51.05.89.02.64.03,1.54.3,2.49.27.93.83,1.93,1.88,2.67h0s.03.03.03.03c.55.43,1.19.77,1.9,1.06h0c.7.29,1.47.52,2.28.72h0c1.6.38,3.32.58,4.86.62l.03.02h.19c1.55-.05,3.28-.26,4.89-.64h0c1.6-.39,3.08-.93,4.17-1.77l.03-.02h0c.51-.37.92-.8,1.22-1.26.31-.46.52-.95.65-1.42.28-.95.29-1.85.3-2.48,0-.39.03-.75.05-.9v-.02s.01-.06.01-.06h0s0-.04,0-.04v-.13s.01-.02.01-.02h0c.11-1.27.66-3.01,1.26-4.88.47-1.45.96-2.96,1.29-4.48h0c.18-.82.28-1.65.35-2.45.03-.4.05-.8.06-1.18.06-1.48.23-3.25.48-4.92h0c.24-1.66.57-3.22.88-4.22h0c.14-.46.21-.89.21-1.29,0-.51-.11-.97-.29-1.35-.27-.58-.68-.96-1.02-1.2Zm-4.51,19.7c-.46,1.45-.94,2.88-1.25,4.21-2.47.7-5.42,1.12-8.59,1.12-3.49,0-6.71-.51-9.33-1.35-.31-1.28-.76-2.63-1.2-4.01-.24-.98-.49-1.86-.7-2.45-.06-.18-.13-.38-.19-.59-.27-1.09-.46-2.15-.48-3.16-.02-1.11-.11-2.42-.26-3.76,3.02.18,7.45.29,11.83.29s8.81-.11,11.83-.29c-.15,1.34-.24,2.65-.26,3.76-.02,1.01-.21,2.08-.49,3.18-.06.2-.12.4-.19.57-.21.58-.45,1.44-.69,2.4l-.02.08Zm-1.57,6.12c-.06.03-.1.1-.1.22-2.37.93-5.31,1.49-8.5,1.49-3.02,0-6.23-.5-8.57-1.34-.01-.16-.03-.32-.06-.47-.03-.32-.08-.64-.14-.98,2.63.78,5.75,1.23,9.11,1.23,3.05,0,5.91-.38,8.38-1.03-.04.26-.08.52-.1.77v.1Zm-17.13,1.39c2.39.8,5.5,1.27,8.52,1.27s6.02-.5,8.53-1.43c-.03,1.14-.05,2.3-1.07,2.97-1.18.98-4.29,1.76-7.46,1.84-3.17-.08-6.28-.86-7.46-1.84-.97-.64-1.04-1.72-1.06-2.8ZM27.94,10.63c-3,.18-7.54.29-11.94.29s-8.94-.11-11.95-.29c-.2-1.6-.48-3.19-.79-4.5,3.53.76,7.94,1.22,12.72,1.22s9.21-.46,12.74-1.22c-.31,1.3-.58,2.9-.79,4.5Zm1.03-6.48c.24.09.19.36.12.61-3.26.94-7.93,1.53-13.11,1.53s-9.83-.59-13.09-1.52c-.07-.25-.12-.53.12-.62h.01s.04-.02.04-.02c4.03-1.2,8.71-1.29,12.92-1.29s8.89.09,12.92,1.29h.04s.01.02.01.02Z"/></svg>