<?xml version="1.0" encoding="UTF-8"?><svg id="_2" xmlns="http://www.w3.org/2000/svg" viewBox="0 0 32 32.61"><defs><style>.cls-1{fill:#212121;stroke-width:0px;}</style></defs><polygon class="cls-1" points="28.47 14.04 18.57 4.14 17.37 5.34 27.27 15.24 28.47 14.04"/><polygon class="cls-1" points="15.81 6.9 25.71 16.8 26.91 15.6 17.01 5.7 15.81 6.9"/><path class="cls-1" d="m31.59,14.83l-.42-.42c-.55-.55-1.43-.55-1.98,0l-3.64,3.64c-.76.76-1.63,1.33-2.57,1.71-1.4.57-2.94.71-4.41.43-.73-.14-1.45-.39-2.13-.75-.67-.35-1.31-.81-1.88-1.39-.76-.76-1.33-1.63-1.71-2.57-.57-1.4-.71-2.94-.43-4.41.14-.73.39-1.45.75-2.13.35-.68.81-1.31,1.39-1.88l3.64-3.64c.55-.55.55-1.43,0-1.98l-.42-.42c-.55-.55-1.43-.55-1.98,0l-.28.28-.49-.49c-.27-.27-.59-.47-.92-.61C13.61,0,13.07-.05,12.54.05c-.52.1-1.03.36-1.43.76-.27.27-.47.58-.61.92-.2.5-.25,1.05-.15,1.58.1.52.36,1.03.76,1.43l.51.51c-.82.94-1.45,1.99-1.9,3.1-.82,2.02-1.02,4.22-.61,6.33.16.82.41,1.62.75,2.39L1.18,25.75c-.39.39-.69.85-.88,1.33C0,27.81-.07,28.6.07,29.36c.07.38.2.75.39,1.1.19.35.42.68.72.97.39.39.85.69,1.33.88.73.29,1.52.37,2.28.22.38-.07.75-.2,1.1-.39.35-.18.68-.42.97-.72l8.67-8.67c.11.05.21.09.32.14,2.02.82,4.22,1.02,6.33.61,1.06-.2,2.09-.56,3.06-1.07.97-.51,1.89-1.18,2.7-1.99l3.64-3.64c.55-.55.55-1.43,0-1.98ZM12.41,2.65c.03-.13.08-.25.19-.35.07-.07.14-.12.22-.15.12-.05.26-.06.38-.04.13.03.25.08.35.19l.49.49-.96.96-.49-.49c-.07-.07-.12-.14-.15-.22-.05-.12-.06-.26-.04-.39Zm-7.98,26.89c-.37.37-.98.37-1.35,0-.37-.37-.37-.98,0-1.35.37-.37.98-.37,1.35,0,.37.37.37.98,0,1.35Z"/></svg>