<?xml version="1.0" encoding="UTF-8"?><svg id="_10" xmlns="http://www.w3.org/2000/svg" viewBox="0 0 32 22.49"><defs><style>.cls-1{fill:#212121;stroke-width:0px;}</style></defs><path class="cls-1" d="m31.98,7.03s0-.07,0,0h0Z"/><path class="cls-1" d="m12.91,19.98s-.01,0-.02,0c0,0,.01,0,.02,0,0,0,0,0,0,0Z"/><path class="cls-1" d="m31.98,7.03c0-.15-.02-.29-.03-.44-.4-2.17-2.53-3.53-4.39-4.39-2.15-.99-4.49-1.54-6.83-1.86C15.64-.34,10.03-.08,5.22,1.85,3.1,2.7.47,4.13.02,6.59c-.1,1.48.29,3.03.75,4.43.53,1.61,1.33,3.12,2.3,4.51,1.86,2.68,4.34,4.84,7.41,6,.19.07.38.13.57.19.05.02.1.03.14.05.64.21,1.29.37,1.94.49.03,0,.06,0,.09.01.41.07.82.13,1.23.17.05,0,.09,0,.14.01.71.06,1.43.07,2.14.04.02,0,.05,0,.07,0,.77-.04,1.54-.15,2.29-.3.08-.02.16-.03.24-.05.22-.05.44-.1.66-.16.08-.02.16-.05.23-.07.39-.11.77-.24,1.15-.38.1-.04.19-.07.29-.11.2-.08.39-.16.58-.25.1-.04.2-.09.3-.14.64-.3,1.26-.65,1.86-1.04.07-.04.13-.09.2-.13.63-.42,1.22-.9,1.79-1.41.03-.03.06-.05.09-.08.19-.18.38-.36.56-.55,0,0,0,0,0,0,.19-.2.38-.39.56-.6,1.22-1.41,2.25-2.98,3.01-4.69.39-.88.71-1.79.94-2.72.12-.48.22-.97.29-1.47.06-.38.22-.9.14-1.29Zm-20.04,12.7c.06.02.79.21.95.25-2.62-.7-4.84-2.21-6.58-4.19-.86-.99-1.62-2.13-2.25-3.39.15-.14,0,0,.18-.17.42.25.87.48,1.32.67.22.09.44.18.66.27.17.07.67.14.78.31.86,1.41,1.93,2.68,3.11,3.82.16.15.32.29.48.44,0,0,0,0,0,0,.27.24.54.48.83.7.07.05.13.11.2.16.12.1.24.2.37.29.32.23.7.41,1.01.66.16.13.27.53-.08.44.02,0,.02,0,0,0-.68-.18-.94-.25-.97-.26t0,0ZM17.03,2.43c1.14.03,2.27.12,3.4.28.09.01.19.03.28.04.36.05.72.11,1.08.18.02,0,.04,0,.05.01.39.07.77.16,1.16.25,1.4.34,2.85.8,4.06,1.62h0c.71.48,1.53,1.27,1.38,2.22-.12,1.01-1.12,1.71-1.94,2.16-.84.46-1.76.79-2.68,1.05-1.97.55-4,.84-6.04.94-2.09.1-4.2.04-6.27-.25-2.01-.28-4.08-.72-5.89-1.67-.89-.47-2.01-1.22-2.08-2.33-.06-.92.69-1.64,1.39-2.11h0c2.35-1.6,5.53-2.05,8.29-2.28,1.19-.1,2.4-.14,3.6-.11.08,0,.15,0,.23,0Z"/></svg>