<?xml version="1.0" encoding="UTF-8"?><svg id="contents" xmlns="http://www.w3.org/2000/svg" viewBox="0 0 32 27.55"><defs><style>.cls-1{fill:#212121;stroke-width:0px;}</style></defs><path class="cls-1" d="m31.12,0H.88c-.48,0-.88.39-.88.88v22.2c0,.48.39.88.88.88h30.24c.48,0,.88-.39.88-.88V.88c0-.48-.39-.88-.88-.88Zm-3.27,22.67c-1.05,0-1.9-.85-1.9-1.9,0-.34.09-.66.25-.94l2.6,2.6c-.28.16-.6.25-.94.25Zm1.66-.96l-2.6-2.6c.28-.16.6-.25.94-.25,1.05,0,1.9.85,1.9,1.9,0,.34-.09.66-.25.94Zm.81-4.9c0,.37-.3.68-.68.68H2.36c-.37,0-.68-.3-.68-.68V2.36c0-.37.3-.68.68-.68h27.27c.37,0,.68.3.68.68v14.44Z"/><path class="cls-1" d="m2.51,25.04v1.59c0,.5.41.91.91.91h1.46c.5,0,.91-.41.91-.91v-1.59h-3.29Z"/><path class="cls-1" d="m26.2,25.04v1.59c0,.5.41.91.91.91h1.46c.5,0,.91-.41.91-.91v-1.59h-3.29Z"/><path class="cls-1" d="m24.18,4.18c0-.79-3.66-1.43-8.18-1.43s-7.98.61-8.16,1.37c-.01.02-.02.04-.02.08v1.11c0,.22.18.41.41.41h15.54c.22,0,.41-.18.41-.41v-1.11s0,0,0-.01c0,0,0,0,0,0Z"/><rect class="cls-1" x="3.04" y="6.71" width="25.92" height="9.42" rx=".74" ry=".74"/></svg>