<?xml version="1.0" encoding="UTF-8"?><svg id="_2" xmlns="http://www.w3.org/2000/svg" viewBox="0 0 32 32"><defs><style>.cls-1{fill:#212121;stroke-width:0px;}</style></defs><path class="cls-1" d="m30.16,1.84c-2.71-2.71-8.48-2.69-13.02,1.85-2.6,2.6-2.96,6.09-2.85,7.89.11,1.76.35,3.02-.42,3.79L.61,27.53C.22,27.9,0,28.41,0,28.94c0,.53.2,1.05.58,1.42l1.06,1.06c.38.38.89.59,1.42.58.53,0,1.04-.22,1.41-.61l12.16-13.27c.77-.77,2.03-.53,3.79-.42,1.8.11,5.29-.25,7.89-2.85,4.54-4.54,4.56-10.31,1.85-13.02Z"/></svg>