<?xml version="1.0" encoding="UTF-8"?><svg id="contents" xmlns="http://www.w3.org/2000/svg" viewBox="0 0 32 82.62"><defs><style>.cls-1{fill:#212121;stroke-width:0px;}</style></defs><path class="cls-1" d="m19.67,2.81c0-1.55-1.64-2.81-3.67-2.81s-3.67,1.26-3.67,2.81c0,.75.39,1.43,1.02,1.94v1.68h5.31v-1.68c.63-.5,1.02-1.19,1.02-1.94Z"/><path class="cls-1" d="m24.04,16.8v-6.97c0-1.11-.91-2.01-2.01-2.01h-12.07c-1.11,0-2.01.9-2.01,2.01v6.97h16.09Z"/><path class="cls-1" d="m25.54,32.4c1.38-2,2.19-4.19,2.19-5.97,0-1.65-1.19-4.37-3.14-6.78H7.41c-1.95,2.4-3.14,5.13-3.14,6.78,0,1.78.81,3.97,2.19,5.97C1.49,40.99,0,56.12,0,66.8c0,15.7,7.16,15.82,16,15.82h0c8.84,0,16-.12,16-15.82,0-10.68-1.49-25.81-6.46-34.4Zm-9.54,39.88c-5.31,0-9.61-6.55-9.61-14.64s4.3-14.64,9.61-14.64,9.61,6.55,9.61,14.64-4.3,14.64-9.61,14.64Z"/></svg>