<?xml version="1.0" encoding="UTF-8"?><svg id="_レイヤー_1" xmlns="http://www.w3.org/2000/svg" viewBox="0 0 32 83.85"><defs><style>.cls-1,.cls-2{stroke-width:0px;}.cls-2{fill:#fff;}</style></defs><rect class="cls-2" x="3.81" y="54.46" width="24.45" height="25.91"/><rect class="cls-2" x="11.91" y="2.04" width="8.07" height="4.84"/><path class="cls-1" d="m3.02,48.73c-1.38-1.15-2.39-2.44-2.65-4.13-.16-1.03-.1-2.1-.04-3.14.26-4.71.47-9.42.87-14.12.23-2.77.64-5.54,1.2-8.26.71-3.45,3.03-5.47,6.38-6.36.66-.17,1.33-.27,2.07-.41v-2.88c-.77,0-1.5-.75-1.51-1.6,0-.81.28-1.62,1.07-1.64.01-.72.02-.25.01-.66-.01-1.35,0-2.44,0-3.79,0-1.15.56-1.72,1.71-1.73,2.59-.01,5.19,0,7.78,0,1.17,0,1.74.58,1.76,1.77.02,1.37.01,3.68.01,4.43.8,0,1.1.95,1.1,1.68-.03.78-.66,1.58-1.58,1.56v2.67c1.49.51,2.93.83,4.22,1.47,2.39,1.19,3.94,3.16,4.25,5.86.63,5.58,1.19,11.17,1.73,16.77.2,2.02.25,4.05.4,6.07.2,2.75-.4,4.21-2.7,6.42.4.35.82.66,1.18,1.05,1.15,1.23,1.73,2.68,1.72,4.38-.02,7.71,0,15.41,0,23.12,0,3.84-2.61,6.55-6.45,6.57-6.34.04-12.67.04-19.01,0-3.86-.03-6.51-2.77-6.51-6.63,0-7.31.04-14.63-.02-21.94-.02-2.67.63-4.93,3.02-6.52Zm2.67,7.4v21.97h20.68v-21.97H5.69ZM19.17,2.52h-6.22v3.54h6.22v-3.54Z"/><path class="cls-1" d="m13.48,65.07l1.64-3.28c-2.14.42-3.62.68-4.45.78l-.7-2.97c2.97-.21,5.44-.62,7.42-1.25l1.64,1.88c-1.25,2.34-2.14,4.06-2.66,5.16.99.16,2.11.5,3.36,1.02.31-.94.55-2.13.7-3.59l2.89.94c-.26,1.51-.57,2.81-.94,3.91.94.62,1.88,1.28,2.81,1.95l-1.95,2.58c-.47-.47-1.12-1.02-1.95-1.64-1.04,1.93-2.42,3.65-4.14,5.16l-2.27-2.11c1.88-1.61,3.2-3.12,3.98-4.53-1.2-.62-2.45-.99-3.75-1.09-.73,1.41-1.3,2.45-1.72,3.12-.89,1.36-1.69,2.16-2.42,2.42-1.2.47-2.27.23-3.2-.7-.62-.62-.89-1.46-.78-2.5.1-1.09.49-2,1.17-2.73,1.41-1.51,3.18-2.34,5.31-2.5Zm-1.25,2.97c-.62.05-1.2.26-1.72.62-.57.42-.91.89-1.02,1.41-.05.21,0,.42.16.62.16.21.36.26.62.16.52-.21,1.17-1.14,1.95-2.81Z"/></svg>