<?xml version="1.0" encoding="UTF-8"?><svg id="_2" xmlns="http://www.w3.org/2000/svg" viewBox="0 0 32 54.13"><defs><style>.cls-1{fill:#212121;stroke-width:0px;}</style></defs><path class="cls-1" d="m20.2,44.98h-8.41l-.52-2.05H0v6.66C0,52.1,2.03,54.13,4.54,54.13h22.93c2.5,0,4.54-2.03,4.54-4.54v-6.66h-11.28l-.52,2.05Z"/><polygon class="cls-1" points="20.2 32.18 11.8 32.18 11.28 30.13 0 30.13 0 41.33 32 41.33 32 30.13 20.72 30.13 20.2 32.18"/><path class="cls-1" d="m27.46,0H4.54C2.03,0,0,2.03,0,4.54v24h32V4.54c0-2.5-2.03-4.54-4.54-4.54ZM6.9,17.2c0,.52-.42.93-.93.93s-.93-.42-.93-.93v-7.2c0-.52.42-.93.93-.93s.93.42.93.93v7.2Z"/></svg>