<?xml version="1.0" encoding="UTF-8"?><svg id="contents" xmlns="http://www.w3.org/2000/svg" viewBox="0 0 32 18.99"><defs><style>.cls-1{fill:#212121;stroke-width:0px;}</style></defs><path class="cls-1" d="m30.56,2.88H1.44c-.8,0-1.44-.64-1.44-1.44S.64,0,1.44,0h29.12c.8,0,1.44.64,1.44,1.44s-.64,1.44-1.44,1.44Z"/><path class="cls-1" d="m1.48,3.97c.37,8.36,6.73,15.02,14.52,15.02s14.15-6.66,14.52-15.02H1.48Zm19.13,1.31c.76,0,1.37.61,1.37,1.37s-.61,1.37-1.37,1.37-1.37-.61-1.37-1.37.61-1.37,1.37-1.37Zm-4.61,0c.76,0,1.37.61,1.37,1.37s-.61,1.37-1.37,1.37-1.37-.61-1.37-1.37.61-1.37,1.37-1.37Zm-4.61,0c.76,0,1.37.61,1.37,1.37s-.61,1.37-1.37,1.37-1.37-.61-1.37-1.37.61-1.37,1.37-1.37Zm-5.98,1.37c0-.76.61-1.37,1.37-1.37s1.37.61,1.37,1.37-.61,1.37-1.37,1.37-1.37-.61-1.37-1.37Zm2.3,4.23c0-.76.61-1.37,1.37-1.37s1.37.61,1.37,1.37-.61,1.37-1.37,1.37-1.37-.61-1.37-1.37Zm3.68,5.66c-.76,0-1.37-.61-1.37-1.37s.61-1.37,1.37-1.37,1.37.61,1.37,1.37-.61,1.37-1.37,1.37Zm.93-5.66c0-.76.61-1.37,1.37-1.37s1.37.61,1.37,1.37-.61,1.37-1.37,1.37-1.37-.61-1.37-1.37Zm3.68,5.66c-.76,0-1.37-.61-1.37-1.37s.61-1.37,1.37-1.37,1.37.61,1.37,1.37-.61,1.37-1.37,1.37Zm.93-5.66c0-.76.61-1.37,1.37-1.37s1.37.61,1.37,1.37-.61,1.37-1.37,1.37-1.37-.61-1.37-1.37Zm3.68,5.66c-.76,0-1.37-.61-1.37-1.37s.61-1.37,1.37-1.37,1.37.61,1.37,1.37-.61,1.37-1.37,1.37Zm2.3-4.29c-.76,0-1.37-.61-1.37-1.37s.61-1.37,1.37-1.37,1.37.61,1.37,1.37-.61,1.37-1.37,1.37Zm2.3-4.23c-.76,0-1.37-.61-1.37-1.37s.61-1.37,1.37-1.37,1.37.61,1.37,1.37-.61,1.37-1.37,1.37Z"/></svg>