<?xml version="1.0" encoding="UTF-8"?><svg id="_10" xmlns="http://www.w3.org/2000/svg" viewBox="0 0 32 31.21"><defs><style>.cls-1{fill:#212121;stroke-width:0px;}</style></defs><path class="cls-1" d="m28.75,26.36s0-.01,0-.01h0c-3.41,1.93-7.69,2.91-12.76,2.91-4.09,0-7.66-.65-10.68-1.91-.72-.3-1.42-.63-2.07-1,0,0,0,0,0,.01,0,0-.01,0-.02,0,1.03,2,4.03,4.86,12.76,4.86h0c7.68,0,10.92-2.22,12.29-4.11.19-.26.35-.51.47-.74,0,0,0,0-.01,0Z"/><path class="cls-1" d="m19.69,15.81v-3.14s0-.03-.01-.05c-.02-.14-.14-.25-.29-.26,0,0-.01,0-.02,0h-6.75s-.01,0-.02,0c-.15,0-.26.12-.29.26,0,.02,0,.03,0,.05v3.14h7.38Z"/><path class="cls-1" d="m2.99,10.69l.25.63c.12.31.25.61.38.89.2.43.41.84.63,1.22,3.42,5.95,9.16,5.95,11.76,5.95s8.33,0,11.76-5.95c.22-.39.43-.79.63-1.22.13-.28.26-.58.38-.89l.25-.63.06-.16.21-.46h0s0,0,0,0v-3.52c0-.43-.1-.86-.28-1.25-.03-.07-.08-.13-.12-.2-.01-.02-.02-.04-.03-.05-.13-.21-.28-.42-.46-.6,0,0-.02-.02-.03-.02-.2-.2-.4-.38-.61-.55C23.94.66,18.98,0,16,0s-7.93.66-11.76,3.88c-.21.18-.41.36-.61.55,0,0-.02.01-.03.02-.26.25-.46.54-.61.85-.19.39-.28.81-.28,1.25v3.52h.03s.25.62.25.62Zm3.41,2.37c0-.71.61-1.28,1.36-1.28s1.36.58,1.36,1.28-.61,1.28-1.36,1.28c-.75,0-1.36-.58-1.36-1.28Zm13.39-3.35s0,.03,0,.05h-7.59c0-1.38,1.11-2.49,2.49-2.49h2.61c.69,0,1.31.28,1.76.73.44.44.71,1.04.72,1.71Zm-8.63,6.39v-3.43c0-.81.66-1.47,1.46-1.47h6.76c.8,0,1.46.66,1.46,1.47v3.43c0,.48-.39.86-.86.86h-7.96c-.48,0-.86-.39-.86-.86Zm13.08-1.76c-.75,0-1.36-.58-1.36-1.28s.61-1.28,1.36-1.28,1.36.58,1.36,1.28-.61,1.28-1.36,1.28Z"/><path class="cls-1" d="m29.3,14.74v-.02c-1.48,2.11-3.38,3.68-5.66,4.68-.68.3-1.35.53-2.01.71-.26,1.11-2.69,2.32-5.63,2.32-2.39,0-4.44-.8-5.27-1.69-.06-.07-.12-.14-.17-.21-.1-.14-.16-.28-.19-.41-.66-.19-1.34-.41-2.01-.71-1.85-.81-3.44-2-4.76-3.54-.31-.36-.61-.73-.88-1.13h0s0,0,0,0v9.73h0v.02c0,.26.11.52.29.71.06.07.14.13.22.18,3.21,1.95,7.29,2.96,12.16,3.05.21,0,.43.01.63.01s.42,0,.63-.01c4.86-.08,8.95-1.1,12.16-3.05.08-.05.16-.11.22-.18h0c.18-.19.28-.44.28-.7v-9.75s0,0,0,.01Z"/><path class="cls-1" d="m31.34,9.07c-.05-.06-.1-.1-.16-.15-.23-.17-.52-.22-.8-.12-.35.12-.57.44-.57.81v2.9c0,.37.22.69.57.81.1.04.2.05.3.05.16,0,.31-.05.45-.13.03-.02.06-.03.08-.05,0,0,0,0,0,0,.05-.04.09-.08.13-.13.42-.51.66-1.24.66-2,0-.76-.24-1.49-.66-2Z"/><path class="cls-1" d="m1.63,8.8c-.28-.1-.57-.05-.79.11-.06.04-.12.09-.17.15-.31.38-.53.89-.62,1.44-.03.18-.04.37-.04.56,0,.76.24,1.49.66,2,.04.05.09.09.13.13,0,0,0,0,0,0,.03.02.05.03.08.05.14.08.29.13.45.13.1,0,.2-.02.3-.05.35-.12.57-.44.57-.81v-2.9c0-.37-.22-.69-.57-.81Z"/></svg>