<?xml version="1.0" encoding="utf-8"?>
<!-- Generator: Adobe Illustrator 27.9.4, SVG Export Plug-In . SVG Version: 9.03 Build 54784)  -->
<svg version="1.1" id="_x32_" xmlns="http://www.w3.org/2000/svg" xmlns:xlink="http://www.w3.org/1999/xlink" x="0px" y="0px"
	 viewBox="0 0 32 26.4" style="enable-background:new 0 0 32 26.4;" xml:space="preserve">
<style type="text/css">
	.st0{fill:#212121;}
</style>
<g>
	<path class="st0" d="M27.2,6.6H23l4.2-3.1L22.4,0l-4.7,3.5l4.1,3.1H10.1l4.2-3.1L9.6,0L4.9,3.5L9,6.6H4.8C2.1,6.6,0,8.8,0,11.4V23
		c0,0.5,0.4,0.9,0.9,0.9h2.6c0,0.1,0,0.2,0,0.3c0,1.2,1,2.2,2.2,2.2s2.2-1,2.2-2.2c0-0.1,0-0.2,0-0.3H9c0,0.1,0,0.2,0,0.3
		c0,1.2,1,2.2,2.2,2.2s2.2-1,2.2-2.2c0-0.1,0-0.2,0-0.3h5.4c0,0.1,0,0.2,0,0.3c0,1.2,1,2.2,2.2,2.2c1.2,0,2.2-1,2.2-2.2
		c0-0.1,0-0.2,0-0.3h1.3c0,0.1,0,0.2,0,0.3c0,1.2,1,2.2,2.2,2.2c1.2,0,2.2-1,2.2-2.2c0-0.1,0-0.2,0-0.3h2.6c0.5,0,0.9-0.4,0.9-0.9
		V11.4C32,8.8,29.9,6.6,27.2,6.6z M9.4,20.4H5.5v-7.8h3.9L9.4,20.4L9.4,20.4z M9.6,5.4L7,3.5l2.5-1.9l2.5,1.9L9.6,5.4z M18,16.5
		h-4.5v-3.9H18V16.5z M19.9,3.5l2.5-1.9L25,3.5l-2.5,1.9L19.9,3.5z M26.5,16.5H22v-3.9h4.5V16.5z"/>
</g>
</svg>
