<?xml version="1.0" encoding="utf-8"?>
<!-- Generator: Adobe Illustrator 27.9.4, SVG Export Plug-In . SVG Version: 9.03 Build 54784)  -->
<svg version="1.1" id="_x31_0" xmlns="http://www.w3.org/2000/svg" xmlns:xlink="http://www.w3.org/1999/xlink" x="0px" y="0px"
	 viewBox="0 0 32 32" style="enable-background:new 0 0 32 32;" xml:space="preserve">
<style type="text/css">
	.st0{fill:#212121;}
</style>
<g>
	<path class="st0" d="M21.2,22.4l1.5,1.5c0.4-0.3,0.8-0.7,1.1-1.1l-1.5-1.5C22,21.7,21.7,22,21.2,22.4z"/>
	<path class="st0" d="M5.6,15.2c0,0.3,0,0.5,0,0.8c0,0.3,0,0.5,0,0.8h2.2c0-0.3-0.1-0.5-0.1-0.8s0-0.5,0.1-0.8H5.6z"/>
	<path class="st0" d="M9.6,21.2l-1.5,1.5c0.3,0.4,0.7,0.8,1.1,1.1l1.5-1.5C10.3,22,10,21.7,9.6,21.2z"/>
	<path class="st0" d="M26.4,15.2h-2.2c0,0.3,0.1,0.5,0.1,0.8s0,0.5-0.1,0.8h2.2c0-0.3,0-0.5,0-0.8C26.4,15.7,26.4,15.5,26.4,15.2z"
		/>
	<path class="st0" d="M16.8,7.8V5.6c-0.3,0-0.5,0-0.8,0c-0.3,0-0.5,0-0.8,0v2.2c0.3,0,0.5-0.1,0.8-0.1S16.5,7.7,16.8,7.8z"/>
	<path class="st0" d="M15.2,24.2v2.2c0.3,0,0.5,0,0.8,0c0.3,0,0.5,0,0.8,0v-2.2c-0.3,0-0.5,0.1-0.8,0.1S15.5,24.3,15.2,24.2z"/>
	<path class="st0" d="M10.8,9.6L9.2,8.1C8.8,8.4,8.4,8.8,8.1,9.2l1.5,1.5C10,10.3,10.3,10,10.8,9.6z"/>
	<path class="st0" d="M16,0C7.2,0,0,7.2,0,16c0,8.8,7.2,16,16,16c8.8,0,16-7.2,16-16C32,7.2,24.8,0,16,0z M16,28C9.4,28,4,22.6,4,16
		C4,9.4,9.4,4,16,4c6.6,0,12,5.4,12,12C28,22.6,22.6,28,16,28z"/>
	<polygon class="st0" points="22,8.6 16.3,15.1 18.5,17.1 24.2,10.6 	"/>
	<polygon class="st0" points="9.5,14.4 15.9,20.2 17.9,18 11.5,12.2 	"/>
</g>
</svg>
