<?xml version="1.0" encoding="UTF-8"?><svg id="_10" xmlns="http://www.w3.org/2000/svg" viewBox="0 0 32 38.81"><defs><style>.cls-1{fill:#212121;stroke-width:0px;}</style></defs><path class="cls-1" d="m4.47,38.81h23.07c2.46,0,4.47-2,4.47-4.47V4.47c0-2.46-2-4.47-4.47-4.47H4.47C2,0,0,2,0,4.47v29.88c0,2.46,2,4.47,4.47,4.47ZM14.59,4.42l-4.82,5.95c-.35.44-.29,1.08.15,1.43.19.15.41.23.64.23.3,0,.59-.13.79-.38l5.86-7.24h4.96s-9.8,11.44-9.8,11.44c-.37.43-.32,1.07.11,1.43.19.16.43.25.66.25.29,0,.57-.12.77-.36l10.95-12.76h2.68s.06.03.06.06v29.88s-.03.06-.06.06H4.47s-.06-.03-.06-.06V4.47s.03-.06.06-.06h10.12Z"/></svg>