<?xml version="1.0" encoding="UTF-8"?><svg id="_2" xmlns="http://www.w3.org/2000/svg" viewBox="0 0 32 30.5"><defs><style>.cls-1{fill:#212121;stroke-width:0px;}</style></defs><path class="cls-1" d="m0,14.25c0,1.09.74,2,1.74,2.26l2.94,9.73c-.35.45-.57,1-.57,1.61,0,1.45,1.18,2.63,2.63,2.63h12.96c1.45,0,2.63-1.18,2.63-2.63s-1.18-2.63-2.63-2.63H7.02s-2.87-9.48-2.87-9.48c.34-.41.54-.93.54-1.5,0-.2-.03-.39-.07-.57L13.1,4.65c.14.03.28.04.43.04.16,0,.31-.01.46-.05l1.43,1.49-2.02,2.05,5.99,9.2,3.06-3.11c.92.32,1.98.12,2.71-.62.73-.74.91-1.81.58-2.72l3.06-3.11L19.5,1.99l-2.3,2.34-1.39-1.44c.04-.17.07-.36.07-.54,0-1.29-1.05-2.35-2.35-2.35s-2.35,1.05-2.35,2.35c0,.2.03.39.07.57L2.78,11.95c-.14-.02-.28-.04-.43-.04-1.3,0-2.35,1.05-2.35,2.35ZM12.41,2.35c0-.62.5-1.12,1.12-1.12s1.12.5,1.12,1.12-.5,1.12-1.12,1.12-1.12-.5-1.12-1.12ZM1.22,14.26c0-.62.5-1.12,1.12-1.12s1.12.5,1.12,1.12-.5,1.12-1.12,1.12-1.12-.5-1.12-1.12Z"/><path class="cls-1" d="m24.06,17.44v2.65c0,.27.22.48.48.48s.48-.22.48-.48v-2.65c0-.27-.22-.48-.48-.48s-.48.22-.48.48Z"/><path class="cls-1" d="m28.87,13.59h2.65c.27,0,.48-.21.48-.48,0-.27-.22-.48-.48-.48h-2.65c-.27,0-.48.22-.48.48,0,.27.22.48.48.48Z"/><path class="cls-1" d="m27.26,15.84c-.19.19-.19.49,0,.68l1.87,1.87c.19.19.49.19.68,0,.19-.19.19-.49,0-.68l-1.87-1.87c-.19-.19-.49-.19-.68,0Z"/></svg>