<?xml version="1.0" encoding="UTF-8"?><svg id="_レイヤー_1" xmlns="http://www.w3.org/2000/svg" viewBox="0 0 12.42 25.1"><defs><style>.cls-1{fill:#fff;}.cls-1,.cls-2{stroke:#fff;stroke-miterlimit:10;stroke-width:.2px;}.cls-2,.cls-3{fill:#212121;}.cls-3{stroke-width:0px;}</style></defs><path class="cls-3" d="m12.42,23.78c0,.73-3.11,1.32-6.61,1.32-2.82,0-5.81-.59-5.81-1.32s3.35-1.32,5.81-1.32c3.02,0,6.61.59,6.61,1.32Z"/><path class="cls-3" d="m8.6,23.69H3.78V3.11c0-.74,1.25-1.05,2.41-1.05s2.41.28,2.41,1.05v20.58Z"/><path class="cls-3" d="m1.76,7l3.57,1.92c.28.15.32.6.09,1l-.33.59c-.22.41-.63.61-.91.46l-3.57-1.92c-.28-.15-.32-.6-.09-1l.33-.59c.22-.41.63-.61.91-.46Z"/><path class="cls-3" d="m1.76,14.15l3.57,1.92c.28.15.32.6.09,1l-.33.59c-.22.41-.63.61-.91.46l-3.57-1.92c-.28-.15-.32-.6-.09-1l.33-.59c.22-.41.63-.61.91-.46Z"/><path class="cls-3" d="m10.42,11.02l-3.57,1.92c-.28.15-.32.6-.09,1l.33.59c.22.41.63.61.91.46l3.57-1.92c.28-.15.32-.6.09-1l-.33-.59c-.22-.41-.63-.61-.91-.46Z"/><path class="cls-2" d="m10.56,3.25c.18-.82.05-1.85-.88-2.55,0,0,0,0,0,0-.12-.09-.25-.17-.4-.25-.01,0-.02-.01-.04-.02-.04-.02-.09-.05-.13-.07s-.09-.04-.14-.06c-.01,0-.02-.01-.04-.02-.15-.06-.3-.11-.45-.14,0,0,0,0,0,0-1.15-.25-2.03.33-2.54.99-1.3-.13-2.35.19-2.7.93-.55,1.18.87,2.98,3.18,4.03s4.63.95,5.18-.23c.35-.74-.09-1.73-1.03-2.63Zm-.33.95s-.04.1-.06.15c-.02.05-.04.1-.06.15-.01.03-.02.06-.04.08-.05.12-.1.24-.15.35-.03.06-.05.12-.08.18-.02.04-.04.08-.05.12-.05.09-.14.14-.24.12-.02,0-.04,0-.06-.01-.06-.01-.12-.03-.19-.04-.04,0-.08-.02-.12-.03-.05-.01-.1-.02-.15-.04-.07-.02-.14-.04-.21-.06-.03,0-.06-.02-.09-.03-.08-.02-.15-.04-.23-.07-.06-.02-.11-.03-.17-.05-.09-.03-.19-.06-.28-.1,0,0-.01,0-.02,0-.1-.04-.19-.07-.29-.11-.09-.03-.17-.07-.26-.11,0,0-.01,0-.02,0-.03-.01-.06-.03-.09-.04-.08-.03-.16-.07-.24-.11s-.16-.07-.23-.11c-.03-.01-.06-.03-.09-.04,0,0-.01,0-.02,0-.08-.04-.17-.08-.25-.13-.09-.05-.18-.1-.27-.15,0,0-.01,0-.02-.01-.09-.05-.17-.1-.26-.15-.01,0-.02-.01-.04-.02-.04-.03-.09-.05-.13-.08-.06-.04-.12-.07-.18-.11-.04-.02-.08-.05-.12-.08-.06-.03-.11-.07-.16-.11-.03-.02-.06-.04-.09-.06-.05-.03-.13-.1-.13-.1,0,0-.11-.08-.16-.12-.01,0-.02-.01-.03-.02,0,0,0,0,0,0-.08-.07-.11-.18-.06-.27h0c.04-.09.08-.17.12-.25.08-.15.16-.31.24-.46.02-.05.05-.1.08-.15.03-.05.05-.1.08-.14.63.54,1.4,1.03,2.26,1.42.81.37,1.64.62,2.43.75.04,0,.09.02.13.02Z"/><path class="cls-1" d="m9.76,5.29c-.12.17-.27.07-.59,0-.62-.14-1.48-.46-2-.69-1.04-.45-1.87-1.05-2.03-1.17s-.36-.18-.25-.42c.08-.17.51-.99.51-.99,0,0,.92.83,2.28,1.43,1.46.64,2.54.77,2.54.77,0,0-.39.94-.47,1.08Z"/></svg>