<?xml version="1.0" encoding="UTF-8"?><svg id="_10" xmlns="http://www.w3.org/2000/svg" viewBox="0 0 32 28.12"><defs><style>.cls-1{fill:#212121;stroke-width:0px;}</style></defs><path class="cls-1" d="m12.25,20.1h0s15.19,0,15.19,0v-2.73c-.08-1.48-1.02-2.14-2.42-2.42-2.86-.33-4.05-.47-10.35-1.19-1.34,0-2.42,1.08-2.42,2.42v3.92h0Z"/><circle class="cls-1" cx="8.05" cy="17.38" r="3.13"/><path class="cls-1" d="m28.72,17.74v4.54h0s-25.48,0-25.48,0v-7.36c0-.87-.71-1.58-1.58-1.58h-.07c-.87,0-1.58.71-1.58,1.58v13.19h3.24v-2.58h0s25.45,0,25.45,0h.07v2.58h0v.02h3.24v-10.38h-3.28Z"/><path class="cls-1" d="m12.25,6.79h0s15.19,0,15.19,0v-2.73c-.08-1.48-1.02-2.14-2.42-2.42-2.86-.33-4.05-.47-10.35-1.19-1.34,0-2.42,1.08-2.42,2.42v3.92h0Z"/><circle class="cls-1" cx="8.05" cy="4.07" r="3.13"/><path class="cls-1" d="m28.72,4.4v4.54h0s-25.48,0-25.48,0V1.58c0-.87-.71-1.58-1.58-1.58h-.07C.71,0,0,.71,0,1.58v13.19h3.24v-2.58h0s25.45,0,25.45,0h.07v2.59l-.04,2.96,3.28.65V4.4h-3.28Z"/></svg>