<?xml version="1.0" encoding="UTF-8"?><svg id="_レイヤー_1" xmlns="http://www.w3.org/2000/svg" viewBox="0 0 32 31.83"><defs><style>.cls-1,.cls-2{stroke-width:0px;}.cls-2{fill:#fff;}</style></defs><path class="cls-1" d="m.02,16.93C.02,13.76,0,8.55,0,2.83c0-.22.15-.41.36-.46C4.04,1.46,4.63,1.33,9.7.2c1.26-.28,1.22-.25,2.31.04,3.43.87,6.06,1.54,9.79,2.44.14.03.29.03.43,0,4.14-.84,4.51-.92,9.11-1.84.27-.06.53.14.53.41.08,7.17.08,9.3.11,13.27,0,4.62.02,6.85,0,13.01,0,.18-.11.35-.28.42-3.42,1.36-5.41,2.14-9.71,3.82-.15.06-.32.07-.48,0-1.33-.48-7.52-2.68-10.85-3.95-.1-.04-.21-.04-.31,0-2.82.98-4.31,1.48-9.79,3.32-.28.09-.56-.11-.57-.4-.03-3.83,0-9.81,0-13.83ZM10.96,3.24c0,2.51-.05,19.17-.05,20.98,0,.1.06.18.15.21,4.16,1.49,6.91,2.44,10.12,3.55.29.11.46.12.47-.32,0-.5.07-14.83.13-21.54,0-.1-.07-.19-.17-.22-4.53-1.26-5.77-1.59-10.34-2.87-.17-.06-.31.04-.31.21Z"/><path class="cls-2" d="m21.65,27.82c0,.22-.15.26-.3.21l-10.14-3.54c-.32-.1-.3-.2-.3-.39l.04-20.75c-.03-.45.24-.34.5-.28l9.99,2.79c.26.07.34.28.33.46,0,0-.06,13.73-.13,21.49Z"/></svg>