<?xml version="1.0" encoding="UTF-8"?><svg id="_2" xmlns="http://www.w3.org/2000/svg" viewBox="0 0 32 19.47"><defs><style>.cls-1{fill:#212121;stroke-width:0px;}</style></defs><path class="cls-1" d="m7.4,7.4c1.34,0,2.43-1.09,2.43-2.43s-1.09-2.43-2.43-2.43-2.43,1.09-2.43,2.43c0,1.34,1.09,2.43,2.43,2.43Z"/><path class="cls-1" d="m6.13,11.1h22.5c.89,0,1.71-.3,2.31-.85.3-.27.54-.6.7-.96.17-.36.26-.76.26-1.17s-.09-.82-.27-1.21c-.27-.58-.72-1.08-1.31-1.46-.59-.38-1.31-.65-2.15-.81h-.04s-15.44-2.32-15.44-2.32c-.36-.05-.74.05-1.02.29-.28.24-.44.6-.44.96v4.97h-5.09c-.7,0-1.27.57-1.27,1.27s.57,1.27,1.27,1.27Z"/><path class="cls-1" d="m3.01,12.25V1.5c0-.83-.67-1.5-1.5-1.5C.67,0,0,.67,0,1.5v17.96h3.01v-4.21h25.99v4.21h3.01v-7.21H3.01Z"/></svg>