<?xml version="1.0" encoding="UTF-8"?><svg id="contents" xmlns="http://www.w3.org/2000/svg" viewBox="0 0 32 30.01"><defs><style>.cls-1{fill:#212121;stroke-width:0px;}</style></defs><path class="cls-1" d="m3.69,5.39l-3.23.04.06,18.37c-.03.52.43.93.95.85l1.52-.24c.38-.06.67-.38.69-.77V5.39Z"/><path class="cls-1" d="m19.73,19.31c0,.52.48.91.99.8l1.51-.31c.38-.08.65-.41.65-.8v-7.84l-3.15.95v7.2Z"/><path class="cls-1" d="m28.29,14.78v-4.41l-14.39,2.94c-.4.08-.79.12-1.19.14v15.44c0,.39-.27.72-.65.8l-1.51.31c-.51.11-.99-.28-.99-.8V12.83c-.51-.23-1-.51-1.46-.86,0,0-5.55-3.85-6.09-4.28-.99-.78-2.36-1.49-1.93-2.93.38-1.3,2-1.64,5.08-2.23,3.44-.7,6.15-1.2,11.55-2.2,2.88-.53,3.32-.44,4.87.4,2.02,1.09,7.78,4.63,9.15,5.45,1.42.84,1.63,2.39.7,3.24v16.94c0,.39-.27.72-.65.8l-1.51.31c-.51.11-.99-.28-.99-.8v-11.89Z"/></svg>