<?xml version="1.0" encoding="UTF-8"?><svg id="_2" xmlns="http://www.w3.org/2000/svg" viewBox="0 0 32 36.24"><defs><style>.cls-1{fill:#212121;stroke-width:0px;}</style></defs><path class="cls-1" d="m29.47,9.27h-1.64c-1.37,0-2.48,1.11-2.48,2.48v11.51H6.64v-11.51c0-1.37-1.11-2.48-2.48-2.48h-1.64c-1.4,0-2.53,1.13-2.53,2.53v15.93c0,1.4,1.13,2.53,2.53,2.53h26.94c1.4,0,2.53-1.13,2.53-2.53v-15.93c0-1.4-1.13-2.53-2.53-2.53Z"/><polygon class="cls-1" points="4.95 36.24 7.64 36.24 7.95 31.4 4.64 31.4 4.95 36.24"/><polygon class="cls-1" points="24.36 36.24 27.05 36.24 27.36 31.4 24.05 31.4 24.36 36.24"/><path class="cls-1" d="m8.04,10.84v11.01h15.91v-11.01c0-1.64,1.33-2.97,2.97-2.97h.09v-2.61c0-2.9-2.35-5.25-5.25-5.25h-11.52c-2.9,0-5.25,2.35-5.25,5.25v2.61h.09c1.64,0,2.97,1.33,2.97,2.97Z"/></svg>