<?xml version="1.0" encoding="UTF-8"?><svg id="contents" xmlns="http://www.w3.org/2000/svg" viewBox="0 0 32 16.71"><defs><style>.cls-1{fill:#212121;stroke-width:0px;}</style></defs><path class="cls-1" d="m8.93,0v16.71h14.14V0h-14.14Zm7.07,14.75c-1.13,0-2.05-.92-2.05-2.05s.92-2.05,2.05-2.05,2.05.92,2.05,2.05-.92,2.05-2.05,2.05Zm3.95-6.06h-7.91v-1.91h7.91v1.91Zm0-3.25h-7.91v-3.09h7.91v3.09Z"/><path class="cls-1" d="m.89,0c-.49,0-.89.4-.89.89v14.93c0,.49.4.89.89.89h6.68V0H.89Zm2.89,13.11c-.64,0-1.16-.52-1.16-1.16s.52-1.16,1.16-1.16,1.16.52,1.16,1.16-.52,1.16-1.16,1.16Zm0-5.92c-1.35,0-2.44-1.09-2.44-2.44s1.09-2.44,2.44-2.44,2.44,1.09,2.44,2.44-1.09,2.44-2.44,2.44Z"/><path class="cls-1" d="m3.78,5.93c-.65,0-1.19-.53-1.19-1.19s.53-1.19,1.19-1.19,1.19.53,1.19,1.19-.53,1.19-1.19,1.19Z"/><path class="cls-1" d="m28.22,5.93c-.65,0-1.19-.53-1.19-1.19s.53-1.19,1.19-1.19,1.19.53,1.19,1.19-.53,1.19-1.19,1.19Z"/><path class="cls-1" d="m31.11,0h-6.68v16.71h6.68c.49,0,.89-.4.89-.89V.89c0-.49-.4-.89-.89-.89Zm-2.89,13.11c-.64,0-1.16-.52-1.16-1.16s.52-1.16,1.16-1.16,1.16.52,1.16,1.16-.52,1.16-1.16,1.16Zm0-5.92c-1.35,0-2.44-1.09-2.44-2.44s1.09-2.44,2.44-2.44,2.44,1.09,2.44,2.44-1.09,2.44-2.44,2.44Z"/></svg>