<?xml version="1.0" encoding="utf-8"?>
<!-- Generator: Adobe Illustrator 27.9.4, SVG Export Plug-In . SVG Version: 9.03 Build 54784)  -->
<svg version="1.1" id="_x32_" xmlns="http://www.w3.org/2000/svg" xmlns:xlink="http://www.w3.org/1999/xlink" x="0px" y="0px"
	 viewBox="0 0 32 18.4" style="enable-background:new 0 0 32 18.4;" xml:space="preserve">
<style type="text/css">
	.st0{fill:#212121;}
</style>
<g>
	<path class="st0" d="M27.5,0H3.7C2.9,0,2.2,0.5,2,1.2L0.2,6.5C0.1,7.1,0,7.6,0,8.1v7.6h3.5H4c0,0,0-0.1,0-0.1
		c0-2.1,1.7-3.8,3.8-3.8s3.8,1.7,3.8,3.8c0,0,0,0.1,0,0.1H21c0,0,0-0.1,0-0.1c0-2.1,1.7-3.8,3.8-3.8s3.8,1.7,3.8,3.8
		c0,0,0,0.1,0,0.1H32V4.5C32,2,30,0,27.5,0z M6.2,10.4c0,0.2-0.2,0.4-0.5,0.4H3.2c-0.2,0-0.5-0.2-0.5-0.4V8.1c0-0.3,0-0.6,0.1-0.9
		l1.5-4.5c0.1-0.2,0.2-0.3,0.4-0.3h0.9c0.2,0,0.5,0.2,0.5,0.5L6.2,10.4L6.2,10.4z M14.2,6.9c0,0.1-0.1,0.2-0.2,0.2H8.8
		C8.6,7.1,8.5,7,8.5,6.9V2.6c0-0.1,0.1-0.2,0.2-0.2H14c0.1,0,0.2,0.1,0.2,0.2L14.2,6.9L14.2,6.9z M22,6.9c0,0.1-0.1,0.2-0.2,0.2
		h-5.4c-0.1,0-0.2-0.1-0.2-0.2V2.6c0-0.1,0.1-0.2,0.2-0.2h5.4c0.1,0,0.2,0.1,0.2,0.2L22,6.9L22,6.9z M29.3,6.7
		c0,0.2-0.2,0.5-0.5,0.5h-4.2c-0.2,0-0.5-0.2-0.5-0.5V2.8c0-0.2,0.2-0.5,0.5-0.5h2.5c1.2,0,2.2,1,2.2,2.2V6.7z"/>
	<path class="st0" d="M7.8,12.8C6.2,12.8,5,14,5,15.6s1.3,2.8,2.8,2.8s2.8-1.3,2.8-2.8C10.6,14,9.3,12.8,7.8,12.8z M7.8,16.8
		c-0.7,0-1.2-0.5-1.2-1.2c0-0.6,0.5-1.2,1.2-1.2S9,15,9,15.6C9,16.2,8.4,16.8,7.8,16.8z"/>
	<path class="st0" d="M24.8,12.8c-1.6,0-2.8,1.3-2.8,2.8s1.3,2.8,2.8,2.8s2.8-1.3,2.8-2.8C27.6,14,26.4,12.8,24.8,12.8z M24.8,16.8
		c-0.6,0-1.2-0.5-1.2-1.2c0-0.6,0.5-1.2,1.2-1.2c0.6,0,1.2,0.5,1.2,1.2C26,16.2,25.5,16.8,24.8,16.8z"/>
</g>
</svg>
