<?xml version="1.0" encoding="utf-8"?>
<!-- Generator: Adobe Illustrator 27.9.4, SVG Export Plug-In . SVG Version: 9.03 Build 54784)  -->
<svg version="1.1" id="_x32_" xmlns="http://www.w3.org/2000/svg" xmlns:xlink="http://www.w3.org/1999/xlink" x="0px" y="0px"
	 viewBox="0 0 32 47" style="enable-background:new 0 0 32 47;" xml:space="preserve">
<style type="text/css">
	.st0{fill:#FFFFFF;}
</style>
<g>
	<path class="st0" d="M14.4,9.1C17,9.1,19,7,19,4.5C19,2,16.9,0,14.4,0c-2.5,0-4.5,2-4.5,4.5C9.9,7.1,11.9,9.1,14.4,9.1z"/>
	<path class="st0" d="M31.7,22.1l-3-4.5c-0.7-1.1-1.7-2-2.8-2.6L20,11.7c-1.1-0.5-1.9-0.8-2.9-0.7l-2.8,0.4c-1.1,0.1-2,0.7-2.7,1.5
		l-5.4,5.7l-4.9,1.8c-0.9,0.3-1.4,1.4-1.1,2.3l0,0.1c0.3,0.9,1.3,1.5,2.2,1.3l4-0.9c1-0.2,2-0.6,2.8-1.2l2.8-1.9l1,7.5
		c0.1,0.6,0,1.1-0.3,1.6L4.2,43.7c-0.6,1-0.2,2.4,0.8,3l0.1,0C6.1,47.2,7.3,47,8,46l9.3-13.4l2.8,5.6c0.2,0.4,0.5,0.8,0.8,1.1
		l6.3,6.1c0.8,0.8,2,0.8,2.9,0.1l0.1-0.1c0.4-0.4,0.7-0.9,0.7-1.5c0-0.6-0.2-1.1-0.5-1.5l-5.3-5.9l-2.9-10.4l0,0l-0.8-8.2l2.9,1.3
		l4.7,4.9c0.6,0.6,1.5,0.7,2.2,0.2l0,0C32,24,32.2,22.9,31.7,22.1z"/>
</g>
</svg>
