<?xml version="1.0" encoding="utf-8"?>
<!-- Generator: Adobe Illustrator 27.9.4, SVG Export Plug-In . SVG Version: 9.03 Build 54784)  -->
<svg version="1.1" id="_2" xmlns="http://www.w3.org/2000/svg" xmlns:xlink="http://www.w3.org/1999/xlink" x="0px" y="0px"
	 viewBox="0 0 32 14.3" style="enable-background:new 0 0 32 14.3;" xml:space="preserve">
<style type="text/css">
	.st0{fill:#212121;}
</style>
<path class="st0" d="M0,11.1c0,1.7,3,3.2,6.2,3.2H21c1.1,0,9.5-3.3,10.4-4c0.9-0.7,0.8-2.4-0.2-2.4h-1.3l1.3-4.9
	c0.1-0.3,0-0.5-0.2-0.5h-2.1c-0.2,0-0.5,0.2-0.6,0.4l-4.1,5h-6.7l4.5-7.2C22,0.3,22,0,21.8,0H19c-0.2,0-0.5,0.2-0.8,0.4l-7.9,7.4
	H6.1c-2.3,0-3.3,0.1-3.8,0.7C1.8,9.1,0,10.2,0,11.1z"/>
</svg>
