<?xml version="1.0" encoding="utf-8"?>
<!-- Generator: Adobe Illustrator 27.9.4, SVG Export Plug-In . SVG Version: 9.03 Build 54784)  -->
<svg version="1.1" id="_x32_" xmlns="http://www.w3.org/2000/svg" xmlns:xlink="http://www.w3.org/1999/xlink" x="0px" y="0px"
	 viewBox="0 0 32 28.5" style="enable-background:new 0 0 32 28.5;" xml:space="preserve">
<style type="text/css">
	.st0{fill:#FFFFFF;}
</style>
<g>
	<path class="st0" d="M0,25.2c0,0.5,0.4,1,0.9,1h2.9c0,0.1,0,0.2,0,0.3c0,1.1,0.9,2,2,2s2-0.9,2-2c0-0.1,0-0.2,0-0.3H10
		c0,0.1,0,0.2,0,0.3c0,1.1,0.9,2,2,2s2-0.9,2-2c0-0.1,0-0.2,0-0.3h3.8c0,0.1,0,0.2,0,0.3c0,1.1,0.9,2,2,2s2-0.9,2-2
		c0-0.1,0-0.2,0-0.3h2.2c0,0.1,0,0.2,0,0.3c0,1.1,0.9,2,2,2s2-0.9,2-2c0-0.1,0-0.2,0-0.3H31c0.5,0,1-0.4,1-1v-2.6H0V25.2z"/>
	<path class="st0" d="M26.7,7h-4.6l0.3-0.2l4.3-3.3L21.9,0l-4.8,3.6L21.7,7H10.3l0.3-0.2l4.3-3.3L10.1,0L5.3,3.6L9.9,7H5.3
		C2.4,7,0,9.4,0,12.3v9h32v-9C32,9.4,29.6,7,26.7,7z M19.5,3.6l2.4-1.8l2.4,1.8l-2.4,1.8L19.5,3.6z M7.7,3.6l2.4-1.8l2.4,1.8
		l-2.4,1.8L7.7,3.6z M12.4,18h-5v-4.3h5V18z M24.6,18h-5v-4.3h5V18z"/>
</g>
</svg>
