<?xml version="1.0" encoding="utf-8"?>
<!-- Generator: Adobe Illustrator 27.9.4, SVG Export Plug-In . SVG Version: 9.03 Build 54784)  -->
<svg version="1.1" id="_レイヤー_1" xmlns="http://www.w3.org/2000/svg" xmlns:xlink="http://www.w3.org/1999/xlink" x="0px"
	 y="0px" viewBox="0 0 32 20.3" style="enable-background:new 0 0 32 20.3;" xml:space="preserve">
<path d="M19.1,0h-0.9v0c-2.7,0.3-4.4,1.7-6,3.1C10.6,4.7,8.8,6.4,5,7.4c-3.5,1-5.4,3.6-4.9,6.1c0.2,1.3,1.1,2.4,2.4,3.2
	c1.3,0.8,3.1,1.2,5.4,1.1H32V0L19.4,0C19.3,0,19.2,0,19.1,0L19.1,0z M29.8,7.5h-3.1v-4h3.1C29.8,3.5,29.8,7.5,29.8,7.5z M25.3,7.5
	h-3.1v-4h3.1C25.3,3.5,25.3,7.5,25.3,7.5z M19.2,3.5v4H7.4c2.7-1.2,4.3-2.7,5.7-4L19.2,3.5L19.2,3.5z M29.8,15.9h-27
	c-0.7-0.4-1.3-1.1-1.7-1.9h28.7V15.9z M3.5,19.1v1.1H32v-1.1H3.5z"/>
</svg>
