<?xml version="1.0" encoding="utf-8"?>
<!-- Generator: Adobe Illustrator 27.9.4, SVG Export Plug-In . SVG Version: 9.03 Build 54784)  -->
<svg version="1.1" id="_x32_" xmlns="http://www.w3.org/2000/svg" xmlns:xlink="http://www.w3.org/1999/xlink" x="0px" y="0px"
	 viewBox="0 0 32 16" style="enable-background:new 0 0 32 16;" xml:space="preserve">
<style type="text/css">
	.st0{fill:#FFFFFF;}
</style>
<g>
	<path class="st0" d="M31.3,5.2l-2.1-3.4c-0.7-1.2-2-1.8-3.3-1.8h-9.9c-1.7,0-3.3,0.7-4.4,1.9L8.7,4.7L1.9,6.3C0.8,6.6,0,7.6,0,8.7
		v2.6c0,0.6,0.5,1,1,1h3.6c0,0.1,0,0.1,0,0.2C4.6,14.5,6.1,16,8,16s3.4-1.5,3.4-3.4c0-0.1,0-0.1,0-0.2h10.6c0,0.1,0,0.1,0,0.2
		c0,1.9,1.5,3.4,3.4,3.4s3.4-1.5,3.4-3.4c0-0.1,0-0.1,0-0.2H31c0.6,0,1-0.5,1-1V7.8C32,6.9,31.8,6,31.3,5.2z M8,14
		c-0.7,0-1.3-0.6-1.3-1.3s0.6-1.3,1.3-1.3s1.3,0.6,1.3,1.3C9.3,13.4,8.7,14,8,14z M16.5,5.5h-6.1l2.3-2.4c0.8-0.8,2-1.3,3.2-1.3h0.6
		V5.5L16.5,5.5z M23.4,5.5h-5.4V1.8h5.4V5.5z M25.3,14c-0.7,0-1.3-0.6-1.3-1.3s0.6-1.3,1.3-1.3s1.3,0.6,1.3,1.3
		C26.7,13.4,26.1,14,25.3,14z M25,5.5V1.8h0.8c0.7,0,1.4,0.4,1.8,1l1.7,2.7L25,5.5L25,5.5z"/>
</g>
</svg>
