<?xml version="1.0" encoding="UTF-8"?><svg id="_2" xmlns="http://www.w3.org/2000/svg" viewBox="0 0 32 26.4"><defs><style>.cls-1{fill:#fff;stroke-width:0px;}</style></defs><path class="cls-1" d="m27.22,6.63h-4.25l4.15-3.11-4.7-3.52-4.7,3.52,4.15,3.11h-11.76l4.15-3.11L9.58,0l-4.7,3.52,4.15,3.11h-4.25c-2.64,0-4.78,2.14-4.78,4.78v11.62c0,.47.38.86.86.86h2.57c-.02.11-.03.23-.03.34,0,1.2.97,2.17,2.17,2.17s2.17-.97,2.17-2.17c0-.12-.02-.23-.03-.34h1.32c-.02.11-.03.23-.03.34,0,1.2.97,2.17,2.17,2.17s2.17-.97,2.17-2.17c0-.12-.02-.23-.03-.34h5.41c-.02.11-.03.23-.03.34,0,1.2.97,2.17,2.17,2.17s2.17-.97,2.17-2.17c0-.12-.02-.23-.03-.34h1.32c-.02.11-.03.23-.03.34,0,1.2.97,2.17,2.17,2.17s2.17-.97,2.17-2.17c0-.12-.02-.23-.03-.34h2.57c.47,0,.86-.38.86-.86v-11.62c0-2.64-2.14-4.78-4.78-4.78Zm-17.87,13.79h-3.89v-7.78h3.89v7.78Zm.22-15.01l-2.54-1.9,2.54-1.9,2.54,1.9-2.54,1.9Zm8.42,11.11h-4.54v-3.89h4.54v3.89Zm1.89-13.01l2.54-1.9,2.54,1.9-2.54,1.9-2.54-1.9Zm6.65,13.01h-4.54v-3.89h4.54v3.89Z"/></svg>